SplineFontDB: 3.2
FontName: FiraSansCondensed-Regular-Expanded
FullName: Fira Sans Condensed Regular
FamilyName: Fira Sans Condensed
Weight: Regular
Copyright: Digitized data copyright 2012-2016, The Mozilla Foundation and Telefonica S.A.
Version: 4.203
ItalicAngle: 0
UnderlinePosition: -100
UnderlineWidth: 50
Ascent: 800
Descent: 200
InvalidEm: 0
sfntRevision: 0x000433f7
LayerCount: 2
Layer: 0 1 "Hinten" 1
Layer: 1 1 "Vorne" 0
XUID: [1021 960 -281348518 13369]
StyleMap: 0x0040
FSType: 0
OS2Version: 4
OS2_WeightWidthSlopeOnly: 0
OS2_UseTypoMetrics: 1
CreationTime: 1476947922
ModificationTime: 1747940807
PfmFamily: 17
TTFWeight: 400
TTFWidth: 3
LineGap: 0
VLineGap: 0
Panose: 2 11 5 3 5 0 0 2 0 4
OS2TypoAscent: 935
OS2TypoAOffset: 0
OS2TypoDescent: -265
OS2TypoDOffset: 0
OS2TypoLinegap: 0
OS2WinAscent: 935
OS2WinAOffset: 0
OS2WinDescent: 265
OS2WinDOffset: 0
HheadAscent: 935
HheadAOffset: 0
HheadDescent: -265
HheadDOffset: 0
OS2SubXSize: 650
OS2SubYSize: 600
OS2SubXOff: 0
OS2SubYOff: 75
OS2SupXSize: 650
OS2SupYSize: 600
OS2SupXOff: 0
OS2SupYOff: 350
OS2StrikeYSize: 50
OS2StrikeYPos: 315
OS2CapHeight: 688
OS2XHeight: 526
OS2Vendor: 'CTDB'
OS2CodePages: 2000019f.00000000
OS2UnicodeRanges: 600002ff.00000001.00000000.00000000
Lookup: 1 0 0 "'aalt' Zugriff auf alle Alternativen Nachschlagetabelle 0" { "'aalt' Zugriff auf alle Alternativen Nachschlagetabelle 0 Subtabelle"  } ['aalt' ('DFLT' <'dflt' > 'cyrl' <'dflt' > 'grek' <'dflt' > 'latn' <'AFK ' 'AZE ' 'CAT ' 'CRT ' 'KAZ ' 'MOL ' 'PLK ' 'ROM ' 'TAT ' 'TRK ' 'dflt' > ) ]
Lookup: 3 0 0 "'aalt' Zugriff auf alle Alternativen Nachschlagetabelle 1" { "'aalt' Zugriff auf alle Alternativen Nachschlagetabelle 1 Subtabelle"  } ['aalt' ('DFLT' <'dflt' > 'cyrl' <'dflt' > 'grek' <'dflt' > 'latn' <'AFK ' 'AZE ' 'CAT ' 'CRT ' 'KAZ ' 'MOL ' 'PLK ' 'ROM ' 'TAT ' 'TRK ' 'dflt' > ) ]

StartChar: .notdef
Encoding: 1686 -1 0
Width: 666
GlyphClass: 1
Flags: W
LayerCount: 2
Fore
SplineSet
543 1050 m 1,0,-1
 543 -350 l 1,1,-1
 123 -350 l 1,2,-1
 123 1050 l 1,3,-1
 543 1050 l 1,0,-1
489 998 m 1,4,-1
 178 998 l 1,5,-1
 178 -298 l 1,6,-1
 489 -298 l 1,7,-1
 489 998 l 1,4,-1
409.5 419 m 128,-1,9
 435 387 435 387 435 336 c 0,10,11
 435 283 435 283 412.5 254 c 128,-1,12
 390 225 390 225 340 218 c 1,13,-1
 340 173 l 2,14,15
 340 162 340 162 332.5 155.5 c 128,-1,16
 325 149 325 149 315 149 c 256,17,18
 305 149 305 149 297.5 155.5 c 128,-1,19
 290 162 290 162 290 173 c 2,20,-1
 290 257 l 1,21,22
 343 260 343 260 362 276.5 c 128,-1,23
 381 293 381 293 381 334 c 0,24,25
 381 367 381 367 368 385 c 128,-1,26
 355 403 355 403 320 403 c 0,27,28
 291 403 291 403 268 392 c 0,29,30
 260 389 260 389 255 389 c 0,31,32
 244 389 244 389 237.5 395.5 c 128,-1,33
 231 402 231 402 231 412 c 0,34,35
 231 431 231 431 260.5 441 c 128,-1,36
 290 451 290 451 324 451 c 0,37,8
 384 451 384 451 409.5 419 c 128,-1,9
340 110 m 128,-1,39
 350 100 350 100 350 85 c 0,40,41
 350 69 350 69 340 58.5 c 128,-1,42
 330 48 330 48 315 48 c 256,43,44
 300 48 300 48 290 58.5 c 128,-1,45
 280 69 280 69 280 85 c 0,46,47
 280 100 280 100 290 110 c 128,-1,48
 300 120 300 120 315 120 c 256,49,38
 330 120 330 120 340 110 c 128,-1,39
EndSplineSet
Validated: 1
EndChar

StartChar: A
Encoding: 34 65 3
Width: 526
GlyphClass: 2
Flags: W
AnchorPoint: "Anker-18" 0 0 basechar 0
AnchorPoint: "Anker-17" 0 0 basechar 0
AnchorPoint: "Anker-16" 263 688 basechar 0
AnchorPoint: "Anker-15" 487 0 basechar 0
AnchorPoint: "Anker-14" 263 0 basechar 0
LayerCount: 2
Fore
SplineSet
423 0 m 1,0,-1
 377 175 l 1,1,-1
 146 175 l 1,2,-1
 100 0 l 1,3,-1
 7 0 l 1,4,-1
 206 688 l 1,5,-1
 320 688 l 1,6,-1
 519 0 l 1,7,-1
 423 0 l 1,0,-1
165 248 m 1,8,-1
 358 248 l 1,9,-1
 262 614 l 1,10,-1
 165 248 l 1,8,-1
EndSplineSet
Validated: 1
Substitution2: "Einzelne Substitution Nachschlagetabelle 45 Subtabelle" ordfeminine
Substitution2: "'c2sc' Versalien in Kapit+AOQA-lchen Nachschlagetabelle 26 Subtabelle" a.sc
AlternateSubs2: "'aalt' Zugriff auf alle Alternativen Nachschlagetabelle 1 Subtabelle" ordfeminine a.sc
Position2: "'cpsp' Spationierung von Versalien Nachschlagetabelle 0 Subtabelle" dx=5 dy=0 dh=10 dv=0
EndChar

StartChar: uni2C6D
Encoding: 1664 11373 27
Width: 617
GlyphClass: 2
Flags: W
AnchorPoint: "Anker-18" 0 0 basechar 0
AnchorPoint: "Anker-17" 0 0 basechar 0
AnchorPoint: "Anker-16" 310 688 basechar 0
AnchorPoint: "Anker-15" 0 0 basechar 0
AnchorPoint: "Anker-14" 310 0 basechar 0
LayerCount: 2
Fore
SplineSet
539 83 m 128,-1,1
 548 68 548 68 571 58 c 1,2,-1
 542 -11 l 1,3,4
 501 0 501 0 478 17.5 c 128,-1,5
 455 35 455 35 445 64 c 1,6,7
 385 -13 385 -13 289 -13 c 0,8,9
 220 -13 220 -13 166 24.5 c 128,-1,10
 112 62 112 62 81 139 c 128,-1,11
 50 216 50 216 50 330 c 0,12,13
 50 449 50 449 81.5 532.5 c 128,-1,14
 113 616 113 616 168 658.5 c 128,-1,15
 223 701 223 701 292 701 c 0,16,17
 381 701 381 701 441 631 c 1,18,-1
 449 688 l 1,19,-1
 530 688 l 1,20,-1
 530 129 l 2,21,0
 530 98 530 98 539 83 c 128,-1,1
377.5 79.5 m 128,-1,23
 410 98 410 98 437 134 c 1,24,-1
 437 557 l 1,25,26
 385 627 385 627 308 627 c 0,27,28
 234 627 234 627 191 556 c 128,-1,29
 148 485 148 485 148 330 c 0,30,31
 148 61 148 61 302 61 c 0,32,22
 345 61 345 61 377.5 79.5 c 128,-1,23
EndSplineSet
Validated: 1
Substitution2: "'c2sc' Versalien in Kapit+AOQA-lchen Nachschlagetabelle 26 Subtabelle" uni0251.sc
Substitution2: "'aalt' Zugriff auf alle Alternativen Nachschlagetabelle 0 Subtabelle" uni0251.sc
Position2: "'cpsp' Spationierung von Versalien Nachschlagetabelle 0 Subtabelle" dx=5 dy=0 dh=10 dv=0
EndChar

StartChar: Aogonek
Encoding: 196 260 29
Width: 526
GlyphClass: 2
Flags: W
AnchorPoint: "Anker-18" 0 0 basechar 0
AnchorPoint: "Anker-17" 0 0 basechar 0
AnchorPoint: "Anker-16" 263 688 basechar 0
AnchorPoint: "Anker-15" 487 0 basechar 0
AnchorPoint: "Anker-14" 263 0 basechar 0
LayerCount: 2
Fore
SplineSet
393 -55.5 m 128,-1,1
 369 -82 369 -82 369 -114 c 0,2,3
 369 -163 369 -163 422 -163 c 0,4,5
 445 -163 445 -163 475 -157 c 1,6,-1
 468 -221 l 1,7,8
 435 -228 435 -228 411 -228 c 0,9,10
 358 -228 358 -228 327.5 -201 c 128,-1,11
 297 -174 297 -174 297 -128 c 0,12,13
 297 -81 297 -81 327.5 -46.5 c 128,-1,14
 358 -12 358 -12 419 15 c 1,15,-1
 377 175 l 1,16,-1
 146 175 l 1,17,-1
 100 0 l 1,18,-1
 7 0 l 1,19,-1
 206 688 l 1,20,-1
 320 688 l 1,21,-1
 519 0 l 1,22,-1
 478 0 l 1,23,0
 417 -29 417 -29 393 -55.5 c 128,-1,1
165 248 m 1,24,-1
 358 248 l 1,25,-1
 262 614 l 1,26,-1
 165 248 l 1,24,-1
EndSplineSet
Validated: 1
Substitution2: "'c2sc' Versalien in Kapit+AOQA-lchen Nachschlagetabelle 26 Subtabelle" aogonek.sc
Substitution2: "'aalt' Zugriff auf alle Alternativen Nachschlagetabelle 0 Subtabelle" aogonek.sc
Position2: "'cpsp' Spationierung von Versalien Nachschlagetabelle 0 Subtabelle" dx=5 dy=0 dh=10 dv=0
EndChar

StartChar: uni023A
Encoding: 506 570 32
Width: 526
GlyphClass: 2
Flags: W
AnchorPoint: "Anker-18" 0 0 basechar 0
AnchorPoint: "Anker-17" 0 0 basechar 0
AnchorPoint: "Anker-16" 263 688 basechar 0
AnchorPoint: "Anker-15" 0 0 basechar 0
AnchorPoint: "Anker-14" 263 0 basechar 0
LayerCount: 2
Fore
SplineSet
428 0 m 1,0,-1
 382 175 l 1,1,-1
 259 175 l 1,2,-1
 200 -71 l 1,3,-1
 160 -62 l 1,4,-1
 216 175 l 1,5,-1
 142 175 l 1,6,-1
 95 0 l 1,7,-1
 7 0 l 1,8,-1
 206 688 l 1,9,-1
 320 688 l 1,10,-1
 330 653 l 1,11,-1
 353 748 l 1,12,-1
 393 739 l 1,13,-1
 353 573 l 1,14,-1
 519 0 l 1,15,-1
 428 0 l 1,0,-1
160 245 m 1,16,-1
 233 245 l 1,17,-1
 295 503 l 1,18,-1
 262 625 l 1,19,-1
 160 245 l 1,16,-1
275 245 m 1,20,-1
 363 245 l 1,21,-1
 317 419 l 1,22,-1
 275 245 l 1,20,-1
EndSplineSet
Validated: 1
Substitution2: "'c2sc' Versalien in Kapit+AOQA-lchen Nachschlagetabelle 26 Subtabelle" uni2C65.sc
Substitution2: "'aalt' Zugriff auf alle Alternativen Nachschlagetabelle 0 Subtabelle" uni2C65.sc
Position2: "'cpsp' Spationierung von Versalien Nachschlagetabelle 0 Subtabelle" dx=5 dy=0 dh=10 dv=0
EndChar

StartChar: AE
Encoding: 134 198 34
Width: 730
GlyphClass: 2
Flags: W
AnchorPoint: "Anker-18" 0 0 basechar 0
AnchorPoint: "Anker-17" 0 0 basechar 0
AnchorPoint: "Anker-16" 422 688 basechar 0
AnchorPoint: "Anker-15" 0 0 basechar 0
AnchorPoint: "Anker-14" 366 0 basechar 0
LayerCount: 2
Fore
SplineSet
486 73 m 1,0,-1
 693 73 l 1,1,-1
 693 0 l 1,2,-1
 410 0 l 1,3,-1
 376 173 l 1,4,-1
 144 173 l 1,5,-1
 87 0 l 1,6,-1
 -9 0 l 1,7,-1
 235 688 l 1,8,-1
 654 688 l 1,9,-1
 643 616 l 1,10,-1
 372 616 l 1,11,-1
 420 388 l 1,12,-1
 646 388 l 1,13,-1
 646 316 l 1,14,-1
 435 316 l 1,15,-1
 486 73 l 1,0,-1
168 246 m 1,16,-1
 362 246 l 1,17,-1
 289 616 l 1,18,-1
 168 246 l 1,16,-1
EndSplineSet
Validated: 1
Substitution2: "'c2sc' Versalien in Kapit+AOQA-lchen Nachschlagetabelle 26 Subtabelle" ae.sc
Substitution2: "'aalt' Zugriff auf alle Alternativen Nachschlagetabelle 0 Subtabelle" ae.sc
Position2: "'cpsp' Spationierung von Versalien Nachschlagetabelle 0 Subtabelle" dx=5 dy=0 dh=10 dv=0
EndChar

StartChar: B
Encoding: 35 66 37
Width: 547
GlyphClass: 2
Flags: W
AnchorPoint: "Anker-18" 0 0 basechar 0
AnchorPoint: "Anker-17" 0 0 basechar 0
AnchorPoint: "Anker-16" 268 688 basechar 0
AnchorPoint: "Anker-15" 0 0 basechar 0
AnchorPoint: "Anker-14" 281 0 basechar 0
LayerCount: 2
Fore
SplineSet
509 194 m 0,1,2
 509 96 509 96 443 48 c 128,-1,3
 377 0 377 0 261 0 c 2,4,-1
 85 0 l 1,5,-1
 85 688 l 1,6,-1
 234 688 l 2,7,8
 353 688 353 688 417 644 c 128,-1,9
 481 600 481 600 481 515 c 0,10,11
 481 454 481 454 447.5 415.5 c 128,-1,12
 414 377 414 377 359 364 c 1,13,0
 509 338 509 338 509 194 c 0,1,2
178 617 m 1,14,-1
 178 395 l 1,15,-1
 264 395 l 2,16,17
 322 395 322 395 354.5 424.5 c 128,-1,18
 387 454 387 454 387 507 c 0,19,20
 387 565 387 565 351.5 591 c 128,-1,21
 316 617 316 617 243 617 c 2,22,-1
 178 617 l 1,14,-1
374 101.5 m 128,-1,24
 413 130 413 130 413 196 c 0,25,26
 413 326 413 326 272 326 c 2,27,-1
 178 326 l 1,28,-1
 178 73 l 1,29,-1
 262 73 l 2,30,23
 335 73 335 73 374 101.5 c 128,-1,24
EndSplineSet
Validated: 1
Substitution2: "'c2sc' Versalien in Kapit+AOQA-lchen Nachschlagetabelle 26 Subtabelle" b.sc
Substitution2: "'aalt' Zugriff auf alle Alternativen Nachschlagetabelle 0 Subtabelle" b.sc
Position2: "'cpsp' Spationierung von Versalien Nachschlagetabelle 0 Subtabelle" dx=5 dy=0 dh=10 dv=0
EndChar

StartChar: uniA7B4
Encoding: 1678 42932 40
Width: 547
GlyphClass: 2
Flags: W
AnchorPoint: "Anker-18" 0 0 basechar 0
AnchorPoint: "Anker-17" 0 0 basechar 0
AnchorPoint: "Anker-16" 274 688 basechar 0
AnchorPoint: "Anker-15" 0 0 basechar 0
AnchorPoint: "Anker-14" 274 -202 basechar 0
LayerCount: 2
Fore
SplineSet
509 199 m 0,1,2
 509 101 509 101 447.5 50.5 c 128,-1,3
 386 0 386 0 289 0 c 0,4,5
 232 0 232 0 178 16 c 1,6,-1
 178 -202 l 1,7,-1
 85 -202 l 1,8,-1
 85 688 l 1,9,-1
 235 688 l 2,10,11
 353 688 353 688 417 644 c 128,-1,12
 481 600 481 600 481 515 c 0,13,14
 481 454 481 454 447.5 415.5 c 128,-1,15
 414 377 414 377 359 364 c 1,16,0
 509 338 509 338 509 199 c 0,1,2
377 104 m 128,-1,18
 413 135 413 135 413 202 c 0,19,20
 413 326 413 326 274 326 c 2,21,-1
 236 326 l 1,22,-1
 244 395 l 1,23,-1
 272 395 l 2,24,25
 325 395 325 395 356 424.5 c 128,-1,26
 387 454 387 454 387 507 c 0,27,28
 387 566 387 566 351.5 591.5 c 128,-1,29
 316 617 316 617 244 617 c 2,30,-1
 178 617 l 1,31,-1
 178 85 l 1,32,33
 226 73 226 73 281 73 c 0,34,17
 341 73 341 73 377 104 c 128,-1,18
EndSplineSet
Validated: 1
Substitution2: "'c2sc' Versalien in Kapit+AOQA-lchen Nachschlagetabelle 26 Subtabelle" uniA7B5.sc
Substitution2: "'aalt' Zugriff auf alle Alternativen Nachschlagetabelle 0 Subtabelle" uniA7B5.sc
Position2: "'cpsp' Spationierung von Versalien Nachschlagetabelle 0 Subtabelle" dx=5 dy=0 dh=10 dv=0
EndChar

StartChar: uni0181
Encoding: 321 385 41
Width: 630
GlyphClass: 2
Flags: W
AnchorPoint: "Anker-18" 0 0 basechar 0
AnchorPoint: "Anker-17" 0 0 basechar 0
AnchorPoint: "Anker-16" 351 688 basechar 0
AnchorPoint: "Anker-15" 0 0 basechar 0
AnchorPoint: "Anker-14" 364 0 basechar 0
LayerCount: 2
Fore
SplineSet
592 194 m 0,1,2
 592 96 592 96 526 48 c 128,-1,3
 460 0 460 0 344 0 c 2,4,-1
 168 0 l 1,5,-1
 168 616 l 1,6,-1
 143 616 l 2,7,8
 88 616 88 616 88 562 c 0,9,10
 88 544 88 544 93 527.5 c 128,-1,11
 98 511 98 511 107 489 c 1,12,-1
 47 460 l 1,13,14
 29 486 29 486 19.5 511 c 128,-1,15
 10 536 10 536 10 569 c 0,16,17
 10 623 10 623 45 655.5 c 128,-1,18
 80 688 80 688 147 688 c 2,19,-1
 317 688 l 2,20,21
 436 688 436 688 500 644 c 128,-1,22
 564 600 564 600 564 515 c 0,23,24
 564 454 564 454 530.5 415.5 c 128,-1,25
 497 377 497 377 442 364 c 1,26,0
 592 338 592 338 592 194 c 0,1,2
261 617 m 1,27,-1
 261 395 l 1,28,-1
 347 395 l 2,29,30
 405 395 405 395 437.5 424.5 c 128,-1,31
 470 454 470 454 470 507 c 0,32,33
 470 565 470 565 434.5 591 c 128,-1,34
 399 617 399 617 326 617 c 2,35,-1
 261 617 l 1,27,-1
457 101.5 m 128,-1,37
 496 130 496 130 496 196 c 0,38,39
 496 326 496 326 355 326 c 2,40,-1
 261 326 l 1,41,-1
 261 73 l 1,42,-1
 345 73 l 2,43,36
 418 73 418 73 457 101.5 c 128,-1,37
EndSplineSet
Validated: 1
Substitution2: "'ss02' Stilgruppe 2 Nachschlagetabelle 34 Subtabelle" uni0181.ss02
Substitution2: "'salt' Stilistische Alternativformen Nachschlagetabelle 32 Subtabelle" uni0181.ss02
Substitution2: "'c2sc' Versalien in Kapit+AOQA-lchen Nachschlagetabelle 26 Subtabelle" uni0253.sc
AlternateSubs2: "'aalt' Zugriff auf alle Alternativen Nachschlagetabelle 1 Subtabelle" uni0253.sc uni0181.ss02
Position2: "'cpsp' Spationierung von Versalien Nachschlagetabelle 0 Subtabelle" dx=5 dy=0 dh=10 dv=0
EndChar

StartChar: uni0243
Encoding: 515 579 43
Width: 556
GlyphClass: 2
Flags: W
AnchorPoint: "Anker-18" 0 0 basechar 0
AnchorPoint: "Anker-17" 0 0 basechar 0
AnchorPoint: "Anker-16" 277 688 basechar 0
AnchorPoint: "Anker-15" 0 0 basechar 0
AnchorPoint: "Anker-14" 290 0 basechar 0
LayerCount: 2
Fore
SplineSet
518 194 m 0,1,2
 518 96 518 96 452 48 c 128,-1,3
 386 0 386 0 270 0 c 2,4,-1
 94 0 l 1,5,-1
 94 173 l 1,6,-1
 20 173 l 1,7,-1
 20 234 l 1,8,-1
 94 234 l 1,9,-1
 94 688 l 1,10,-1
 243 688 l 2,11,12
 362 688 362 688 426 644 c 128,-1,13
 490 600 490 600 490 515 c 0,14,15
 490 454 490 454 456.5 415.5 c 128,-1,16
 423 377 423 377 368 364 c 1,17,0
 518 338 518 338 518 194 c 0,1,2
187 617 m 1,18,-1
 187 395 l 1,19,-1
 273 395 l 2,20,21
 331 395 331 395 363.5 424.5 c 128,-1,22
 396 454 396 454 396 507 c 0,23,24
 396 565 396 565 360.5 591 c 128,-1,25
 325 617 325 617 252 617 c 2,26,-1
 187 617 l 1,18,-1
383 101.5 m 128,-1,28
 422 130 422 130 422 196 c 0,29,30
 422 326 422 326 281 326 c 2,31,-1
 187 326 l 1,32,-1
 187 234 l 1,33,-1
 321 234 l 1,34,-1
 321 173 l 1,35,-1
 187 173 l 1,36,-1
 187 73 l 1,37,-1
 271 73 l 2,38,27
 344 73 344 73 383 101.5 c 128,-1,28
EndSplineSet
Validated: 1
Substitution2: "'c2sc' Versalien in Kapit+AOQA-lchen Nachschlagetabelle 26 Subtabelle" uni0180.sc
Substitution2: "'aalt' Zugriff auf alle Alternativen Nachschlagetabelle 0 Subtabelle" uni0180.sc
Position2: "'cpsp' Spationierung von Versalien Nachschlagetabelle 0 Subtabelle" dx=5 dy=0 dh=10 dv=0
EndChar

StartChar: C
Encoding: 36 67 45
Width: 508
GlyphClass: 2
Flags: W
AnchorPoint: "Anker-18" 314 347 basechar 0
AnchorPoint: "Anker-17" 0 0 basechar 0
AnchorPoint: "Anker-16" 316 688 basechar 0
AnchorPoint: "Anker-15" 0 0 basechar 0
AnchorPoint: "Anker-14" 312 0 basechar 0
LayerCount: 2
Fore
SplineSet
407 684.5 m 128,-1,1
 447 668 447 668 486 633 c 1,2,-1
 438 577 l 1,3,4
 409 602 409 602 380.5 614 c 128,-1,5
 352 626 352 626 318 626 c 0,6,7
 240 626 240 626 194 559.5 c 128,-1,8
 148 493 148 493 148 345 c 0,9,10
 148 201 148 201 194 132.5 c 128,-1,11
 240 64 240 64 318 64 c 0,12,13
 357 64 357 64 385 78 c 128,-1,14
 413 92 413 92 446 119 c 1,15,-1
 493 64 l 1,16,17
 418 -13 418 -13 313 -13 c 0,18,19
 236 -13 236 -13 176.5 27 c 128,-1,20
 117 67 117 67 83.5 147.5 c 128,-1,21
 50 228 50 228 50 345 c 0,22,23
 50 461 50 461 84.5 541 c 128,-1,24
 119 621 119 621 178.5 661 c 128,-1,25
 238 701 238 701 313 701 c 0,26,0
 367 701 367 701 407 684.5 c 128,-1,1
EndSplineSet
Validated: 1
Substitution2: "'c2sc' Versalien in Kapit+AOQA-lchen Nachschlagetabelle 26 Subtabelle" c.sc
Substitution2: "'aalt' Zugriff auf alle Alternativen Nachschlagetabelle 0 Subtabelle" c.sc
Position2: "'cpsp' Spationierung von Versalien Nachschlagetabelle 0 Subtabelle" dx=5 dy=0 dh=10 dv=0
EndChar

StartChar: Ccedilla
Encoding: 135 199 49
Width: 508
GlyphClass: 2
Flags: W
AnchorPoint: "Anker-18" 314 347 basechar 0
AnchorPoint: "Anker-17" 0 0 basechar 0
AnchorPoint: "Anker-16" 316 688 basechar 0
AnchorPoint: "Anker-15" 0 0 basechar 0
AnchorPoint: "Anker-14" 328 -239 basechar 0
LayerCount: 2
Fore
SplineSet
337 -12 m 1,1,-1
 337 -60 l 1,2,3
 381 -65 381 -65 402.5 -86.5 c 128,-1,4
 424 -108 424 -108 424 -143 c 0,5,6
 424 -188 424 -188 392.5 -213.5 c 128,-1,7
 361 -239 361 -239 312 -239 c 0,8,9
 262 -239 262 -239 228 -215 c 1,10,-1
 252 -169 l 1,11,12
 278 -182 278 -182 307 -182 c 0,13,14
 328 -182 328 -182 340.5 -172 c 128,-1,15
 353 -162 353 -162 353 -143 c 0,16,17
 353 -121 353 -121 333.5 -110.5 c 128,-1,18
 314 -100 314 -100 272 -100 c 1,19,-1
 281 -11 l 1,20,21
 176 1 176 1 113 92 c 128,-1,22
 50 183 50 183 50 345 c 0,23,24
 50 461 50 461 84.5 541 c 128,-1,25
 119 621 119 621 178.5 661 c 128,-1,26
 238 701 238 701 313 701 c 0,27,28
 367 701 367 701 407 684.5 c 128,-1,29
 447 668 447 668 486 633 c 1,30,-1
 438 577 l 1,31,32
 409 602 409 602 380.5 614 c 128,-1,33
 352 626 352 626 318 626 c 0,34,35
 240 626 240 626 194 559.5 c 128,-1,36
 148 493 148 493 148 345 c 0,37,38
 148 201 148 201 194 132.5 c 128,-1,39
 240 64 240 64 318 64 c 0,40,41
 357 64 357 64 385 78 c 128,-1,42
 413 92 413 92 446 119 c 1,43,-1
 493 64 l 1,44,0
 427 -4 427 -4 337 -12 c 1,1,-1
EndSplineSet
Validated: 1
Substitution2: "'c2sc' Versalien in Kapit+AOQA-lchen Nachschlagetabelle 26 Subtabelle" ccedilla.sc
Substitution2: "'aalt' Zugriff auf alle Alternativen Nachschlagetabelle 0 Subtabelle" ccedilla.sc
Position2: "'cpsp' Spationierung von Versalien Nachschlagetabelle 0 Subtabelle" dx=5 dy=0 dh=10 dv=0
EndChar

StartChar: uniA7B3
Encoding: 1677 42931 52
Width: 481
GlyphClass: 2
Flags: W
AnchorPoint: "Anker-18" 0 0 basechar 0
AnchorPoint: "Anker-17" 0 0 basechar 0
AnchorPoint: "Anker-16" 240 688 basechar 0
AnchorPoint: "Anker-15" 0 0 basechar 0
AnchorPoint: "Anker-14" 240 -202 basechar 0
LayerCount: 2
Fore
SplineSet
294 311 m 1,0,-1
 478 -129 l 1,1,-1
 375 -129 l 1,2,-1
 238 247 l 1,3,-1
 102 -129 l 1,4,-1
 4 -129 l 1,5,-1
 182 307 l 1,6,-1
 20 688 l 1,7,-1
 122 688 l 1,8,-1
 239 367 l 1,9,-1
 358 688 l 1,10,-1
 456 688 l 1,11,-1
 294 311 l 1,0,-1
EndSplineSet
Validated: 1
Substitution2: "'c2sc' Versalien in Kapit+AOQA-lchen Nachschlagetabelle 26 Subtabelle" uniAB53.sc
Substitution2: "'aalt' Zugriff auf alle Alternativen Nachschlagetabelle 0 Subtabelle" uniAB53.sc
Position2: "'cpsp' Spationierung von Versalien Nachschlagetabelle 0 Subtabelle" dx=5 dy=0 dh=10 dv=0
EndChar

StartChar: uni0187
Encoding: 327 391 53
Width: 508
GlyphClass: 2
Flags: W
AnchorPoint: "Anker-18" 0 0 basechar 0
AnchorPoint: "Anker-17" 0 0 basechar 0
AnchorPoint: "Anker-16" 249 695 basechar 0
AnchorPoint: "Anker-15" 0 0 basechar 0
AnchorPoint: "Anker-14" 255 0 basechar 0
LayerCount: 2
Fore
SplineSet
637 797 m 1,1,-1
 605 742 l 1,2,3
 587 752 587 752 573.5 757 c 128,-1,4
 560 762 560 762 541 762 c 0,5,6
 514 762 514 762 500 746 c 128,-1,7
 486 730 486 730 486 693 c 2,8,-1
 486 633 l 1,9,-1
 443 582 l 1,10,11
 410 605 410 605 381 615.5 c 128,-1,12
 352 626 352 626 318 626 c 0,13,14
 240 626 240 626 194 559.5 c 128,-1,15
 148 493 148 493 148 345 c 0,16,17
 148 201 148 201 194 132.5 c 128,-1,18
 240 64 240 64 318 64 c 0,19,20
 357 64 357 64 385 78 c 128,-1,21
 413 92 413 92 446 119 c 1,22,-1
 493 64 l 1,23,24
 460 30 460 30 415 8.5 c 128,-1,25
 370 -13 370 -13 313 -13 c 0,26,27
 236 -13 236 -13 176.5 27 c 128,-1,28
 117 67 117 67 83.5 147.5 c 128,-1,29
 50 228 50 228 50 345 c 0,30,31
 50 461 50 461 84.5 541 c 128,-1,32
 119 621 119 621 177.5 661 c 128,-1,33
 236 701 236 701 308 701 c 0,34,35
 361 701 361 701 402 678 c 1,36,-1
 402 693 l 2,37,38
 402 760 402 760 436.5 796.5 c 128,-1,39
 471 833 471 833 531 833 c 256,40,0
 591 833 591 833 637 797 c 1,1,-1
EndSplineSet
Validated: 1
Substitution2: "'c2sc' Versalien in Kapit+AOQA-lchen Nachschlagetabelle 26 Subtabelle" uni0188.sc
Substitution2: "'aalt' Zugriff auf alle Alternativen Nachschlagetabelle 0 Subtabelle" uni0188.sc
Position2: "'cpsp' Spationierung von Versalien Nachschlagetabelle 0 Subtabelle" dx=5 dy=0 dh=10 dv=0
EndChar

StartChar: uni023B
Encoding: 507 571 54
Width: 508
GlyphClass: 2
Flags: W
AnchorPoint: "Anker-18" 314 347 basechar 0
AnchorPoint: "Anker-17" 0 0 basechar 0
AnchorPoint: "Anker-16" 252 688 basechar 0
AnchorPoint: "Anker-15" 0 0 basechar 0
AnchorPoint: "Anker-14" 252 0 basechar 0
LayerCount: 2
Fore
SplineSet
493 64 m 1,0,1
 418 -13 418 -13 313 -13 c 0,2,3
 276 -13 276 -13 238 -2 c 1,4,-1
 222 -71 l 1,5,-1
 182 -62 l 1,6,-1
 200 13 l 1,7,8
 129 49 129 49 89.5 133 c 128,-1,9
 50 217 50 217 50 345 c 0,10,11
 50 461 50 461 84.5 541 c 128,-1,12
 119 621 119 621 178.5 661 c 128,-1,13
 238 701 238 701 313 701 c 0,14,15
 343 701 343 701 363 697 c 1,16,-1
 375 748 l 1,17,-1
 415 739 l 1,18,-1
 402 686 l 1,19,20
 442 671 442 671 486 633 c 1,21,-1
 438 577 l 1,22,23
 412 600 412 600 385 612 c 1,24,-1
 257 76 l 1,25,26
 286 64 286 64 318 64 c 0,27,28
 357 64 357 64 385 78 c 128,-1,29
 413 92 413 92 446 119 c 1,30,-1
 493 64 l 1,0,1
221 100 m 1,32,-1
 345 624 l 1,33,34
 329 626 329 626 318 626 c 0,35,36
 240 626 240 626 194 559.5 c 128,-1,37
 148 493 148 493 148 345 c 0,38,31
 148 168 148 168 221 100 c 1,32,-1
EndSplineSet
Validated: 1
Substitution2: "'c2sc' Versalien in Kapit+AOQA-lchen Nachschlagetabelle 26 Subtabelle" uni023C.sc
Substitution2: "'aalt' Zugriff auf alle Alternativen Nachschlagetabelle 0 Subtabelle" uni023C.sc
Position2: "'cpsp' Spationierung von Versalien Nachschlagetabelle 0 Subtabelle" dx=5 dy=0 dh=10 dv=0
EndChar

StartChar: D
Encoding: 37 68 55
Width: 581
GlyphClass: 2
Flags: W
AnchorPoint: "Anker-18" 292 345 basechar 0
AnchorPoint: "Anker-17" 0 0 basechar 0
AnchorPoint: "Anker-16" 270 688 basechar 0
AnchorPoint: "Anker-15" 0 0 basechar 0
AnchorPoint: "Anker-14" 274 0 basechar 0
LayerCount: 2
Fore
SplineSet
382 661 m 128,-1,1
 448 634 448 634 489.5 559 c 128,-1,2
 531 484 531 484 531 348 c 0,3,4
 531 154 531 154 448.5 77 c 128,-1,5
 366 0 366 0 240 0 c 2,6,-1
 85 0 l 1,7,-1
 85 688 l 1,8,-1
 227 688 l 2,9,0
 316 688 316 688 382 661 c 128,-1,1
178 615 m 1,10,-1
 178 72 l 1,11,-1
 246 72 l 2,12,13
 332 72 332 72 383 131.5 c 128,-1,14
 434 191 434 191 434 348 c 0,15,16
 434 458 434 458 407.5 517 c 128,-1,17
 381 576 381 576 339.5 595.5 c 128,-1,18
 298 615 298 615 241 615 c 2,19,-1
 178 615 l 1,10,-1
EndSplineSet
Validated: 1
Substitution2: "'c2sc' Versalien in Kapit+AOQA-lchen Nachschlagetabelle 26 Subtabelle" d.sc
Substitution2: "'aalt' Zugriff auf alle Alternativen Nachschlagetabelle 0 Subtabelle" d.sc
Position2: "'cpsp' Spationierung von Versalien Nachschlagetabelle 0 Subtabelle" dx=5 dy=0 dh=10 dv=0
EndChar

StartChar: Eth
Encoding: 144 208 59
Width: 593
GlyphClass: 2
Flags: W
AnchorPoint: "Anker-18" 303 345 basechar 0
AnchorPoint: "Anker-17" 0 0 basechar 0
AnchorPoint: "Anker-16" 281 688 basechar 0
AnchorPoint: "Anker-15" 0 0 basechar 0
AnchorPoint: "Anker-14" 285 0 basechar 0
LayerCount: 2
Fore
SplineSet
393 661 m 128,-1,1
 459 634 459 634 500.5 559 c 128,-1,2
 542 484 542 484 542 348 c 0,3,4
 542 154 542 154 459.5 77 c 128,-1,5
 377 0 377 0 251 0 c 2,6,-1
 96 0 l 1,7,-1
 96 320 l 1,8,-1
 20 320 l 1,9,-1
 20 386 l 1,10,-1
 96 386 l 1,11,-1
 96 688 l 1,12,-1
 238 688 l 2,13,0
 327 688 327 688 393 661 c 128,-1,1
394 131.5 m 128,-1,15
 445 191 445 191 445 348 c 0,16,17
 445 458 445 458 418.5 517 c 128,-1,18
 392 576 392 576 350.5 595.5 c 128,-1,19
 309 615 309 615 252 615 c 2,20,-1
 189 615 l 1,21,-1
 189 386 l 1,22,-1
 323 386 l 1,23,-1
 323 320 l 1,24,-1
 189 320 l 1,25,-1
 189 72 l 1,26,-1
 257 72 l 2,27,14
 343 72 343 72 394 131.5 c 128,-1,15
EndSplineSet
Validated: 1
Substitution2: "'c2sc' Versalien in Kapit+AOQA-lchen Nachschlagetabelle 26 Subtabelle" eth.sc
Substitution2: "'aalt' Zugriff auf alle Alternativen Nachschlagetabelle 0 Subtabelle" eth.sc
Position2: "'cpsp' Spationierung von Versalien Nachschlagetabelle 0 Subtabelle" dx=5 dy=0 dh=10 dv=0
EndChar

StartChar: uni018A
Encoding: 330 394 65
Width: 664
GlyphClass: 2
Flags: W
AnchorPoint: "Anker-18" 375 345 basechar 0
AnchorPoint: "Anker-17" 0 0 basechar 0
AnchorPoint: "Anker-16" 353 688 basechar 0
AnchorPoint: "Anker-15" 0 0 basechar 0
AnchorPoint: "Anker-14" 357 0 basechar 0
LayerCount: 2
Fore
SplineSet
465 661 m 128,-1,1
 531 634 531 634 572.5 559 c 128,-1,2
 614 484 614 484 614 348 c 0,3,4
 614 154 614 154 531.5 77 c 128,-1,5
 449 0 449 0 323 0 c 2,6,-1
 168 0 l 1,7,-1
 168 616 l 1,8,-1
 143 616 l 2,9,10
 88 616 88 616 88 562 c 0,11,12
 88 544 88 544 93 527.5 c 128,-1,13
 98 511 98 511 107 489 c 1,14,-1
 47 460 l 1,15,16
 29 486 29 486 19.5 511 c 128,-1,17
 10 536 10 536 10 569 c 0,18,19
 10 623 10 623 45 655.5 c 128,-1,20
 80 688 80 688 147 688 c 2,21,-1
 310 688 l 2,22,0
 399 688 399 688 465 661 c 128,-1,1
466 131.5 m 128,-1,24
 517 191 517 191 517 348 c 0,25,26
 517 458 517 458 490.5 517 c 128,-1,27
 464 576 464 576 422.5 595.5 c 128,-1,28
 381 615 381 615 324 615 c 2,29,-1
 261 615 l 1,30,-1
 261 72 l 1,31,-1
 329 72 l 2,32,23
 415 72 415 72 466 131.5 c 128,-1,24
EndSplineSet
Validated: 1
Substitution2: "'c2sc' Versalien in Kapit+AOQA-lchen Nachschlagetabelle 26 Subtabelle" uni0257.sc
Substitution2: "'aalt' Zugriff auf alle Alternativen Nachschlagetabelle 0 Subtabelle" uni0257.sc
Position2: "'cpsp' Spationierung von Versalien Nachschlagetabelle 0 Subtabelle" dx=5 dy=0 dh=10 dv=0
EndChar

StartChar: uni018B
Encoding: 331 395 67
Width: 525
GlyphClass: 2
Flags: W
AnchorPoint: "Anker-18" 0 0 basechar 0
AnchorPoint: "Anker-17" 0 0 basechar 0
AnchorPoint: "Anker-16" 262 688 basechar 0
AnchorPoint: "Anker-15" 0 0 basechar 0
AnchorPoint: "Anker-14" 262 0 basechar 0
LayerCount: 2
Fore
SplineSet
440 687 m 1,0,-1
 440 0 l 1,1,-1
 268 0 l 2,2,3
 156 0 156 0 93 52 c 128,-1,4
 30 104 30 104 30 212 c 0,5,6
 30 317 30 317 92.5 372.5 c 128,-1,7
 155 428 155 428 270 428 c 2,8,-1
 347 428 l 1,9,-1
 347 613 l 1,10,-1
 101 613 l 1,11,-1
 101 688 l 1,12,-1
 441 688 l 1,13,-1
 440 687 l 1,0,-1
347 73 m 1,14,-1
 347 357 l 1,15,-1
 274 357 l 2,16,17
 200 357 200 357 163.5 322 c 128,-1,18
 127 287 127 287 127 212 c 0,19,20
 127 135 127 135 163.5 104 c 128,-1,21
 200 73 200 73 272 73 c 2,22,-1
 347 73 l 1,14,-1
EndSplineSet
Validated: 1
Substitution2: "'c2sc' Versalien in Kapit+AOQA-lchen Nachschlagetabelle 26 Subtabelle" uni018C.sc
Substitution2: "'aalt' Zugriff auf alle Alternativen Nachschlagetabelle 0 Subtabelle" uni018C.sc
Position2: "'cpsp' Spationierung von Versalien Nachschlagetabelle 0 Subtabelle" dx=5 dy=0 dh=10 dv=0
EndChar

StartChar: E
Encoding: 38 69 70
Width: 469
GlyphClass: 2
Flags: W
AnchorPoint: "Anker-18" 0 0 basechar 0
AnchorPoint: "Anker-17" 0 0 basechar 0
AnchorPoint: "Anker-16" 258 688 basechar 0
AnchorPoint: "Anker-15" 408 0 basechar 0
AnchorPoint: "Anker-14" 257 0 basechar 0
LayerCount: 2
Fore
SplineSet
427 688 m 1,0,-1
 416 616 l 1,1,-1
 178 616 l 1,2,-1
 178 389 l 1,3,-1
 385 389 l 1,4,-1
 385 317 l 1,5,-1
 178 317 l 1,6,-1
 178 73 l 1,7,-1
 430 73 l 1,8,-1
 430 0 l 1,9,-1
 85 0 l 1,10,-1
 85 688 l 1,11,-1
 427 688 l 1,0,-1
EndSplineSet
Validated: 1
Substitution2: "'c2sc' Versalien in Kapit+AOQA-lchen Nachschlagetabelle 26 Subtabelle" e.sc
Substitution2: "'aalt' Zugriff auf alle Alternativen Nachschlagetabelle 0 Subtabelle" e.sc
Position2: "'cpsp' Spationierung von Versalien Nachschlagetabelle 0 Subtabelle" dx=5 dy=0 dh=10 dv=0
EndChar

StartChar: uni0228
Encoding: 488 552 74
Width: 469
GlyphClass: 2
Flags: W
AnchorPoint: "Anker-18" 0 0 basechar 0
AnchorPoint: "Anker-17" 0 0 basechar 0
AnchorPoint: "Anker-16" 258 688 basechar 0
AnchorPoint: "Anker-15" 408 0 basechar 0
AnchorPoint: "Anker-14" 257 0 basechar 0
LayerCount: 2
Fore
SplineSet
281 0 m 1,0,-1
 281 -60 l 1,1,2
 325 -65 325 -65 346.5 -86.5 c 128,-1,3
 368 -108 368 -108 368 -143 c 0,4,5
 368 -188 368 -188 336.5 -213.5 c 128,-1,6
 305 -239 305 -239 256 -239 c 0,7,8
 206 -239 206 -239 172 -215 c 1,9,-1
 196 -169 l 1,10,11
 222 -182 222 -182 251 -182 c 0,12,13
 272 -182 272 -182 284.5 -172 c 128,-1,14
 297 -162 297 -162 297 -143 c 0,15,16
 297 -121 297 -121 277.5 -110.5 c 128,-1,17
 258 -100 258 -100 216 -100 c 1,18,-1
 226 0 l 1,19,-1
 85 0 l 1,20,-1
 85 688 l 1,21,-1
 427 688 l 1,22,-1
 416 616 l 1,23,-1
 178 616 l 1,24,-1
 178 389 l 1,25,-1
 385 389 l 1,26,-1
 385 317 l 1,27,-1
 178 317 l 1,28,-1
 178 73 l 1,29,-1
 430 73 l 1,30,-1
 430 0 l 1,31,-1
 281 0 l 1,0,-1
EndSplineSet
Validated: 1
Substitution2: "'c2sc' Versalien in Kapit+AOQA-lchen Nachschlagetabelle 26 Subtabelle" uni0229.sc
Substitution2: "'aalt' Zugriff auf alle Alternativen Nachschlagetabelle 0 Subtabelle" uni0229.sc
Position2: "'cpsp' Spationierung von Versalien Nachschlagetabelle 0 Subtabelle" dx=5 dy=0 dh=10 dv=0
EndChar

StartChar: Eogonek
Encoding: 216 280 89
Width: 469
GlyphClass: 2
Flags: W
AnchorPoint: "Anker-18" 0 0 basechar 0
AnchorPoint: "Anker-17" 0 0 basechar 0
AnchorPoint: "Anker-16" 258 688 basechar 0
AnchorPoint: "Anker-15" 408 0 basechar 0
AnchorPoint: "Anker-14" 257 0 basechar 0
LayerCount: 2
Fore
SplineSet
430 73 m 1,0,-1
 430 0 l 1,1,-1
 399 0 l 1,2,3
 338 -29 338 -29 314 -55.5 c 128,-1,4
 290 -82 290 -82 290 -114 c 0,5,6
 290 -163 290 -163 343 -163 c 0,7,8
 366 -163 366 -163 396 -157 c 1,9,-1
 389 -221 l 1,10,11
 356 -228 356 -228 332 -228 c 0,12,13
 279 -228 279 -228 248.5 -201 c 128,-1,14
 218 -174 218 -174 218 -128 c 0,15,16
 218 -88 218 -88 241 -56.5 c 128,-1,17
 264 -25 264 -25 309 0 c 1,18,-1
 85 0 l 1,19,-1
 85 688 l 1,20,-1
 427 688 l 1,21,-1
 416 616 l 1,22,-1
 178 616 l 1,23,-1
 178 389 l 1,24,-1
 385 389 l 1,25,-1
 385 317 l 1,26,-1
 178 317 l 1,27,-1
 178 73 l 1,28,-1
 430 73 l 1,0,-1
EndSplineSet
Validated: 1
Substitution2: "'c2sc' Versalien in Kapit+AOQA-lchen Nachschlagetabelle 26 Subtabelle" eogonek.sc
Substitution2: "'aalt' Zugriff auf alle Alternativen Nachschlagetabelle 0 Subtabelle" eogonek.sc
Position2: "'cpsp' Spationierung von Versalien Nachschlagetabelle 0 Subtabelle" dx=5 dy=0 dh=10 dv=0
EndChar

StartChar: uni0190
Encoding: 336 400 90
Width: 475
GlyphClass: 2
Flags: W
AnchorPoint: "Anker-18" 0 0 basechar 0
AnchorPoint: "Anker-17" 0 0 basechar 0
AnchorPoint: "Anker-16" 238 688 basechar 0
AnchorPoint: "Anker-15" 0 0 basechar 0
AnchorPoint: "Anker-14" 238 0 basechar 0
LayerCount: 2
Fore
SplineSet
358 679.5 m 128,-1,1
 406 658 406 658 448 615 c 1,2,-1
 400 564 l 1,3,4
 332 627 332 627 262 627 c 0,5,6
 209 627 209 627 181 597 c 128,-1,7
 153 567 153 567 153 518 c 0,8,9
 153 464 153 464 185.5 433 c 128,-1,10
 218 402 218 402 273 402 c 2,11,-1
 331 402 l 1,12,-1
 320 328 l 1,13,-1
 272 329 l 2,14,15
 205 329 205 329 170.5 295.5 c 128,-1,16
 136 262 136 262 136 199 c 0,17,18
 136 134 136 134 171 98.5 c 128,-1,19
 206 63 206 63 268 63 c 0,20,21
 312 63 312 63 346.5 80 c 128,-1,22
 381 97 381 97 413 130 c 1,23,-1
 466 81 l 1,24,25
 386 -13 386 -13 263 -13 c 0,26,27
 198 -13 198 -13 147 12.5 c 128,-1,28
 96 38 96 38 67 85.5 c 128,-1,29
 38 133 38 133 38 197 c 0,30,31
 38 273 38 273 78.5 316.5 c 128,-1,32
 119 360 119 360 184 369 c 1,33,34
 124 383 124 383 90.5 422.5 c 128,-1,35
 57 462 57 462 57 525 c 0,36,37
 57 575 57 575 81 615 c 128,-1,38
 105 655 105 655 149 678 c 128,-1,39
 193 701 193 701 253 701 c 0,40,0
 310 701 310 701 358 679.5 c 128,-1,1
EndSplineSet
Validated: 1
Substitution2: "'c2sc' Versalien in Kapit+AOQA-lchen Nachschlagetabelle 26 Subtabelle" uni025B.sc
Substitution2: "'aalt' Zugriff auf alle Alternativen Nachschlagetabelle 0 Subtabelle" uni025B.sc
Position2: "'cpsp' Spationierung von Versalien Nachschlagetabelle 0 Subtabelle" dx=5 dy=0 dh=10 dv=0
EndChar

StartChar: uni018E
Encoding: 334 398 91
Width: 469
GlyphClass: 2
Flags: W
AnchorPoint: "Anker-18" 0 0 basechar 0
AnchorPoint: "Anker-17" 0 0 basechar 0
AnchorPoint: "Anker-16" 202 688 basechar 0
AnchorPoint: "Anker-15" 0 0 basechar 0
AnchorPoint: "Anker-14" 200 0 basechar 0
LayerCount: 2
Fore
SplineSet
45 688 m 1,0,-1
 385 688 l 1,1,-1
 385 0 l 1,2,-1
 39 0 l 1,3,-1
 39 73 l 1,4,-1
 292 73 l 1,5,-1
 292 317 l 1,6,-1
 84 317 l 1,7,-1
 84 389 l 1,8,-1
 292 389 l 1,9,-1
 292 616 l 1,10,-1
 45 616 l 1,11,-1
 45 688 l 1,0,-1
EndSplineSet
Validated: 1
Substitution2: "'c2sc' Versalien in Kapit+AOQA-lchen Nachschlagetabelle 26 Subtabelle" uni0258.sc
Substitution2: "'aalt' Zugriff auf alle Alternativen Nachschlagetabelle 0 Subtabelle" uni0258.sc
Position2: "'cpsp' Spationierung von Versalien Nachschlagetabelle 0 Subtabelle" dx=5 dy=0 dh=10 dv=0
EndChar

StartChar: uni0246
Encoding: 518 582 93
Width: 469
GlyphClass: 2
Flags: W
AnchorPoint: "Anker-18" 0 0 basechar 0
AnchorPoint: "Anker-17" 0 0 basechar 0
AnchorPoint: "Anker-16" 239 688 basechar 0
AnchorPoint: "Anker-15" 408 0 basechar 0
AnchorPoint: "Anker-14" 239 0 basechar 0
LayerCount: 2
Fore
SplineSet
430 73 m 1,0,-1
 430 0 l 1,1,-1
 218 0 l 1,2,-1
 201 -71 l 1,3,-1
 161 -62 l 1,4,-1
 176 0 l 1,5,-1
 85 0 l 1,6,-1
 85 688 l 1,7,-1
 337 688 l 1,8,-1
 351 748 l 1,9,-1
 390 740 l 1,10,-1
 378 688 l 1,11,-1
 427 688 l 1,12,-1
 416 616 l 1,13,-1
 361 616 l 1,14,-1
 308 389 l 1,15,-1
 385 389 l 1,16,-1
 385 317 l 1,17,-1
 291 317 l 1,18,-1
 235 73 l 1,19,-1
 430 73 l 1,0,-1
178 616 m 1,20,-1
 178 389 l 1,21,-1
 267 389 l 1,22,-1
 320 616 l 1,23,-1
 178 616 l 1,20,-1
178 73 m 1,24,-1
 193 73 l 1,25,-1
 250 317 l 1,26,-1
 178 317 l 1,27,-1
 178 73 l 1,24,-1
EndSplineSet
Validated: 1
Substitution2: "'c2sc' Versalien in Kapit+AOQA-lchen Nachschlagetabelle 26 Subtabelle" uni0247.sc
Substitution2: "'aalt' Zugriff auf alle Alternativen Nachschlagetabelle 0 Subtabelle" uni0247.sc
Position2: "'cpsp' Spationierung von Versalien Nachschlagetabelle 0 Subtabelle" dx=5 dy=0 dh=10 dv=0
EndChar

StartChar: uni01B7
Encoding: 375 439 95
Width: 461
GlyphClass: 2
Flags: W
AnchorPoint: "Anker-18" 0 0 basechar 0
AnchorPoint: "Anker-17" 0 0 basechar 0
AnchorPoint: "Anker-16" 219 688 basechar 0
AnchorPoint: "Anker-15" 0 0 basechar 0
AnchorPoint: "Anker-14" 231 0 basechar 0
LayerCount: 2
Fore
SplineSet
374 343.5 m 128,-1,1
 428 294 428 294 428 196 c 0,2,3
 428 135 428 135 401.5 87.5 c 128,-1,4
 375 40 375 40 325 13.5 c 128,-1,5
 275 -13 275 -13 207 -13 c 0,6,7
 140 -13 140 -13 92 9.5 c 128,-1,8
 44 32 44 32 8 78 c 1,9,-1
 62 125 l 1,10,11
 93 92 93 92 125 77 c 128,-1,12
 157 62 157 62 201 62 c 0,13,14
 265 62 265 62 298.5 98 c 128,-1,15
 332 134 332 134 332 198 c 0,16,17
 332 268 332 268 297.5 298.5 c 128,-1,18
 263 329 263 329 193 329 c 2,19,-1
 114 329 l 1,20,-1
 114 392 l 1,21,-1
 303 614 l 1,22,-1
 36 614 l 1,23,-1
 36 688 l 1,24,-1
 403 688 l 1,25,-1
 403 616 l 1,26,-1
 211 393 l 1,27,-1
 213 393 l 2,28,0
 320 393 320 393 374 343.5 c 128,-1,1
EndSplineSet
Validated: 1
Substitution2: "'c2sc' Versalien in Kapit+AOQA-lchen Nachschlagetabelle 26 Subtabelle" uni0292.sc
Substitution2: "'aalt' Zugriff auf alle Alternativen Nachschlagetabelle 0 Subtabelle" uni0292.sc
Position2: "'cpsp' Spationierung von Versalien Nachschlagetabelle 0 Subtabelle" dx=5 dy=0 dh=10 dv=0
EndChar

StartChar: uni01B8
Encoding: 376 440 97
Width: 461
GlyphClass: 2
Flags: W
AnchorPoint: "Anker-18" 0 0 basechar 0
AnchorPoint: "Anker-17" 0 0 basechar 0
AnchorPoint: "Anker-16" 230 688 basechar 0
AnchorPoint: "Anker-15" 0 0 basechar 0
AnchorPoint: "Anker-14" 230 0 basechar 0
LayerCount: 2
Fore
SplineSet
453 78 m 1,0,1
 415 32 415 32 366.5 9.5 c 128,-1,2
 318 -13 318 -13 250 -13 c 0,3,4
 150 -13 150 -13 91.5 43 c 128,-1,5
 33 99 33 99 33 191 c 0,6,7
 33 289 33 289 88.5 341 c 128,-1,8
 144 393 144 393 250 393 c 2,9,-1
 251 393 l 1,10,-1
 59 616 l 1,11,-1
 59 688 l 1,12,-1
 425 688 l 1,13,-1
 425 614 l 1,14,-1
 159 614 l 1,15,-1
 348 392 l 1,16,-1
 348 329 l 1,17,-1
 268 329 l 2,18,19
 198 329 198 329 163.5 296.5 c 128,-1,20
 129 264 129 264 129 193 c 0,21,22
 129 130 129 130 161.5 96 c 128,-1,23
 194 62 194 62 254 62 c 0,24,25
 300 62 300 62 333.5 76.5 c 128,-1,26
 367 91 367 91 400 125 c 1,27,-1
 453 78 l 1,0,1
EndSplineSet
Validated: 1
Substitution2: "'c2sc' Versalien in Kapit+AOQA-lchen Nachschlagetabelle 26 Subtabelle" uni01B9.sc
Substitution2: "'aalt' Zugriff auf alle Alternativen Nachschlagetabelle 0 Subtabelle" uni01B9.sc
Position2: "'cpsp' Spationierung von Versalien Nachschlagetabelle 0 Subtabelle" dx=5 dy=0 dh=10 dv=0
EndChar

StartChar: F
Encoding: 39 70 98
Width: 438
GlyphClass: 2
Flags: W
AnchorPoint: "Anker-18" 0 0 basechar 0
AnchorPoint: "Anker-17" 0 0 basechar 0
AnchorPoint: "Anker-16" 261 688 basechar 0
AnchorPoint: "Anker-15" 0 0 basechar 0
AnchorPoint: "Anker-14" 132 0 basechar 0
LayerCount: 2
Fore
SplineSet
85 0 m 1,0,-1
 85 688 l 1,1,-1
 419 688 l 1,2,-1
 409 616 l 1,3,-1
 178 616 l 1,4,-1
 178 376 l 1,5,-1
 378 376 l 1,6,-1
 378 304 l 1,7,-1
 178 304 l 1,8,-1
 178 0 l 1,9,-1
 85 0 l 1,0,-1
EndSplineSet
Validated: 1
Substitution2: "'c2sc' Versalien in Kapit+AOQA-lchen Nachschlagetabelle 26 Subtabelle" f.sc
Substitution2: "'aalt' Zugriff auf alle Alternativen Nachschlagetabelle 0 Subtabelle" f.sc
Position2: "'cpsp' Spationierung von Versalien Nachschlagetabelle 0 Subtabelle" dx=5 dy=0 dh=10 dv=0
EndChar

StartChar: uni0191
Encoding: 337 401 100
Width: 438
GlyphClass: 2
Flags: W
AnchorPoint: "Anker-18" 0 0 basechar 0
AnchorPoint: "Anker-17" 0 0 basechar 0
AnchorPoint: "Anker-16" 261 688 basechar 0
AnchorPoint: "Anker-15" 0 0 basechar 0
AnchorPoint: "Anker-14" 132 0 basechar 0
LayerCount: 2
Fore
SplineSet
178 616 m 1,0,-1
 178 376 l 1,1,-1
 378 376 l 1,2,-1
 378 304 l 1,3,-1
 178 304 l 1,4,-1
 178 -68 l 2,5,6
 178 -138 178 -138 139.5 -174.5 c 128,-1,7
 101 -211 101 -211 38 -211 c 0,8,9
 -23 -211 -23 -211 -70 -174 c 1,10,-1
 -34 -119 l 1,11,12
 -18 -129 -18 -129 -3.5 -133.5 c 128,-1,13
 11 -138 11 -138 31 -138 c 0,14,15
 85 -138 85 -138 85 -71 c 2,16,-1
 85 688 l 1,17,-1
 419 688 l 1,18,-1
 409 616 l 1,19,-1
 178 616 l 1,0,-1
EndSplineSet
Validated: 1
Substitution2: "'c2sc' Versalien in Kapit+AOQA-lchen Nachschlagetabelle 26 Subtabelle" uni0191.sc
Substitution2: "'aalt' Zugriff auf alle Alternativen Nachschlagetabelle 0 Subtabelle" uni0191.sc
Position2: "'cpsp' Spationierung von Versalien Nachschlagetabelle 0 Subtabelle" dx=5 dy=0 dh=10 dv=0
EndChar

StartChar: G
Encoding: 40 71 101
Width: 573
GlyphClass: 2
Flags: W
AnchorPoint: "Anker-18" 0 0 basechar 0
AnchorPoint: "Anker-17" 0 0 basechar 0
AnchorPoint: "Anker-16" 320 688 basechar 0
AnchorPoint: "Anker-15" 0 0 basechar 0
AnchorPoint: "Anker-14" 312 0 basechar 0
LayerCount: 2
Fore
SplineSet
425.5 682.5 m 128,-1,1
 469 664 469 664 511 626 c 1,2,-1
 461 574 l 1,3,4
 427 602 427 602 396 614.5 c 128,-1,5
 365 627 365 627 326 627 c 0,6,7
 248 627 248 627 198 560.5 c 128,-1,8
 148 494 148 494 148 345 c 0,9,10
 148 193 148 193 190 127.5 c 128,-1,11
 232 62 232 62 316 62 c 0,12,13
 378 62 378 62 428 92 c 1,14,-1
 428 307 l 1,15,-1
 323 307 l 1,16,-1
 313 380 l 1,17,-1
 518 380 l 1,18,-1
 518 49 l 1,19,20
 423 -13 423 -13 316 -13 c 0,21,22
 188 -13 188 -13 119 76.5 c 128,-1,23
 50 166 50 166 50 346 c 0,24,25
 50 462 50 462 87 542 c 128,-1,26
 124 622 124 622 186.5 661.5 c 128,-1,27
 249 701 249 701 324 701 c 0,28,0
 382 701 382 701 425.5 682.5 c 128,-1,1
EndSplineSet
Validated: 1
Substitution2: "'c2sc' Versalien in Kapit+AOQA-lchen Nachschlagetabelle 26 Subtabelle" g.sc
Substitution2: "'aalt' Zugriff auf alle Alternativen Nachschlagetabelle 0 Subtabelle" g.sc
Position2: "'cpsp' Spationierung von Versalien Nachschlagetabelle 0 Subtabelle" dx=5 dy=0 dh=10 dv=0
EndChar

StartChar: uni0194
Encoding: 340 404 103
Width: 508
GlyphClass: 2
Flags: W
AnchorPoint: "Anker-18" 0 0 basechar 0
AnchorPoint: "Anker-17" 0 0 basechar 0
AnchorPoint: "Anker-16" 254 688 basechar 0
AnchorPoint: "Anker-15" 0 0 basechar 0
AnchorPoint: "Anker-14" 254 -201 basechar 0
LayerCount: 2
Fore
SplineSet
307 69 m 1,0,1
 338 3 338 3 350.5 -34.5 c 128,-1,2
 363 -72 363 -72 363 -111 c 0,3,4
 363 -158 363 -158 335.5 -184.5 c 128,-1,5
 308 -211 308 -211 255 -211 c 256,6,7
 202 -211 202 -211 175 -185 c 128,-1,8
 148 -159 148 -159 148 -112 c 0,9,10
 148 -77 148 -77 160.5 -38.5 c 128,-1,11
 173 0 173 0 204 69 c 1,12,-1
 7 688 l 1,13,-1
 103 688 l 1,14,-1
 256 133 l 1,15,-1
 409 688 l 1,16,-1
 501 688 l 1,17,-1
 307 69 l 1,0,1
278.5 -56 m 128,-1,19
 271 -29 271 -29 255 12 c 1,20,21
 239 -29 239 -29 231.5 -56 c 128,-1,22
 224 -83 224 -83 224 -106 c 0,23,24
 224 -143 224 -143 255 -143 c 256,25,26
 286 -143 286 -143 286 -106 c 0,27,18
 286 -83 286 -83 278.5 -56 c 128,-1,19
EndSplineSet
Validated: 1
Substitution2: "'c2sc' Versalien in Kapit+AOQA-lchen Nachschlagetabelle 26 Subtabelle" uni0194.sc
Substitution2: "'aalt' Zugriff auf alle Alternativen Nachschlagetabelle 0 Subtabelle" uni0194.sc
Position2: "'cpsp' Spationierung von Versalien Nachschlagetabelle 0 Subtabelle" dx=5 dy=0 dh=10 dv=0
EndChar

StartChar: uni0193
Encoding: 339 403 109
Width: 533
GlyphClass: 2
Flags: W
AnchorPoint: "Anker-18" 0 0 basechar 0
AnchorPoint: "Anker-17" 0 0 basechar 0
AnchorPoint: "Anker-16" 264 695 basechar 0
AnchorPoint: "Anker-15" 0 0 basechar 0
AnchorPoint: "Anker-14" 268 0 basechar 0
LayerCount: 2
Fore
SplineSet
662 797 m 1,1,-1
 630 742 l 1,2,3
 612 752 612 752 598.5 757 c 128,-1,4
 585 762 585 762 566 762 c 0,5,6
 539 762 539 762 525 746 c 128,-1,7
 511 730 511 730 511 693 c 2,8,-1
 511 626 l 1,9,-1
 466 579 l 1,10,11
 430 604 430 604 397.5 615.5 c 128,-1,12
 365 627 365 627 326 627 c 0,13,14
 248 627 248 627 198 560.5 c 128,-1,15
 148 494 148 494 148 345 c 0,16,17
 148 193 148 193 190 127.5 c 128,-1,18
 232 62 232 62 316 62 c 0,19,20
 378 62 378 62 428 92 c 1,21,-1
 428 307 l 1,22,-1
 323 307 l 1,23,-1
 313 380 l 1,24,-1
 518 380 l 1,25,-1
 518 49 l 1,26,27
 423 -13 423 -13 315 -13 c 0,28,29
 188 -13 188 -13 119 76.5 c 128,-1,30
 50 166 50 166 50 346 c 0,31,32
 50 461 50 461 87 541.5 c 128,-1,33
 124 622 124 622 185 661.5 c 128,-1,34
 246 701 246 701 318 701 c 0,35,36
 380 701 380 701 427 675 c 1,37,-1
 427 693 l 2,38,39
 427 760 427 760 461.5 796.5 c 128,-1,40
 496 833 496 833 556 833 c 256,41,0
 616 833 616 833 662 797 c 1,1,-1
EndSplineSet
Validated: 1
Substitution2: "'c2sc' Versalien in Kapit+AOQA-lchen Nachschlagetabelle 26 Subtabelle" uni0260.sc
Substitution2: "'aalt' Zugriff auf alle Alternativen Nachschlagetabelle 0 Subtabelle" uni0260.sc
Position2: "'cpsp' Spationierung von Versalien Nachschlagetabelle 0 Subtabelle" dx=5 dy=0 dh=10 dv=0
EndChar

StartChar: uni0241
Encoding: 513 577 110
Width: 428
GlyphClass: 2
Flags: W
AnchorPoint: "Anker-18" 0 0 basechar 0
AnchorPoint: "Anker-17" 0 0 basechar 0
AnchorPoint: "Anker-16" 215 688 basechar 0
AnchorPoint: "Anker-15" 0 0 basechar 0
AnchorPoint: "Anker-14" 183 0 basechar 0
LayerCount: 2
Fore
SplineSet
136 315 m 1,0,-1
 195 333 l 2,1,2
 254 351 254 351 282.5 385.5 c 128,-1,3
 311 420 311 420 311 488 c 0,4,5
 311 551 311 551 280.5 589 c 128,-1,6
 250 627 250 627 196 627 c 0,7,8
 158 627 158 627 124.5 611.5 c 128,-1,9
 91 596 91 596 56 565 c 1,10,-1
 8 615 l 1,11,12
 52 658 52 658 99 679.5 c 128,-1,13
 146 701 146 701 203 701 c 0,14,15
 265 701 265 701 311.5 674.5 c 128,-1,16
 358 648 358 648 383 600 c 128,-1,17
 408 552 408 552 408 491 c 0,18,19
 408 398 408 398 368 353 c 128,-1,20
 328 308 328 308 256 285 c 2,21,-1
 229 276 l 1,22,-1
 229 0 l 1,23,-1
 136 0 l 1,24,-1
 136 315 l 1,0,-1
EndSplineSet
Validated: 1
Substitution2: "'c2sc' Versalien in Kapit+AOQA-lchen Nachschlagetabelle 26 Subtabelle" uni0294.sc
Substitution2: "'aalt' Zugriff auf alle Alternativen Nachschlagetabelle 0 Subtabelle" uni0294.sc
Position2: "'cpsp' Spationierung von Versalien Nachschlagetabelle 0 Subtabelle" dx=5 dy=0 dh=10 dv=0
EndChar

StartChar: uni01E4
Encoding: 420 484 111
Width: 584
GlyphClass: 2
Flags: W
AnchorPoint: "Anker-18" 0 0 basechar 0
AnchorPoint: "Anker-17" 0 0 basechar 0
AnchorPoint: "Anker-16" 300 688 basechar 0
AnchorPoint: "Anker-15" 0 0 basechar 0
AnchorPoint: "Anker-14" 300 0 basechar 0
LayerCount: 2
Fore
SplineSet
582 181 m 1,0,-1
 518 181 l 1,1,-1
 518 49 l 1,2,3
 423 -13 423 -13 314 -13 c 0,4,5
 188 -13 188 -13 119 78 c 128,-1,6
 50 169 50 169 50 346 c 0,7,8
 50 459 50 459 87.5 539.5 c 128,-1,9
 125 620 125 620 187 660.5 c 128,-1,10
 249 701 249 701 323 701 c 0,11,12
 382 701 382 701 426 682.5 c 128,-1,13
 470 664 470 664 511 626 c 1,14,-1
 460 572 l 1,15,16
 427 601 427 601 396.5 614 c 128,-1,17
 366 627 366 627 327 627 c 0,18,19
 250 627 250 627 199 558 c 128,-1,20
 148 489 148 489 148 345 c 0,21,22
 148 197 148 197 190.5 129.5 c 128,-1,23
 233 62 233 62 316 62 c 0,24,25
 379 62 379 62 431 93 c 1,26,-1
 431 181 l 1,27,-1
 323 181 l 1,28,-1
 323 248 l 1,29,-1
 431 248 l 1,30,-1
 431 313 l 1,31,-1
 322 313 l 1,32,-1
 313 383 l 1,33,-1
 518 383 l 1,34,-1
 518 248 l 1,35,-1
 582 248 l 1,36,-1
 582 181 l 1,0,-1
EndSplineSet
Validated: 1
Substitution2: "'c2sc' Versalien in Kapit+AOQA-lchen Nachschlagetabelle 26 Subtabelle" uni01E5.sc
Substitution2: "'aalt' Zugriff auf alle Alternativen Nachschlagetabelle 0 Subtabelle" uni01E5.sc
Position2: "'cpsp' Spationierung von Versalien Nachschlagetabelle 0 Subtabelle" dx=5 dy=0 dh=10 dv=0
EndChar

StartChar: uni021C
Encoding: 476 540 112
Width: 457
GlyphClass: 2
Flags: W
AnchorPoint: "Anker-18" 0 0 basechar 0
AnchorPoint: "Anker-17" 0 0 basechar 0
AnchorPoint: "Anker-16" 229 688 basechar 0
AnchorPoint: "Anker-15" 0 0 basechar 0
AnchorPoint: "Anker-14" 229 -202 basechar 0
LayerCount: 2
Fore
SplineSet
348.5 650.5 m 128,-1,1
 400 600 400 600 400 520 c 0,2,3
 400 389 400 389 269 359 c 1,4,5
 339 351 339 351 379.5 311.5 c 128,-1,6
 420 272 420 272 420 198 c 0,7,8
 420 -24 420 -24 61 -99 c 1,9,-1
 53 -24 l 1,10,11
 155 2 155 2 214 34 c 128,-1,12
 273 66 273 66 297.5 106 c 128,-1,13
 322 146 322 146 322 199 c 0,14,15
 322 319 322 319 184 319 c 2,16,-1
 126 318 l 1,17,-1
 137 392 l 1,18,-1
 185 392 l 2,19,20
 240 392 240 392 272 423.5 c 128,-1,21
 304 455 304 455 304 512 c 0,22,23
 304 565 304 565 277.5 596 c 128,-1,24
 251 627 251 627 198 627 c 0,25,26
 161 627 161 627 126.5 611 c 128,-1,27
 92 595 92 595 56 564 c 1,28,-1
 10 615 l 1,29,30
 96 701 96 701 207 701 c 0,31,0
 297 701 297 701 348.5 650.5 c 128,-1,1
EndSplineSet
Validated: 1
Substitution2: "'c2sc' Versalien in Kapit+AOQA-lchen Nachschlagetabelle 26 Subtabelle" uni021D.sc
Substitution2: "'aalt' Zugriff auf alle Alternativen Nachschlagetabelle 0 Subtabelle" uni021D.sc
Position2: "'cpsp' Spationierung von Versalien Nachschlagetabelle 0 Subtabelle" dx=5 dy=0 dh=10 dv=0
EndChar

StartChar: H
Encoding: 41 72 113
Width: 606
GlyphClass: 2
Flags: W
AnchorPoint: "Anker-18" 303 345 basechar 0
AnchorPoint: "Anker-17" 0 0 basechar 0
AnchorPoint: "Anker-16" 303 688 basechar 0
AnchorPoint: "Anker-15" 0 0 basechar 0
AnchorPoint: "Anker-14" 303 0 basechar 0
LayerCount: 2
Fore
SplineSet
428 0 m 1,0,-1
 428 323 l 1,1,-1
 178 323 l 1,2,-1
 178 0 l 1,3,-1
 85 0 l 1,4,-1
 85 688 l 1,5,-1
 178 688 l 1,6,-1
 178 399 l 1,7,-1
 428 399 l 1,8,-1
 428 688 l 1,9,-1
 521 688 l 1,10,-1
 521 0 l 1,11,-1
 428 0 l 1,0,-1
EndSplineSet
Validated: 1
Substitution2: "'c2sc' Versalien in Kapit+AOQA-lchen Nachschlagetabelle 26 Subtabelle" h.sc
Substitution2: "'aalt' Zugriff auf alle Alternativen Nachschlagetabelle 0 Subtabelle" h.sc
Position2: "'cpsp' Spationierung von Versalien Nachschlagetabelle 0 Subtabelle" dx=5 dy=0 dh=10 dv=0
EndChar

StartChar: Hbar
Encoding: 230 294 114
Width: 612
GlyphClass: 2
Flags: W
AnchorPoint: "Anker-18" 307 345 basechar 0
AnchorPoint: "Anker-17" 0 0 basechar 0
AnchorPoint: "Anker-16" 307 688 basechar 0
AnchorPoint: "Anker-15" 0 0 basechar 0
AnchorPoint: "Anker-14" 307 0 basechar 0
LayerCount: 2
Fore
SplineSet
581 571 m 1,0,-1
 581 509 l 1,1,-1
 525 509 l 1,2,-1
 525 0 l 1,3,-1
 432 0 l 1,4,-1
 432 323 l 1,5,-1
 182 323 l 1,6,-1
 182 0 l 1,7,-1
 89 0 l 1,8,-1
 89 509 l 1,9,-1
 31 509 l 1,10,-1
 31 571 l 1,11,-1
 89 571 l 1,12,-1
 89 688 l 1,13,-1
 182 688 l 1,14,-1
 182 571 l 1,15,-1
 432 571 l 1,16,-1
 432 688 l 1,17,-1
 525 688 l 1,18,-1
 525 571 l 1,19,-1
 581 571 l 1,0,-1
432 399 m 1,20,-1
 432 509 l 1,21,-1
 182 509 l 1,22,-1
 182 399 l 1,23,-1
 432 399 l 1,20,-1
EndSplineSet
Validated: 1
Substitution2: "'c2sc' Versalien in Kapit+AOQA-lchen Nachschlagetabelle 26 Subtabelle" hbar.sc
Substitution2: "'aalt' Zugriff auf alle Alternativen Nachschlagetabelle 0 Subtabelle" hbar.sc
Position2: "'cpsp' Spationierung von Versalien Nachschlagetabelle 0 Subtabelle" dx=5 dy=0 dh=10 dv=0
EndChar

StartChar: uniA7AA
Encoding: 1673 42922 118
Width: 689
GlyphClass: 2
Flags: W
AnchorPoint: "Anker-18" 386 345 basechar 0
AnchorPoint: "Anker-17" 0 0 basechar 0
AnchorPoint: "Anker-16" 386 688 basechar 0
AnchorPoint: "Anker-15" 0 0 basechar 0
AnchorPoint: "Anker-14" 386 0 basechar 0
LayerCount: 2
Fore
SplineSet
604 688 m 1,0,-1
 604 0 l 1,1,-1
 511 0 l 1,2,-1
 511 323 l 1,3,-1
 261 323 l 1,4,-1
 261 0 l 1,5,-1
 168 0 l 1,6,-1
 168 616 l 1,7,-1
 143 616 l 2,8,9
 88 616 88 616 88 562 c 0,10,11
 88 544 88 544 93 527.5 c 128,-1,12
 98 511 98 511 107 489 c 1,13,-1
 47 460 l 1,14,15
 29 486 29 486 19.5 511 c 128,-1,16
 10 536 10 536 10 569 c 0,17,18
 10 623 10 623 45 655.5 c 128,-1,19
 80 688 80 688 147 688 c 2,20,-1
 261 688 l 1,21,-1
 261 399 l 1,22,-1
 511 399 l 1,23,-1
 511 688 l 1,24,-1
 604 688 l 1,0,-1
EndSplineSet
Validated: 1
Substitution2: "'c2sc' Versalien in Kapit+AOQA-lchen Nachschlagetabelle 26 Subtabelle" uniA7AA.sc
Substitution2: "'aalt' Zugriff auf alle Alternativen Nachschlagetabelle 0 Subtabelle" uniA7AA.sc
Position2: "'cpsp' Spationierung von Versalien Nachschlagetabelle 0 Subtabelle" dx=5 dy=0 dh=10 dv=0
EndChar

StartChar: uniA78D.ss02
Encoding: 1689 -1 120
Width: 536
GlyphClass: 2
Flags: W
AnchorPoint: "Anker-18" 0 0 basechar 0
AnchorPoint: "Anker-17" 0 0 basechar 0
AnchorPoint: "Anker-16" 268 688 basechar 0
AnchorPoint: "Anker-15" 0 0 basechar 0
AnchorPoint: "Anker-14" 268 0 basechar 0
LayerCount: 2
Fore
SplineSet
358 0 m 1,0,-1
 358 263 l 1,1,-1
 40 263 l 1,2,-1
 40 688 l 1,3,-1
 133 688 l 1,4,-1
 133 339 l 1,5,-1
 358 339 l 1,6,-1
 358 688 l 1,7,-1
 451 688 l 1,8,-1
 451 0 l 1,9,-1
 358 0 l 1,0,-1
EndSplineSet
Validated: 1
Position2: "'cpsp' Spationierung von Versalien Nachschlagetabelle 0 Subtabelle" dx=5 dy=0 dh=10 dv=0
EndChar

StartChar: uni01F6
Encoding: 438 502 121
Width: 868
GlyphClass: 2
Flags: W
AnchorPoint: "Anker-18" 0 0 basechar 0
AnchorPoint: "Anker-17" 0 0 basechar 0
AnchorPoint: "Anker-16" 433 688 basechar 0
AnchorPoint: "Anker-15" 0 0 basechar 0
AnchorPoint: "Anker-14" 433 0 basechar 0
LayerCount: 2
Fore
SplineSet
807 260 m 0,1,2
 807 165 807 165 778 104 c 128,-1,3
 749 43 749 43 702 15 c 128,-1,4
 655 -13 655 -13 598 -13 c 0,5,6
 524 -13 524 -13 476 31 c 128,-1,7
 428 75 428 75 428 154 c 2,8,-1
 428 323 l 1,9,-1
 178 323 l 1,10,-1
 178 0 l 1,11,-1
 85 0 l 1,12,-1
 85 688 l 1,13,-1
 178 688 l 1,14,-1
 178 399 l 1,15,-1
 428 399 l 1,16,-1
 428 688 l 1,17,-1
 521 688 l 1,18,-1
 521 157 l 2,19,20
 521 108 521 108 542.5 83.5 c 128,-1,21
 564 59 564 59 602 59 c 0,22,23
 651 59 651 59 684 105 c 128,-1,24
 717 151 717 151 717 263 c 0,25,26
 717 380 717 380 693 526 c 1,27,-1
 782 526 l 1,28,0
 807 378 807 378 807 260 c 0,1,2
EndSplineSet
Validated: 1
Substitution2: "'c2sc' Versalien in Kapit+AOQA-lchen Nachschlagetabelle 26 Subtabelle" uni01F6.sc
Substitution2: "'aalt' Zugriff auf alle Alternativen Nachschlagetabelle 0 Subtabelle" uni01F6.sc
Position2: "'cpsp' Spationierung von Versalien Nachschlagetabelle 0 Subtabelle" dx=5 dy=0 dh=10 dv=0
EndChar

StartChar: I
Encoding: 42 73 122
Width: 262
GlyphClass: 2
Flags: W
AnchorPoint: "Anker-18" 0 0 basechar 0
AnchorPoint: "Anker-17" 0 0 basechar 0
AnchorPoint: "Anker-16" 131 688 basechar 0
AnchorPoint: "Anker-15" 173 0 basechar 0
AnchorPoint: "Anker-14" 131 0 basechar 0
LayerCount: 2
Fore
SplineSet
178 688 m 1,0,-1
 178 0 l 1,1,-1
 85 0 l 1,2,-1
 85 688 l 1,3,-1
 178 688 l 1,0,-1
EndSplineSet
Validated: 1
Substitution2: "'c2sc' Versalien in Kapit+AOQA-lchen Nachschlagetabelle 26 Subtabelle" i.sc
Substitution2: "'aalt' Zugriff auf alle Alternativen Nachschlagetabelle 0 Subtabelle" i.sc
Position2: "'cpsp' Spationierung von Versalien Nachschlagetabelle 0 Subtabelle" dx=5 dy=0 dh=10 dv=0
EndChar

StartChar: Iogonek
Encoding: 238 302 137
Width: 262
GlyphClass: 2
Flags: W
AnchorPoint: "Anker-18" 0 0 basechar 0
AnchorPoint: "Anker-17" 0 0 basechar 0
AnchorPoint: "Anker-16" 131 688 basechar 0
AnchorPoint: "Anker-15" 173 0 basechar 0
AnchorPoint: "Anker-14" 131 0 basechar 0
LayerCount: 2
Fore
SplineSet
178 688 m 1,0,-1
 178 0 l 1,1,-1
 164 0 l 1,2,3
 103 -29 103 -29 79 -55.5 c 128,-1,4
 55 -82 55 -82 55 -114 c 0,5,6
 55 -163 55 -163 108 -163 c 0,7,8
 131 -163 131 -163 161 -157 c 1,9,-1
 154 -221 l 1,10,11
 121 -228 121 -228 97 -228 c 0,12,13
 44 -228 44 -228 13.5 -201 c 128,-1,14
 -17 -174 -17 -174 -17 -128 c 0,15,16
 -17 -85 -17 -85 8.5 -52.5 c 128,-1,17
 34 -20 34 -20 85 6 c 1,18,-1
 85 688 l 1,19,-1
 178 688 l 1,0,-1
EndSplineSet
Validated: 1
Substitution2: "'c2sc' Versalien in Kapit+AOQA-lchen Nachschlagetabelle 26 Subtabelle" iogonek.sc
Substitution2: "'aalt' Zugriff auf alle Alternativen Nachschlagetabelle 0 Subtabelle" iogonek.sc
Position2: "'cpsp' Spationierung von Versalien Nachschlagetabelle 0 Subtabelle" dx=5 dy=0 dh=10 dv=0
EndChar

StartChar: uni0196
Encoding: 342 406 138
Width: 329
GlyphClass: 2
Flags: W
AnchorPoint: "Anker-18" 0 0 basechar 0
AnchorPoint: "Anker-17" 0 0 basechar 0
AnchorPoint: "Anker-16" 122 688 basechar 0
AnchorPoint: "Anker-15" 0 0 basechar 0
AnchorPoint: "Anker-14" 183 0 basechar 0
LayerCount: 2
Fore
SplineSet
322 25 m 1,0,1
 275 -12 275 -12 214 -12 c 0,2,3
 151 -12 151 -12 112.5 24.5 c 128,-1,4
 74 61 74 61 74 131 c 2,5,-1
 74 200 l 1,6,-1
 75 200 l 1,7,-1
 75 688 l 1,8,-1
 168 688 l 1,9,-1
 168 199 l 1,10,-1
 167 199 l 1,11,-1
 167 128 l 2,12,13
 167 61 167 61 221 61 c 0,14,15
 241 61 241 61 255.5 65.5 c 128,-1,16
 270 70 270 70 286 80 c 1,17,-1
 322 25 l 1,0,1
EndSplineSet
Validated: 1
Substitution2: "'c2sc' Versalien in Kapit+AOQA-lchen Nachschlagetabelle 26 Subtabelle" uni0196.sc
Substitution2: "'aalt' Zugriff auf alle Alternativen Nachschlagetabelle 0 Subtabelle" uni0196.sc
Position2: "'cpsp' Spationierung von Versalien Nachschlagetabelle 0 Subtabelle" dx=5 dy=0 dh=10 dv=0
EndChar

StartChar: uni0197
Encoding: 343 407 139
Width: 289
GlyphClass: 2
Flags: W
AnchorPoint: "Anker-18" 0 0 basechar 0
AnchorPoint: "Anker-17" 0 0 basechar 0
AnchorPoint: "Anker-16" 144 688 basechar 0
AnchorPoint: "Anker-15" 186 0 basechar 0
AnchorPoint: "Anker-14" 144 0 basechar 0
LayerCount: 2
Fore
SplineSet
274 396 m 1,0,-1
 274 324 l 1,1,-1
 191 324 l 1,2,-1
 191 0 l 1,3,-1
 98 0 l 1,4,-1
 98 324 l 1,5,-1
 15 324 l 1,6,-1
 15 396 l 1,7,-1
 98 396 l 1,8,-1
 98 688 l 1,9,-1
 191 688 l 1,10,-1
 191 396 l 1,11,-1
 274 396 l 1,0,-1
EndSplineSet
Validated: 1
Substitution2: "'c2sc' Versalien in Kapit+AOQA-lchen Nachschlagetabelle 26 Subtabelle" uni0268.sc
Substitution2: "'aalt' Zugriff auf alle Alternativen Nachschlagetabelle 0 Subtabelle" uni0268.sc
Position2: "'cpsp' Spationierung von Versalien Nachschlagetabelle 0 Subtabelle" dx=5 dy=0 dh=10 dv=0
EndChar

StartChar: J
Encoding: 43 74 141
Width: 273
GlyphClass: 2
Flags: W
AnchorPoint: "Anker-18" 0 0 basechar 0
AnchorPoint: "Anker-17" 0 0 basechar 0
AnchorPoint: "Anker-16" 146 688 basechar 0
AnchorPoint: "Anker-15" 0 0 basechar 0
AnchorPoint: "Anker-14" 136 -201 basechar 0
LayerCount: 2
Fore
SplineSet
193 96 m 2,0,1
 193 28 193 28 173.5 -16 c 128,-1,2
 154 -60 154 -60 118.5 -87 c 128,-1,3
 83 -114 83 -114 27 -135 c 1,4,-1
 2 -69 l 1,5,6
 43 -49 43 -49 63.5 -28.5 c 128,-1,7
 84 -8 84 -8 92 21.5 c 128,-1,8
 100 51 100 51 100 100 c 2,9,-1
 100 688 l 1,10,-1
 193 688 l 1,11,-1
 193 96 l 2,0,1
EndSplineSet
Validated: 1
Substitution2: "'c2sc' Versalien in Kapit+AOQA-lchen Nachschlagetabelle 26 Subtabelle" j.sc
Substitution2: "'aalt' Zugriff auf alle Alternativen Nachschlagetabelle 0 Subtabelle" j.sc
Position2: "'cpsp' Spationierung von Versalien Nachschlagetabelle 0 Subtabelle" dx=5 dy=0 dh=10 dv=0
EndChar

StartChar: uniA7B2
Encoding: 1676 42930 143
Width: 298
GlyphClass: 2
Flags: W
AnchorPoint: "Anker-18" 0 0 basechar 0
AnchorPoint: "Anker-17" 0 0 basechar 0
AnchorPoint: "Anker-16" 167 688 basechar 0
AnchorPoint: "Anker-15" 0 0 basechar 0
AnchorPoint: "Anker-14" 149 -202 basechar 0
LayerCount: 2
Fore
SplineSet
288 -96 m 1,0,1
 248 -77 248 -77 210 -65 c 1,2,3
 201 -137 201 -137 160.5 -174 c 128,-1,4
 120 -211 120 -211 48 -211 c 0,5,6
 -10 -211 -10 -211 -42 -182.5 c 128,-1,7
 -74 -154 -74 -154 -74 -105 c 0,8,9
 -74 -52 -74 -52 -36.5 -22.5 c 128,-1,10
 1 7 1 7 69 7 c 0,11,12
 99 7 99 7 120 4 c 1,13,-1
 120 688 l 1,14,-1
 213 688 l 1,15,-1
 213 -11 l 1,16,17
 262 -25 262 -25 310 -50 c 1,18,-1
 288 -96 l 1,0,1
102.5 -128.5 m 128,-1,20
 119 -103 119 -103 120 -49 c 1,21,22
 101 -45 101 -45 69 -45 c 0,23,24
 28 -45 28 -45 9.5 -59.5 c 128,-1,25
 -9 -74 -9 -74 -9 -103 c 0,26,27
 -9 -154 -9 -154 46 -154 c 0,28,19
 86 -154 86 -154 102.5 -128.5 c 128,-1,20
EndSplineSet
Validated: 1
Substitution2: "'c2sc' Versalien in Kapit+AOQA-lchen Nachschlagetabelle 26 Subtabelle" uniA7B2.sc
Substitution2: "'aalt' Zugriff auf alle Alternativen Nachschlagetabelle 0 Subtabelle" uniA7B2.sc
Position2: "'cpsp' Spationierung von Versalien Nachschlagetabelle 0 Subtabelle" dx=5 dy=0 dh=10 dv=0
EndChar

StartChar: uni0248
Encoding: 520 584 144
Width: 286
GlyphClass: 2
Flags: W
AnchorPoint: "Anker-18" 0 0 basechar 0
AnchorPoint: "Anker-17" 0 0 basechar 0
AnchorPoint: "Anker-16" 146 688 basechar 0
AnchorPoint: "Anker-15" 0 0 basechar 0
AnchorPoint: "Anker-14" 136 -201 basechar 0
LayerCount: 2
Fore
SplineSet
275 306 m 1,0,-1
 193 306 l 1,1,-1
 193 96 l 2,2,3
 193 28 193 28 173.5 -16 c 128,-1,4
 154 -60 154 -60 118.5 -87 c 128,-1,5
 83 -114 83 -114 27 -135 c 1,6,-1
 2 -69 l 1,7,8
 43 -49 43 -49 63.5 -28.5 c 128,-1,9
 84 -8 84 -8 92 21.5 c 128,-1,10
 100 51 100 51 100 100 c 2,11,-1
 100 306 l 1,12,-1
 16 306 l 1,13,-1
 16 380 l 1,14,-1
 100 380 l 1,15,-1
 100 688 l 1,16,-1
 193 688 l 1,17,-1
 193 380 l 1,18,-1
 275 380 l 1,19,-1
 275 306 l 1,0,-1
EndSplineSet
Validated: 1
Substitution2: "'c2sc' Versalien in Kapit+AOQA-lchen Nachschlagetabelle 26 Subtabelle" uni0249.sc
Substitution2: "'aalt' Zugriff auf alle Alternativen Nachschlagetabelle 0 Subtabelle" uni0249.sc
Position2: "'cpsp' Spationierung von Versalien Nachschlagetabelle 0 Subtabelle" dx=5 dy=0 dh=10 dv=0
EndChar

StartChar: K
Encoding: 44 75 145
Width: 529
GlyphClass: 2
Flags: W
AnchorPoint: "Anker-18" 0 0 basechar 0
AnchorPoint: "Anker-17" 0 0 basechar 0
AnchorPoint: "Anker-16" 288 688 basechar 0
AnchorPoint: "Anker-15" 0 0 basechar 0
AnchorPoint: "Anker-14" 285 0 basechar 0
LayerCount: 2
Fore
SplineSet
178 688 m 1,0,-1
 178 0 l 1,1,-1
 85 0 l 1,2,-1
 85 688 l 1,3,-1
 178 688 l 1,0,-1
516 688 m 1,4,-1
 283 374 l 1,5,-1
 532 0 l 1,6,-1
 425 0 l 1,7,-1
 182 368 l 1,8,-1
 417 688 l 1,9,-1
 516 688 l 1,4,-1
EndSplineSet
Validated: 1
Substitution2: "'c2sc' Versalien in Kapit+AOQA-lchen Nachschlagetabelle 26 Subtabelle" k.sc
Substitution2: "'aalt' Zugriff auf alle Alternativen Nachschlagetabelle 0 Subtabelle" k.sc
Position2: "'cpsp' Spationierung von Versalien Nachschlagetabelle 0 Subtabelle" dx=5 dy=0 dh=10 dv=0
EndChar

StartChar: uni0198
Encoding: 344 408 148
Width: 552
GlyphClass: 2
Flags: W
AnchorPoint: "Anker-18" 0 0 basechar 0
AnchorPoint: "Anker-17" 0 0 basechar 0
AnchorPoint: "Anker-16" 275 688 basechar 0
AnchorPoint: "Anker-15" 0 0 basechar 0
AnchorPoint: "Anker-14" 275 0 basechar 0
LayerCount: 2
Fore
SplineSet
182 368 m 1,0,-1
 323 601 l 2,1,2
 354 655 354 655 384 678 c 128,-1,3
 414 701 414 701 460 701 c 0,4,5
 512 701 512 701 555 663 c 1,6,-1
 524 610 l 1,7,8
 511 619 511 619 498.5 624.5 c 128,-1,9
 486 630 486 630 471 630 c 0,10,11
 450 630 450 630 434.5 618.5 c 128,-1,12
 419 607 419 607 399 573 c 2,13,-1
 280 374 l 1,14,-1
 532 0 l 1,15,-1
 425 0 l 1,16,-1
 182 368 l 1,0,-1
178 688 m 1,17,-1
 178 0 l 1,18,-1
 85 0 l 1,19,-1
 85 688 l 1,20,-1
 178 688 l 1,17,-1
EndSplineSet
Validated: 1
Substitution2: "'c2sc' Versalien in Kapit+AOQA-lchen Nachschlagetabelle 26 Subtabelle" uni0199.sc
Substitution2: "'aalt' Zugriff auf alle Alternativen Nachschlagetabelle 0 Subtabelle" uni0199.sc
Position2: "'cpsp' Spationierung von Versalien Nachschlagetabelle 0 Subtabelle" dx=5 dy=0 dh=10 dv=0
EndChar

StartChar: L
Encoding: 45 76 149
Width: 443
GlyphClass: 2
Flags: W
AnchorPoint: "Anker-18" 346 383 basechar 0
AnchorPoint: "Anker-17" 196 688 basechar 0
AnchorPoint: "Anker-16" 132 688 basechar 0
AnchorPoint: "Anker-15" 0 0 basechar 0
AnchorPoint: "Anker-14" 253 0 basechar 0
LayerCount: 2
Fore
SplineSet
178 688 m 1,0,-1
 178 79 l 1,1,-1
 429 79 l 1,2,-1
 419 0 l 1,3,-1
 85 0 l 1,4,-1
 85 688 l 1,5,-1
 178 688 l 1,0,-1
EndSplineSet
Validated: 1
Substitution2: "'c2sc' Versalien in Kapit+AOQA-lchen Nachschlagetabelle 26 Subtabelle" l.sc
Substitution2: "'aalt' Zugriff auf alle Alternativen Nachschlagetabelle 0 Subtabelle" l.sc
Position2: "'cpsp' Spationierung von Versalien Nachschlagetabelle 0 Subtabelle" dx=5 dy=0 dh=10 dv=0
EndChar

StartChar: uni023D
Encoding: 509 573 152
Width: 456
GlyphClass: 2
Flags: W
AnchorPoint: "Anker-18" 359 383 basechar 0
AnchorPoint: "Anker-17" 209 688 basechar 0
AnchorPoint: "Anker-16" 145 688 basechar 0
AnchorPoint: "Anker-15" 0 0 basechar 0
AnchorPoint: "Anker-14" 266 0 basechar 0
LayerCount: 2
Fore
SplineSet
191 79 m 1,0,-1
 442 79 l 1,1,-1
 432 0 l 1,2,-1
 98 0 l 1,3,-1
 98 326 l 1,4,-1
 15 326 l 1,5,-1
 15 400 l 1,6,-1
 98 400 l 1,7,-1
 98 688 l 1,8,-1
 191 688 l 1,9,-1
 191 400 l 1,10,-1
 274 400 l 1,11,-1
 274 326 l 1,12,-1
 191 326 l 1,13,-1
 191 79 l 1,0,-1
EndSplineSet
Validated: 1
Substitution2: "'c2sc' Versalien in Kapit+AOQA-lchen Nachschlagetabelle 26 Subtabelle" uni019A.sc
Substitution2: "'aalt' Zugriff auf alle Alternativen Nachschlagetabelle 0 Subtabelle" uni019A.sc
Position2: "'cpsp' Spationierung von Versalien Nachschlagetabelle 0 Subtabelle" dx=5 dy=0 dh=10 dv=0
EndChar

StartChar: uniA7AD
Encoding: 1674 42925 153
Width: 500
GlyphClass: 2
Flags: W
AnchorPoint: "Anker-18" 403 383 basechar 0
AnchorPoint: "Anker-17" 253 688 basechar 0
AnchorPoint: "Anker-16" 189 688 basechar 0
AnchorPoint: "Anker-15" 0 0 basechar 0
AnchorPoint: "Anker-14" 310 0 basechar 0
LayerCount: 2
Fore
SplineSet
486 79 m 1,0,-1
 476 0 l 1,1,-1
 142 0 l 1,2,-1
 142 262 l 1,3,-1
 141 262 l 2,4,5
 76 263 76 263 43 292.5 c 128,-1,6
 10 322 10 322 10 374 c 0,7,8
 10 421 10 421 39.5 448 c 128,-1,9
 69 475 69 475 112 475 c 0,10,11
 118 475 118 475 142 472 c 1,12,-1
 142 688 l 1,13,-1
 235 688 l 1,14,-1
 235 324 l 1,15,16
 290 327 290 327 341 339 c 1,17,-1
 351 282 l 1,18,19
 288 266 288 266 235 265 c 1,20,-1
 235 79 l 1,21,-1
 486 79 l 1,0,-1
142 324 m 1,22,-1
 142 417 l 1,23,24
 135 418 135 418 118 418 c 0,25,26
 99 418 99 418 88 407 c 128,-1,27
 77 396 77 396 77 374 c 0,28,29
 77 324 77 324 141 324 c 2,30,-1
 142 324 l 1,22,-1
EndSplineSet
Validated: 1
Substitution2: "'c2sc' Versalien in Kapit+AOQA-lchen Nachschlagetabelle 26 Subtabelle" uniA7AD.sc
Substitution2: "'aalt' Zugriff auf alle Alternativen Nachschlagetabelle 0 Subtabelle" uniA7AD.sc
Position2: "'cpsp' Spationierung von Versalien Nachschlagetabelle 0 Subtabelle" dx=5 dy=0 dh=10 dv=0
EndChar

StartChar: Lslash
Encoding: 257 321 160
Width: 463
GlyphClass: 2
Flags: W
AnchorPoint: "Anker-18" 366 383 basechar 0
AnchorPoint: "Anker-17" 216 688 basechar 0
AnchorPoint: "Anker-16" 152 688 basechar 0
AnchorPoint: "Anker-15" 0 0 basechar 0
AnchorPoint: "Anker-14" 273 0 basechar 0
LayerCount: 2
Fore
SplineSet
198 79 m 1,0,-1
 449 79 l 1,1,-1
 439 0 l 1,2,-1
 105 0 l 1,3,-1
 105 261 l 1,4,-1
 53 226 l 1,5,-1
 20 282 l 1,6,-1
 103 338 l 1,7,-1
 105 339 l 1,8,-1
 105 688 l 1,9,-1
 198 688 l 1,10,-1
 198 402 l 1,11,-1
 339 498 l 1,12,-1
 372 442 l 1,13,-1
 198 324 l 1,14,-1
 198 79 l 1,0,-1
EndSplineSet
Validated: 1
Substitution2: "'c2sc' Versalien in Kapit+AOQA-lchen Nachschlagetabelle 26 Subtabelle" lslash.sc
Substitution2: "'aalt' Zugriff auf alle Alternativen Nachschlagetabelle 0 Subtabelle" lslash.sc
Position2: "'cpsp' Spationierung von Versalien Nachschlagetabelle 0 Subtabelle" dx=5 dy=0 dh=10 dv=0
EndChar

StartChar: M
Encoding: 46 77 161
Width: 711
GlyphClass: 2
Flags: W
AnchorPoint: "Anker-18" 0 0 basechar 0
AnchorPoint: "Anker-17" 0 0 basechar 0
AnchorPoint: "Anker-16" 355 688 basechar 0
AnchorPoint: "Anker-15" 0 0 basechar 0
AnchorPoint: "Anker-14" 360 0 basechar 0
LayerCount: 2
Fore
SplineSet
656 0 m 1,0,-1
 567 0 l 1,1,-1
 546 311 l 2,2,3
 532 520 532 520 531 599 c 1,4,-1
 399 78 l 1,5,-1
 312 78 l 1,6,-1
 174 599 l 1,7,8
 175 512 175 512 163 309 c 2,9,-1
 143 0 l 1,10,-1
 55 0 l 1,11,-1
 108 688 l 1,12,-1
 229 688 l 1,13,-1
 357 179 l 1,14,-1
 480 688 l 1,15,-1
 603 688 l 1,16,-1
 656 0 l 1,0,-1
EndSplineSet
Validated: 33
Substitution2: "'c2sc' Versalien in Kapit+AOQA-lchen Nachschlagetabelle 26 Subtabelle" m.sc
Substitution2: "'aalt' Zugriff auf alle Alternativen Nachschlagetabelle 0 Subtabelle" m.sc
Position2: "'cpsp' Spationierung von Versalien Nachschlagetabelle 0 Subtabelle" dx=5 dy=0 dh=10 dv=0
EndChar

StartChar: uni019C
Encoding: 348 412 164
Width: 834
GlyphClass: 2
Flags: W
AnchorPoint: "Anker-18" 0 0 basechar 0
AnchorPoint: "Anker-17" 0 0 basechar 0
AnchorPoint: "Anker-16" 414 688 basechar 0
AnchorPoint: "Anker-15" 0 0 basechar 0
AnchorPoint: "Anker-14" 417 0 basechar 0
LayerCount: 2
Fore
SplineSet
749 688 m 1,0,-1
 749 0 l 1,1,-1
 668 0 l 1,2,-1
 661 77 l 1,3,4
 603 -13 603 -13 514 -13 c 0,5,6
 466 -13 466 -13 431.5 13.5 c 128,-1,7
 397 40 397 40 380 86 c 1,8,9
 346 36 346 36 308 11.5 c 128,-1,10
 270 -13 270 -13 224 -13 c 0,11,12
 154 -13 154 -13 114.5 38 c 128,-1,13
 75 89 75 89 75 173 c 2,14,-1
 75 688 l 1,15,-1
 168 688 l 1,16,-1
 168 175 l 2,17,18
 168 120 168 120 188 91 c 128,-1,19
 208 62 208 62 246 62 c 0,20,21
 282 62 282 62 310 84 c 128,-1,22
 338 106 338 106 366 153 c 1,23,24
 365 160 365 160 365 173 c 2,25,-1
 365 688 l 1,26,-1
 458 688 l 1,27,-1
 458 175 l 2,28,29
 458 122 458 122 478.5 92 c 128,-1,30
 499 62 499 62 537 62 c 0,31,32
 574 62 574 62 602 85 c 128,-1,33
 630 108 630 108 656 155 c 1,34,-1
 656 688 l 1,35,-1
 749 688 l 1,0,-1
EndSplineSet
Validated: 1
Substitution2: "'c2sc' Versalien in Kapit+AOQA-lchen Nachschlagetabelle 26 Subtabelle" uni026F.sc
Substitution2: "'aalt' Zugriff auf alle Alternativen Nachschlagetabelle 0 Subtabelle" uni026F.sc
Position2: "'cpsp' Spationierung von Versalien Nachschlagetabelle 0 Subtabelle" dx=5 dy=0 dh=10 dv=0
EndChar

StartChar: N
Encoding: 47 78 165
Width: 607
GlyphClass: 2
Flags: W
AnchorPoint: "Anker-18" 0 0 basechar 0
AnchorPoint: "Anker-17" 0 0 basechar 0
AnchorPoint: "Anker-16" 310 688 basechar 0
AnchorPoint: "Anker-15" 0 0 basechar 0
AnchorPoint: "Anker-14" 304 0 basechar 0
LayerCount: 2
Fore
SplineSet
522 0 m 1,0,-1
 402 0 l 1,1,-1
 157 591 l 1,2,3
 169 459 169 459 169 334 c 2,4,-1
 169 0 l 1,5,-1
 85 0 l 1,6,-1
 85 688 l 1,7,-1
 204 688 l 1,8,-1
 450 96 l 1,9,10
 446 131 446 131 441.5 192 c 128,-1,11
 437 253 437 253 437 313 c 2,12,-1
 437 688 l 1,13,-1
 522 688 l 1,14,-1
 522 0 l 1,0,-1
EndSplineSet
Validated: 1
Substitution2: "'c2sc' Versalien in Kapit+AOQA-lchen Nachschlagetabelle 26 Subtabelle" n.sc
Substitution2: "'aalt' Zugriff auf alle Alternativen Nachschlagetabelle 0 Subtabelle" n.sc
Position2: "'cpsp' Spationierung von Versalien Nachschlagetabelle 0 Subtabelle" dx=5 dy=0 dh=10 dv=0
EndChar

StartChar: Eng
Encoding: 266 330 175
Width: 607
GlyphClass: 2
Flags: W
AnchorPoint: "Anker-18" 0 0 basechar 0
AnchorPoint: "Anker-17" 0 0 basechar 0
AnchorPoint: "Anker-16" 310 688 basechar 0
AnchorPoint: "Anker-15" 0 0 basechar 0
AnchorPoint: "Anker-14" 304 0 basechar 0
LayerCount: 2
Fore
SplineSet
522 688 m 1,0,-1
 522 -68 l 2,1,2
 522 -138 522 -138 483.5 -174.5 c 128,-1,3
 445 -211 445 -211 382 -211 c 0,4,5
 321 -211 321 -211 274 -174 c 1,6,-1
 310 -119 l 1,7,8
 326 -129 326 -129 340.5 -133.5 c 128,-1,9
 355 -138 355 -138 375 -138 c 0,10,11
 429 -138 429 -138 429 -71 c 2,12,-1
 429 0 l 1,13,-1
 402 0 l 1,14,-1
 157 591 l 1,15,16
 169 459 169 459 169 334 c 2,17,-1
 169 0 l 1,18,-1
 85 0 l 1,19,-1
 85 688 l 1,20,-1
 204 688 l 1,21,-1
 450 96 l 1,22,23
 446 131 446 131 441.5 192 c 128,-1,24
 437 253 437 253 437 313 c 2,25,-1
 437 688 l 1,26,-1
 522 688 l 1,0,-1
EndSplineSet
Validated: 1
Substitution2: "'ss01' Stilgruppe 1 Nachschlagetabelle 33 Subtabelle" Eng.ss01
Substitution2: "'salt' Stilistische Alternativformen Nachschlagetabelle 32 Subtabelle" Eng.ss01
Substitution2: "'c2sc' Versalien in Kapit+AOQA-lchen Nachschlagetabelle 26 Subtabelle" eng.sc
AlternateSubs2: "'aalt' Zugriff auf alle Alternativen Nachschlagetabelle 1 Subtabelle" eng.sc Eng.ss01
Position2: "'cpsp' Spationierung von Versalien Nachschlagetabelle 0 Subtabelle" dx=5 dy=0 dh=10 dv=0
EndChar

StartChar: Eng.ss01
Encoding: 1691 -1 176
Width: 597
GlyphClass: 2
Flags: W
AnchorPoint: "Anker-18" 0 0 basechar 0
AnchorPoint: "Anker-17" 0 0 basechar 0
AnchorPoint: "Anker-16" 299 688 basechar 0
AnchorPoint: "Anker-15" 0 0 basechar 0
AnchorPoint: "Anker-14" 299 -202 basechar 0
LayerCount: 2
Fore
SplineSet
477.5 651 m 128,-1,1
 519 601 519 601 519 515 c 2,2,-1
 519 -68 l 2,3,4
 519 -138 519 -138 480.5 -174.5 c 128,-1,5
 442 -211 442 -211 379 -211 c 0,6,7
 318 -211 318 -211 271 -174 c 1,8,-1
 307 -119 l 1,9,10
 323 -129 323 -129 337.5 -133.5 c 128,-1,11
 352 -138 352 -138 372 -138 c 0,12,13
 426 -138 426 -138 426 -71 c 2,14,-1
 426 498 l 2,15,16
 426 564 426 564 403 595 c 128,-1,17
 380 626 380 626 332 626 c 0,18,19
 285 626 285 626 249.5 602.5 c 128,-1,20
 214 579 214 579 178 534 c 1,21,-1
 178 0 l 1,22,-1
 85 0 l 1,23,-1
 85 688 l 1,24,-1
 166 688 l 1,25,-1
 173 608 l 1,26,27
 252 701 252 701 356 701 c 0,28,0
 436 701 436 701 477.5 651 c 128,-1,1
EndSplineSet
Validated: 1
Position2: "'cpsp' Spationierung von Versalien Nachschlagetabelle 0 Subtabelle" dx=5 dy=0 dh=10 dv=0
EndChar

StartChar: uni019D
Encoding: 349 413 177
Width: 607
GlyphClass: 2
Flags: W
AnchorPoint: "Anker-18" 0 0 basechar 0
AnchorPoint: "Anker-17" 0 0 basechar 0
AnchorPoint: "Anker-16" 310 688 basechar 0
AnchorPoint: "Anker-15" 0 0 basechar 0
AnchorPoint: "Anker-14" 304 0 basechar 0
LayerCount: 2
Fore
SplineSet
522 688 m 1,0,-1
 522 0 l 1,1,-1
 402 0 l 1,2,-1
 157 591 l 1,3,4
 169 459 169 459 169 334 c 2,5,-1
 169 -68 l 2,6,7
 169 -138 169 -138 132 -174.5 c 128,-1,8
 95 -211 95 -211 34 -211 c 0,9,10
 -25 -211 -25 -211 -72 -174 c 1,11,-1
 -36 -121 l 1,12,13
 -19 -132 -19 -132 -5 -137 c 128,-1,14
 9 -142 9 -142 29 -142 c 0,15,16
 85 -142 85 -142 85 -73 c 2,17,-1
 85 688 l 1,18,-1
 204 688 l 1,19,-1
 450 96 l 1,20,21
 446 131 446 131 441.5 192 c 128,-1,22
 437 253 437 253 437 313 c 2,23,-1
 437 688 l 1,24,-1
 522 688 l 1,0,-1
EndSplineSet
Validated: 1
Substitution2: "'ss01' Stilgruppe 1 Nachschlagetabelle 33 Subtabelle" uni019D.ss01
Substitution2: "'salt' Stilistische Alternativformen Nachschlagetabelle 32 Subtabelle" uni019D.ss01
Substitution2: "'c2sc' Versalien in Kapit+AOQA-lchen Nachschlagetabelle 26 Subtabelle" uni0272.sc
AlternateSubs2: "'aalt' Zugriff auf alle Alternativen Nachschlagetabelle 1 Subtabelle" uni0272.sc uni019D.ss01
Position2: "'cpsp' Spationierung von Versalien Nachschlagetabelle 0 Subtabelle" dx=5 dy=0 dh=10 dv=0
EndChar

StartChar: uni019D.ss01
Encoding: 1692 -1 178
Width: 597
GlyphClass: 2
Flags: W
AnchorPoint: "Anker-18" 0 0 basechar 0
AnchorPoint: "Anker-17" 0 0 basechar 0
AnchorPoint: "Anker-16" 297 688 basechar 0
AnchorPoint: "Anker-15" 0 0 basechar 0
AnchorPoint: "Anker-14" 297 -202 basechar 0
LayerCount: 2
Fore
SplineSet
477.5 651 m 128,-1,1
 519 601 519 601 519 515 c 2,2,-1
 519 0 l 1,3,-1
 426 0 l 1,4,-1
 426 498 l 2,5,6
 426 564 426 564 403 595 c 128,-1,7
 380 626 380 626 332 626 c 0,8,9
 285 626 285 626 249.5 602.5 c 128,-1,10
 214 579 214 579 178 534 c 1,11,-1
 178 -68 l 2,12,13
 178 -138 178 -138 139.5 -174.5 c 128,-1,14
 101 -211 101 -211 38 -211 c 0,15,16
 -23 -211 -23 -211 -70 -174 c 1,17,-1
 -34 -119 l 1,18,19
 -18 -129 -18 -129 -3.5 -133.5 c 128,-1,20
 11 -138 11 -138 31 -138 c 0,21,22
 85 -138 85 -138 85 -71 c 2,23,-1
 85 688 l 1,24,-1
 166 688 l 1,25,-1
 173 608 l 1,26,27
 252 701 252 701 356 701 c 0,28,0
 436 701 436 701 477.5 651 c 128,-1,1
EndSplineSet
Validated: 1
Position2: "'cpsp' Spationierung von Versalien Nachschlagetabelle 0 Subtabelle" dx=5 dy=0 dh=10 dv=0
EndChar

StartChar: uni0220
Encoding: 480 544 180
Width: 597
GlyphClass: 2
Flags: W
AnchorPoint: "Anker-18" 0 0 basechar 0
AnchorPoint: "Anker-17" 0 0 basechar 0
AnchorPoint: "Anker-16" 297 688 basechar 0
AnchorPoint: "Anker-15" 0 0 basechar 0
AnchorPoint: "Anker-14" 297 -202 basechar 0
LayerCount: 2
Fore
SplineSet
477.5 651 m 128,-1,1
 519 601 519 601 519 515 c 2,2,-1
 519 -202 l 1,3,-1
 426 -202 l 1,4,-1
 426 498 l 2,5,6
 426 564 426 564 403 595 c 128,-1,7
 380 626 380 626 332 626 c 0,8,9
 285 626 285 626 249.5 602.5 c 128,-1,10
 214 579 214 579 178 534 c 1,11,-1
 178 0 l 1,12,-1
 85 0 l 1,13,-1
 85 688 l 1,14,-1
 166 688 l 1,15,-1
 173 608 l 1,16,17
 252 701 252 701 356 701 c 0,18,0
 436 701 436 701 477.5 651 c 128,-1,1
EndSplineSet
Validated: 1
Substitution2: "'c2sc' Versalien in Kapit+AOQA-lchen Nachschlagetabelle 26 Subtabelle" uni0220.sc
Substitution2: "'aalt' Zugriff auf alle Alternativen Nachschlagetabelle 0 Subtabelle" uni0220.sc
Position2: "'cpsp' Spationierung von Versalien Nachschlagetabelle 0 Subtabelle" dx=5 dy=0 dh=10 dv=0
EndChar

StartChar: O
Encoding: 48 79 182
Width: 628
GlyphClass: 2
Flags: W
AnchorPoint: "Anker-18" 0 0 basechar 0
AnchorPoint: "Anker-17" 503 688 basechar 0
AnchorPoint: "Anker-16" 314 688 basechar 0
AnchorPoint: "Anker-15" 407 0 basechar 0
AnchorPoint: "Anker-14" 314 0 basechar 0
LayerCount: 2
Fore
SplineSet
507.5 610.5 m 128,-1,1
 578 520 578 520 578 344 c 0,2,3
 578 171 578 171 508 79 c 128,-1,4
 438 -13 438 -13 314 -13 c 0,5,6
 191 -13 191 -13 120.5 77.5 c 128,-1,7
 50 168 50 168 50 343 c 0,8,9
 50 458 50 458 82.5 538.5 c 128,-1,10
 115 619 115 619 174.5 660 c 128,-1,11
 234 701 234 701 314 701 c 0,12,0
 437 701 437 701 507.5 610.5 c 128,-1,1
148 343 m 0,14,15
 148 62 148 62 314 62 c 0,16,17
 396 62 396 62 438 129 c 128,-1,18
 480 196 480 196 480 344 c 0,19,20
 480 491 480 491 437.5 559 c 128,-1,21
 395 627 395 627 314 627 c 0,22,13
 148 627 148 627 148 343 c 0,14,15
EndSplineSet
Validated: 1
Substitution2: "Einzelne Substitution Nachschlagetabelle 45 Subtabelle" ordmasculine
Substitution2: "'c2sc' Versalien in Kapit+AOQA-lchen Nachschlagetabelle 26 Subtabelle" o.sc
AlternateSubs2: "'aalt' Zugriff auf alle Alternativen Nachschlagetabelle 1 Subtabelle" ordmasculine o.sc
Position2: "'cpsp' Spationierung von Versalien Nachschlagetabelle 0 Subtabelle" dx=5 dy=0 dh=10 dv=0
EndChar

StartChar: uni0222
Encoding: 482 546 183
Width: 587
GlyphClass: 2
Flags: W
AnchorPoint: "Anker-18" 0 0 basechar 0
AnchorPoint: "Anker-17" 0 0 basechar 0
AnchorPoint: "Anker-16" 294 688 basechar 0
AnchorPoint: "Anker-15" 0 0 basechar 0
AnchorPoint: "Anker-14" 294 0 basechar 0
LayerCount: 2
Fore
SplineSet
505 320.5 m 128,-1,1
 537 274 537 274 537 207 c 0,2,3
 537 147 537 147 508.5 97 c 128,-1,4
 480 47 480 47 425 17 c 128,-1,5
 370 -13 370 -13 294 -13 c 256,6,7
 218 -13 218 -13 163 16 c 128,-1,8
 108 45 108 45 79 95 c 128,-1,9
 50 145 50 145 50 206 c 0,10,11
 50 271 50 271 82.5 318.5 c 128,-1,12
 115 366 115 366 176 388 c 1,13,14
 133 409 133 409 111.5 446 c 128,-1,15
 90 483 90 483 90 531 c 2,16,-1
 90 688 l 1,17,-1
 183 688 l 1,18,-1
 183 531 l 2,19,20
 183 479 183 479 208.5 449.5 c 128,-1,21
 234 420 234 420 294 420 c 256,22,23
 354 420 354 420 380 451.5 c 128,-1,24
 406 483 406 483 406 531 c 2,25,-1
 406 688 l 1,26,-1
 499 688 l 1,27,-1
 499 531 l 2,28,29
 499 484 499 484 476.5 447.5 c 128,-1,30
 454 411 454 411 411 389 c 1,31,0
 473 367 473 367 505 320.5 c 128,-1,1
403.5 98 m 128,-1,33
 439 134 439 134 439 207 c 0,34,35
 439 347 439 347 294 347 c 0,36,37
 221 347 221 347 184.5 310.5 c 128,-1,38
 148 274 148 274 148 206 c 0,39,40
 148 62 148 62 294 62 c 0,41,32
 368 62 368 62 403.5 98 c 128,-1,33
EndSplineSet
Validated: 1
Substitution2: "'c2sc' Versalien in Kapit+AOQA-lchen Nachschlagetabelle 26 Subtabelle" uni0223.sc
Substitution2: "'aalt' Zugriff auf alle Alternativen Nachschlagetabelle 0 Subtabelle" uni0223.sc
Position2: "'cpsp' Spationierung von Versalien Nachschlagetabelle 0 Subtabelle" dx=5 dy=0 dh=10 dv=0
EndChar

StartChar: Ohorn
Encoding: 352 416 203
Width: 646
GlyphClass: 2
Flags: W
AnchorPoint: "Anker-18" 0 0 basechar 0
AnchorPoint: "Anker-17" 550 688 basechar 0
AnchorPoint: "Anker-16" 314 688 basechar 0
AnchorPoint: "Anker-15" 407 0 basechar 0
AnchorPoint: "Anker-14" 314 0 basechar 0
LayerCount: 2
Fore
SplineSet
524 586 m 1,1,2
 578 497 578 497 578 344 c 0,3,4
 578 171 578 171 508 79 c 128,-1,5
 438 -13 438 -13 314 -13 c 0,6,7
 191 -13 191 -13 120.5 77.5 c 128,-1,8
 50 168 50 168 50 343 c 0,9,10
 50 458 50 458 82.5 538.5 c 128,-1,11
 115 619 115 619 174.5 660 c 128,-1,12
 234 701 234 701 314 701 c 0,13,14
 421 701 421 701 489 632 c 1,15,16
 514 636 514 636 525.5 648.5 c 128,-1,17
 537 661 537 661 537 685 c 0,18,19
 537 721 537 721 524 758 c 1,20,-1
 587 772 l 1,21,22
 604 734 604 734 604 687 c 0,23,0
 604 603 604 603 524 586 c 1,1,2
438 129 m 128,-1,25
 480 196 480 196 480 344 c 0,26,27
 480 491 480 491 437.5 559 c 128,-1,28
 395 627 395 627 314 627 c 0,29,30
 148 627 148 627 148 343 c 0,31,32
 148 62 148 62 314 62 c 0,33,24
 396 62 396 62 438 129 c 128,-1,25
EndSplineSet
Validated: 1
Substitution2: "'c2sc' Versalien in Kapit+AOQA-lchen Nachschlagetabelle 26 Subtabelle" ohorn.sc
Substitution2: "'aalt' Zugriff auf alle Alternativen Nachschlagetabelle 0 Subtabelle" ohorn.sc
Position2: "'cpsp' Spationierung von Versalien Nachschlagetabelle 0 Subtabelle" dx=5 dy=0 dh=10 dv=0
EndChar

StartChar: uni1EDA
Encoding: 1278 7898 204
Width: 646
GlyphClass: 2
Flags: W
AnchorPoint: "Anker-18" 0 0 basechar 0
AnchorPoint: "Anker-17" 550 688 basechar 0
AnchorPoint: "Anker-16" 316 910 basechar 0
AnchorPoint: "Anker-15" 407 0 basechar 0
AnchorPoint: "Anker-14" 314 0 basechar 0
LayerCount: 2
Fore
SplineSet
423 835 m 1,0,-1
 229 756 l 1,1,-1
 205 803 l 1,2,-1
 385 908 l 1,3,-1
 423 835 l 1,0,-1
524 586 m 1,5,6
 578 497 578 497 578 344 c 0,7,8
 578 171 578 171 508 79 c 128,-1,9
 438 -13 438 -13 314 -13 c 0,10,11
 191 -13 191 -13 120.5 77.5 c 128,-1,12
 50 168 50 168 50 343 c 0,13,14
 50 458 50 458 82.5 538.5 c 128,-1,15
 115 619 115 619 174.5 660 c 128,-1,16
 234 701 234 701 314 701 c 0,17,18
 421 701 421 701 489 632 c 1,19,20
 514 636 514 636 525.5 648.5 c 128,-1,21
 537 661 537 661 537 685 c 0,22,23
 537 721 537 721 524 758 c 1,24,-1
 587 772 l 1,25,26
 604 734 604 734 604 687 c 0,27,4
 604 603 604 603 524 586 c 1,5,6
438 129 m 128,-1,29
 480 196 480 196 480 344 c 0,30,31
 480 491 480 491 437.5 559 c 128,-1,32
 395 627 395 627 314 627 c 0,33,34
 148 627 148 627 148 343 c 0,35,36
 148 62 148 62 314 62 c 0,37,28
 396 62 396 62 438 129 c 128,-1,29
EndSplineSet
Validated: 1
Substitution2: "'c2sc' Versalien in Kapit+AOQA-lchen Nachschlagetabelle 26 Subtabelle" uni1EDB.sc
Substitution2: "'aalt' Zugriff auf alle Alternativen Nachschlagetabelle 0 Subtabelle" uni1EDB.sc
Position2: "'cpsp' Spationierung von Versalien Nachschlagetabelle 0 Subtabelle" dx=5 dy=0 dh=10 dv=0
EndChar

StartChar: uni1EE2
Encoding: 1286 7906 205
Width: 646
GlyphClass: 2
Flags: W
AnchorPoint: "Anker-18" 0 0 basechar 0
AnchorPoint: "Anker-17" 550 688 basechar 0
AnchorPoint: "Anker-16" 314 688 basechar 0
AnchorPoint: "Anker-15" 407 0 basechar 0
AnchorPoint: "Anker-14" 314 -202 basechar 0
LayerCount: 2
Fore
SplineSet
524 586 m 1,1,2
 578 497 578 497 578 344 c 0,3,4
 578 171 578 171 508 79 c 128,-1,5
 438 -13 438 -13 314 -13 c 0,6,7
 191 -13 191 -13 120.5 77.5 c 128,-1,8
 50 168 50 168 50 343 c 0,9,10
 50 458 50 458 82.5 538.5 c 128,-1,11
 115 619 115 619 174.5 660 c 128,-1,12
 234 701 234 701 314 701 c 0,13,14
 421 701 421 701 489 632 c 1,15,16
 514 636 514 636 525.5 648.5 c 128,-1,17
 537 661 537 661 537 685 c 0,18,19
 537 721 537 721 524 758 c 1,20,-1
 587 772 l 1,21,22
 604 734 604 734 604 687 c 0,23,0
 604 603 604 603 524 586 c 1,1,2
438 129 m 128,-1,25
 480 196 480 196 480 344 c 0,26,27
 480 491 480 491 437.5 559 c 128,-1,28
 395 627 395 627 314 627 c 0,29,30
 148 627 148 627 148 343 c 0,31,32
 148 62 148 62 314 62 c 0,33,24
 396 62 396 62 438 129 c 128,-1,25
356.5 -93.5 m 128,-1,35
 373 -110 373 -110 373 -135 c 256,36,37
 373 -160 373 -160 356.5 -177 c 128,-1,38
 340 -194 340 -194 314 -194 c 256,39,40
 288 -194 288 -194 271.5 -177 c 128,-1,41
 255 -160 255 -160 255 -135 c 256,42,43
 255 -110 255 -110 271 -93.5 c 128,-1,44
 287 -77 287 -77 314 -77 c 0,45,34
 340 -77 340 -77 356.5 -93.5 c 128,-1,35
EndSplineSet
Validated: 1
Substitution2: "'c2sc' Versalien in Kapit+AOQA-lchen Nachschlagetabelle 26 Subtabelle" uni1EE3.sc
Substitution2: "'aalt' Zugriff auf alle Alternativen Nachschlagetabelle 0 Subtabelle" uni1EE3.sc
Position2: "'cpsp' Spationierung von Versalien Nachschlagetabelle 0 Subtabelle" dx=5 dy=0 dh=10 dv=0
EndChar

StartChar: uni1EDC
Encoding: 1280 7900 206
Width: 646
GlyphClass: 2
Flags: W
AnchorPoint: "Anker-18" 0 0 basechar 0
AnchorPoint: "Anker-17" 550 688 basechar 0
AnchorPoint: "Anker-16" 315 910 basechar 0
AnchorPoint: "Anker-15" 407 0 basechar 0
AnchorPoint: "Anker-14" 314 0 basechar 0
LayerCount: 2
Fore
SplineSet
419 803 m 1,0,-1
 395 755 l 1,1,-1
 201 835 l 1,2,-1
 238 908 l 1,3,-1
 419 803 l 1,0,-1
524 586 m 1,5,6
 578 497 578 497 578 344 c 0,7,8
 578 171 578 171 508 79 c 128,-1,9
 438 -13 438 -13 314 -13 c 0,10,11
 191 -13 191 -13 120.5 77.5 c 128,-1,12
 50 168 50 168 50 343 c 0,13,14
 50 458 50 458 82.5 538.5 c 128,-1,15
 115 619 115 619 174.5 660 c 128,-1,16
 234 701 234 701 314 701 c 0,17,18
 421 701 421 701 489 632 c 1,19,20
 514 636 514 636 525.5 648.5 c 128,-1,21
 537 661 537 661 537 685 c 0,22,23
 537 721 537 721 524 758 c 1,24,-1
 587 772 l 1,25,26
 604 734 604 734 604 687 c 0,27,4
 604 603 604 603 524 586 c 1,5,6
438 129 m 128,-1,29
 480 196 480 196 480 344 c 0,30,31
 480 491 480 491 437.5 559 c 128,-1,32
 395 627 395 627 314 627 c 0,33,34
 148 627 148 627 148 343 c 0,35,36
 148 62 148 62 314 62 c 0,37,28
 396 62 396 62 438 129 c 128,-1,29
EndSplineSet
Validated: 1
Substitution2: "'c2sc' Versalien in Kapit+AOQA-lchen Nachschlagetabelle 26 Subtabelle" uni1EDD.sc
Substitution2: "'aalt' Zugriff auf alle Alternativen Nachschlagetabelle 0 Subtabelle" uni1EDD.sc
Position2: "'cpsp' Spationierung von Versalien Nachschlagetabelle 0 Subtabelle" dx=5 dy=0 dh=10 dv=0
EndChar

StartChar: uni1EDE
Encoding: 1282 7902 207
Width: 646
GlyphClass: 2
Flags: W
AnchorPoint: "Anker-18" 0 0 basechar 0
AnchorPoint: "Anker-17" 550 688 basechar 0
AnchorPoint: "Anker-16" 325 985 basechar 0
AnchorPoint: "Anker-15" 407 0 basechar 0
AnchorPoint: "Anker-14" 314 0 basechar 0
LayerCount: 2
Fore
SplineSet
280.5 926 m 128,-1,1
 269 923 269 923 254 916 c 1,2,-1
 236 963 l 1,3,4
 275 986 275 986 320 986 c 256,5,6
 365 986 365 986 390.5 961.5 c 128,-1,7
 416 937 416 937 416 897 c 0,8,9
 416 862 416 862 397.5 841 c 128,-1,10
 379 820 379 820 345 814 c 1,11,-1
 345 768 l 1,12,-1
 283 768 l 1,13,-1
 283 848 l 1,14,15
 317 852 317 852 332 861 c 128,-1,16
 347 870 347 870 347 892 c 0,17,18
 347 910 347 910 336.5 919.5 c 128,-1,19
 326 929 326 929 307 929 c 0,20,0
 292 929 292 929 280.5 926 c 128,-1,1
524 586 m 1,22,23
 578 497 578 497 578 344 c 0,24,25
 578 171 578 171 508 79 c 128,-1,26
 438 -13 438 -13 314 -13 c 0,27,28
 191 -13 191 -13 120.5 77.5 c 128,-1,29
 50 168 50 168 50 343 c 0,30,31
 50 458 50 458 82.5 538.5 c 128,-1,32
 115 619 115 619 174.5 660 c 128,-1,33
 234 701 234 701 314 701 c 0,34,35
 421 701 421 701 489 632 c 1,36,37
 514 636 514 636 525.5 648.5 c 128,-1,38
 537 661 537 661 537 685 c 0,39,40
 537 721 537 721 524 758 c 1,41,-1
 587 772 l 1,42,43
 604 734 604 734 604 687 c 0,44,21
 604 603 604 603 524 586 c 1,22,23
438 129 m 128,-1,46
 480 196 480 196 480 344 c 0,47,48
 480 491 480 491 437.5 559 c 128,-1,49
 395 627 395 627 314 627 c 0,50,51
 148 627 148 627 148 343 c 0,52,53
 148 62 148 62 314 62 c 0,54,45
 396 62 396 62 438 129 c 128,-1,46
EndSplineSet
Validated: 1
Substitution2: "'c2sc' Versalien in Kapit+AOQA-lchen Nachschlagetabelle 26 Subtabelle" uni1EDF.sc
Substitution2: "'aalt' Zugriff auf alle Alternativen Nachschlagetabelle 0 Subtabelle" uni1EDF.sc
Position2: "'cpsp' Spationierung von Versalien Nachschlagetabelle 0 Subtabelle" dx=5 dy=0 dh=10 dv=0
EndChar

StartChar: uni1EE0
Encoding: 1284 7904 208
Width: 646
GlyphClass: 2
Flags: W
AnchorPoint: "Anker-18" 0 0 basechar 0
AnchorPoint: "Anker-17" 550 688 basechar 0
AnchorPoint: "Anker-16" 316 896 basechar 0
AnchorPoint: "Anker-15" 407 0 basechar 0
AnchorPoint: "Anker-14" 314 0 basechar 0
LayerCount: 2
Fore
SplineSet
236 819 m 128,-1,1
 225 809 225 809 212 787 c 1,2,-1
 164 810 l 1,3,4
 181 849 181 849 205.5 871.5 c 128,-1,5
 230 894 230 894 260 894 c 0,6,7
 277 894 277 894 291 887.5 c 128,-1,8
 305 881 305 881 322 869 c 0,9,10
 336 859 336 859 346 854.5 c 128,-1,11
 356 850 356 850 367 850 c 0,12,13
 381 850 381 850 392 860 c 128,-1,14
 403 870 403 870 415 893 c 1,15,-1
 464 870 l 1,16,17
 432 785 432 785 368 785 c 0,18,19
 350 785 350 785 336 791.5 c 128,-1,20
 322 798 322 798 303 811 c 0,21,22
 293 818 293 818 282 823.5 c 128,-1,23
 271 829 271 829 262 829 c 0,24,0
 247 829 247 829 236 819 c 128,-1,1
524 586 m 1,26,27
 578 497 578 497 578 344 c 0,28,29
 578 171 578 171 508 79 c 128,-1,30
 438 -13 438 -13 314 -13 c 0,31,32
 191 -13 191 -13 120.5 77.5 c 128,-1,33
 50 168 50 168 50 343 c 0,34,35
 50 458 50 458 82.5 538.5 c 128,-1,36
 115 619 115 619 174.5 660 c 128,-1,37
 234 701 234 701 314 701 c 0,38,39
 421 701 421 701 489 632 c 1,40,41
 514 636 514 636 525.5 648.5 c 128,-1,42
 537 661 537 661 537 685 c 0,43,44
 537 721 537 721 524 758 c 1,45,-1
 587 772 l 1,46,47
 604 734 604 734 604 687 c 0,48,25
 604 603 604 603 524 586 c 1,26,27
438 129 m 128,-1,50
 480 196 480 196 480 344 c 0,51,52
 480 491 480 491 437.5 559 c 128,-1,53
 395 627 395 627 314 627 c 0,54,55
 148 627 148 627 148 343 c 0,56,57
 148 62 148 62 314 62 c 0,58,49
 396 62 396 62 438 129 c 128,-1,50
EndSplineSet
Validated: 1
Substitution2: "'c2sc' Versalien in Kapit+AOQA-lchen Nachschlagetabelle 26 Subtabelle" uni1EE1.sc
Substitution2: "'aalt' Zugriff auf alle Alternativen Nachschlagetabelle 0 Subtabelle" uni1EE1.sc
Position2: "'cpsp' Spationierung von Versalien Nachschlagetabelle 0 Subtabelle" dx=5 dy=0 dh=10 dv=0
EndChar

StartChar: uni01A2
Encoding: 354 418 210
Width: 836
GlyphClass: 2
Flags: W
AnchorPoint: "Anker-18" 0 0 basechar 0
AnchorPoint: "Anker-17" 0 0 basechar 0
AnchorPoint: "Anker-16" 417 688 basechar 0
AnchorPoint: "Anker-15" 0 0 basechar 0
AnchorPoint: "Anker-14" 417 -201 basechar 0
LayerCount: 2
Fore
SplineSet
712.5 662 m 128,-1,1
 752 622 752 622 752 548 c 2,2,-1
 752 -201 l 1,3,-1
 659 -201 l 1,4,-1
 659 552 l 2,5,6
 659 631 659 631 592 631 c 0,7,8
 550 631 550 631 510 607 c 1,9,10
 578 514 578 514 578 344 c 0,11,12
 578 171 578 171 508 79 c 128,-1,13
 438 -13 438 -13 314 -13 c 0,14,15
 191 -13 191 -13 120.5 77.5 c 128,-1,16
 50 168 50 168 50 343 c 0,17,18
 50 458 50 458 82.5 538.5 c 128,-1,19
 115 619 115 619 174.5 660 c 128,-1,20
 234 701 234 701 314 701 c 0,21,22
 402 701 402 701 464 654 c 1,23,24
 496 677 496 677 529.5 689.5 c 128,-1,25
 563 702 563 702 602 702 c 0,26,0
 673 702 673 702 712.5 662 c 128,-1,1
438 129 m 128,-1,28
 480 196 480 196 480 344 c 0,29,30
 480 491 480 491 437.5 559 c 128,-1,31
 395 627 395 627 314 627 c 0,32,33
 148 627 148 627 148 343 c 0,34,35
 148 62 148 62 314 62 c 0,36,27
 396 62 396 62 438 129 c 128,-1,28
EndSplineSet
Validated: 1
Substitution2: "'c2sc' Versalien in Kapit+AOQA-lchen Nachschlagetabelle 26 Subtabelle" uni01A3.sc
Substitution2: "'aalt' Zugriff auf alle Alternativen Nachschlagetabelle 0 Subtabelle" uni01A3.sc
Position2: "'cpsp' Spationierung von Versalien Nachschlagetabelle 0 Subtabelle" dx=5 dy=0 dh=10 dv=0
EndChar

StartChar: uni1E50
Encoding: 1187 7760 214
Width: 628
GlyphClass: 2
Flags: W
AnchorPoint: "Anker-18" 0 0 basechar 0
AnchorPoint: "Anker-17" 503 688 basechar 0
AnchorPoint: "Anker-16" 321 1027 basechar 0
AnchorPoint: "Anker-15" 407 0 basechar 0
AnchorPoint: "Anker-14" 314 0 basechar 0
LayerCount: 2
Fore
SplineSet
244 1025 m 1,0,-1
 425 920 l 1,1,-1
 401 872 l 1,2,-1
 207 952 l 1,3,-1
 244 1025 l 1,0,-1
435 761 m 1,4,-1
 193 761 l 1,5,-1
 193 827 l 1,6,-1
 435 827 l 1,7,-1
 435 761 l 1,4,-1
507.5 610.5 m 128,-1,9
 578 520 578 520 578 344 c 0,10,11
 578 171 578 171 508 79 c 128,-1,12
 438 -13 438 -13 314 -13 c 0,13,14
 191 -13 191 -13 120.5 77.5 c 128,-1,15
 50 168 50 168 50 343 c 0,16,17
 50 458 50 458 82.5 538.5 c 128,-1,18
 115 619 115 619 174.5 660 c 128,-1,19
 234 701 234 701 314 701 c 0,20,8
 437 701 437 701 507.5 610.5 c 128,-1,9
148 343 m 0,22,23
 148 62 148 62 314 62 c 0,24,25
 396 62 396 62 438 129 c 128,-1,26
 480 196 480 196 480 344 c 0,27,28
 480 491 480 491 437.5 559 c 128,-1,29
 395 627 395 627 314 627 c 0,30,21
 148 627 148 627 148 343 c 0,22,23
EndSplineSet
Validated: 1
Substitution2: "'c2sc' Versalien in Kapit+AOQA-lchen Nachschlagetabelle 26 Subtabelle" uni1E51.sc
Substitution2: "'aalt' Zugriff auf alle Alternativen Nachschlagetabelle 0 Subtabelle" uni1E51.sc
Position2: "'cpsp' Spationierung von Versalien Nachschlagetabelle 0 Subtabelle" dx=5 dy=0 dh=10 dv=0
EndChar

StartChar: uniA7B6
Encoding: 1680 42934 215
Width: 774
GlyphClass: 2
Flags: W
AnchorPoint: "Anker-18" 0 0 basechar 0
AnchorPoint: "Anker-17" 0 0 basechar 0
AnchorPoint: "Anker-16" 387 688 basechar 0
AnchorPoint: "Anker-15" 0 0 basechar 0
AnchorPoint: "Anker-14" 387 0 basechar 0
LayerCount: 2
Fore
SplineSet
699.5 511.5 m 128,-1,1
 718 421 718 421 718 296 c 0,2,3
 718 132 718 132 668.5 59.5 c 128,-1,4
 619 -13 619 -13 529 -13 c 0,5,6
 470 -13 470 -13 434.5 15.5 c 128,-1,7
 399 44 399 44 385 101 c 1,8,9
 358 -13 358 -13 245 -13 c 0,10,11
 152 -13 152 -13 104 59.5 c 128,-1,12
 56 132 56 132 56 297 c 0,13,14
 56 420 56 420 74.5 509.5 c 128,-1,15
 93 599 93 599 125 688 c 1,16,-1
 214 688 l 1,17,18
 181 592 181 592 165.5 503.5 c 128,-1,19
 150 415 150 415 150 300 c 0,20,21
 150 210 150 210 161 158 c 128,-1,22
 172 106 172 106 195 84 c 128,-1,23
 218 62 218 62 254 62 c 0,24,25
 295 62 295 62 317 88 c 128,-1,26
 339 114 339 114 339 176 c 2,27,-1
 339 398 l 1,28,-1
 432 398 l 1,29,-1
 432 176 l 2,30,31
 432 115 432 115 454.5 88 c 128,-1,32
 477 61 477 61 519 61 c 0,33,34
 553 61 553 61 576 80.5 c 128,-1,35
 599 100 599 100 612 152 c 128,-1,36
 625 204 625 204 625 298 c 0,37,38
 625 412 625 412 608.5 500.5 c 128,-1,39
 592 589 592 589 559 688 c 1,40,-1
 649 688 l 1,41,0
 681 602 681 602 699.5 511.5 c 128,-1,1
EndSplineSet
Validated: 1
Substitution2: "'c2sc' Versalien in Kapit+AOQA-lchen Nachschlagetabelle 26 Subtabelle" uniA7B6.sc
Substitution2: "'aalt' Zugriff auf alle Alternativen Nachschlagetabelle 0 Subtabelle" uniA7B6.sc
Position2: "'cpsp' Spationierung von Versalien Nachschlagetabelle 0 Subtabelle" dx=5 dy=0 dh=10 dv=0
EndChar

StartChar: uni01EA
Encoding: 426 490 216
Width: 628
GlyphClass: 2
Flags: W
AnchorPoint: "Anker-18" 0 0 basechar 0
AnchorPoint: "Anker-17" 503 688 basechar 0
AnchorPoint: "Anker-16" 314 688 basechar 0
AnchorPoint: "Anker-15" 407 0 basechar 0
AnchorPoint: "Anker-14" 314 0 basechar 0
LayerCount: 2
Fore
SplineSet
312.5 -56 m 128,-1,1
 289 -82 289 -82 289 -114 c 0,2,3
 289 -163 289 -163 342 -163 c 0,4,5
 365 -163 365 -163 395 -157 c 1,6,-1
 388 -221 l 1,7,8
 355 -228 355 -228 331 -228 c 0,9,10
 278 -228 278 -228 247.5 -201 c 128,-1,11
 217 -174 217 -174 217 -128 c 0,12,13
 217 -58 217 -58 288 -12 c 1,14,15
 176 -3 176 -3 113 87.5 c 128,-1,16
 50 178 50 178 50 343 c 0,17,18
 50 458 50 458 82.5 538.5 c 128,-1,19
 115 619 115 619 174.5 660 c 128,-1,20
 234 701 234 701 314 701 c 0,21,22
 437 701 437 701 507.5 610.5 c 128,-1,23
 578 520 578 520 578 344 c 0,24,25
 578 202 578 202 530.5 114 c 128,-1,26
 483 26 483 26 396 -1 c 1,27,0
 336 -30 336 -30 312.5 -56 c 128,-1,1
314 62 m 0,29,30
 396 62 396 62 438 129 c 128,-1,31
 480 196 480 196 480 344 c 0,32,33
 480 491 480 491 437.5 559 c 128,-1,34
 395 627 395 627 314 627 c 0,35,36
 148 627 148 627 148 343 c 0,37,28
 148 62 148 62 314 62 c 0,29,30
EndSplineSet
Validated: 1
Substitution2: "'c2sc' Versalien in Kapit+AOQA-lchen Nachschlagetabelle 26 Subtabelle" uni01EB.sc
Substitution2: "'aalt' Zugriff auf alle Alternativen Nachschlagetabelle 0 Subtabelle" uni01EB.sc
Position2: "'cpsp' Spationierung von Versalien Nachschlagetabelle 0 Subtabelle" dx=5 dy=0 dh=10 dv=0
EndChar

StartChar: uni01EC
Encoding: 428 492 217
Width: 628
GlyphClass: 2
Flags: W
AnchorPoint: "Anker-18" 0 0 basechar 0
AnchorPoint: "Anker-17" 503 688 basechar 0
AnchorPoint: "Anker-16" 316 862 basechar 0
AnchorPoint: "Anker-15" 407 0 basechar 0
AnchorPoint: "Anker-14" 314 0 basechar 0
LayerCount: 2
Fore
SplineSet
435 861 m 1,0,-1
 435 795 l 1,1,-1
 193 795 l 1,2,-1
 193 861 l 1,3,-1
 435 861 l 1,0,-1
312.5 -56 m 128,-1,5
 289 -82 289 -82 289 -114 c 0,6,7
 289 -163 289 -163 342 -163 c 0,8,9
 365 -163 365 -163 395 -157 c 1,10,-1
 388 -221 l 1,11,12
 355 -228 355 -228 331 -228 c 0,13,14
 278 -228 278 -228 247.5 -201 c 128,-1,15
 217 -174 217 -174 217 -128 c 0,16,17
 217 -58 217 -58 288 -12 c 1,18,19
 176 -3 176 -3 113 87.5 c 128,-1,20
 50 178 50 178 50 343 c 0,21,22
 50 458 50 458 82.5 538.5 c 128,-1,23
 115 619 115 619 174.5 660 c 128,-1,24
 234 701 234 701 314 701 c 0,25,26
 437 701 437 701 507.5 610.5 c 128,-1,27
 578 520 578 520 578 344 c 0,28,29
 578 202 578 202 530.5 114 c 128,-1,30
 483 26 483 26 396 -1 c 1,31,4
 336 -30 336 -30 312.5 -56 c 128,-1,5
314 62 m 0,33,34
 396 62 396 62 438 129 c 128,-1,35
 480 196 480 196 480 344 c 0,36,37
 480 491 480 491 437.5 559 c 128,-1,38
 395 627 395 627 314 627 c 0,39,40
 148 627 148 627 148 343 c 0,41,32
 148 62 148 62 314 62 c 0,33,34
EndSplineSet
Validated: 1
Substitution2: "'c2sc' Versalien in Kapit+AOQA-lchen Nachschlagetabelle 26 Subtabelle" uni01ED.sc
Substitution2: "'aalt' Zugriff auf alle Alternativen Nachschlagetabelle 0 Subtabelle" uni01ED.sc
Position2: "'cpsp' Spationierung von Versalien Nachschlagetabelle 0 Subtabelle" dx=5 dy=0 dh=10 dv=0
EndChar

StartChar: uni0186
Encoding: 326 390 218
Width: 508
GlyphClass: 2
Flags: W
AnchorPoint: "Anker-18" 194 347 basechar 0
AnchorPoint: "Anker-17" 0 0 basechar 0
AnchorPoint: "Anker-16" 209 688 basechar 0
AnchorPoint: "Anker-15" 0 0 basechar 0
AnchorPoint: "Anker-14" 209 0 basechar 0
LayerCount: 2
Fore
SplineSet
392 611 m 128,-1,1
 458 521 458 521 458 345 c 0,2,3
 458 229 458 229 424.5 148.5 c 128,-1,4
 391 68 391 68 332 27.5 c 128,-1,5
 273 -13 273 -13 196 -13 c 0,6,7
 92 -13 92 -13 15 64 c 1,8,-1
 62 118 l 1,9,10
 97 91 97 91 125 78 c 128,-1,11
 153 65 153 65 193 65 c 0,12,13
 269 65 269 65 314.5 132.5 c 128,-1,14
 360 200 360 200 360 345 c 0,15,16
 360 626 360 626 205 626 c 0,17,18
 166 626 166 626 133.5 614 c 128,-1,19
 101 602 101 602 69 577 c 1,20,-1
 23 633 l 1,21,22
 63 667 63 667 108 684 c 128,-1,23
 153 701 153 701 209 701 c 0,24,0
 326 701 326 701 392 611 c 128,-1,1
EndSplineSet
Validated: 1
Substitution2: "'c2sc' Versalien in Kapit+AOQA-lchen Nachschlagetabelle 26 Subtabelle" uni0254.sc
Substitution2: "'aalt' Zugriff auf alle Alternativen Nachschlagetabelle 0 Subtabelle" uni0254.sc
Position2: "'cpsp' Spationierung von Versalien Nachschlagetabelle 0 Subtabelle" dx=5 dy=0 dh=10 dv=0
EndChar

StartChar: Oslash
Encoding: 152 216 219
Width: 628
GlyphClass: 2
Flags: W
AnchorPoint: "Anker-18" 0 0 basechar 0
AnchorPoint: "Anker-17" 0 0 basechar 0
AnchorPoint: "Anker-16" 310 706 basechar 0
AnchorPoint: "Anker-15" 0 0 basechar 0
AnchorPoint: "Anker-14" 314 0 basechar 0
LayerCount: 2
Fore
SplineSet
542.5 549.5 m 128,-1,1
 578 468 578 468 578 344 c 0,2,3
 578 171 578 171 508 79 c 128,-1,4
 438 -13 438 -13 314 -13 c 0,5,6
 284 -13 284 -13 255 -7 c 1,7,-1
 225 -125 l 1,8,-1
 151 -105 l 1,9,-1
 186 19 l 1,10,11
 121 57 121 57 85.5 139 c 128,-1,12
 50 221 50 221 50 343 c 0,13,14
 50 458 50 458 82.5 538.5 c 128,-1,15
 115 619 115 619 174.5 660 c 128,-1,16
 234 701 234 701 314 701 c 0,17,18
 341 701 341 701 371 696 c 1,19,-1
 403 817 l 1,20,-1
 477 797 l 1,21,-1
 441 669 l 1,22,0
 507 631 507 631 542.5 549.5 c 128,-1,1
188.5 559 m 128,-1,24
 145 491 145 491 145 343 c 0,25,26
 145 149 145 149 220 90 c 1,27,-1
 359 622 l 1,28,29
 336 627 336 627 314 627 c 0,30,23
 232 627 232 627 188.5 559 c 128,-1,24
407 599 m 1,32,-1
 268 66 l 1,33,34
 291 61 291 61 314 61 c 0,35,36
 398 61 398 61 440 129.5 c 128,-1,37
 482 198 482 198 482 351 c 0,38,31
 482 541 482 541 407 599 c 1,32,-1
EndSplineSet
Validated: 1
Substitution2: "'c2sc' Versalien in Kapit+AOQA-lchen Nachschlagetabelle 26 Subtabelle" oslash.sc
Substitution2: "'aalt' Zugriff auf alle Alternativen Nachschlagetabelle 0 Subtabelle" oslash.sc
Position2: "'cpsp' Spationierung von Versalien Nachschlagetabelle 0 Subtabelle" dx=5 dy=0 dh=10 dv=0
EndChar

StartChar: OE
Encoding: 274 338 224
Width: 801
GlyphClass: 2
Flags: W
AnchorPoint: "Anker-18" 0 0 basechar 0
AnchorPoint: "Anker-17" 0 0 basechar 0
AnchorPoint: "Anker-16" 405 688 basechar 0
AnchorPoint: "Anker-15" 0 0 basechar 0
AnchorPoint: "Anker-14" 405 0 basechar 0
LayerCount: 2
Fore
SplineSet
762 0 m 1,0,-1
 373 0 l 1,1,2
 341 -13 341 -13 302 -13 c 0,3,4
 227 -13 227 -13 170 28 c 128,-1,5
 113 69 113 69 81.5 149 c 128,-1,6
 50 229 50 229 50 343 c 0,7,8
 50 456 50 456 82 536.5 c 128,-1,9
 114 617 114 617 171 659 c 128,-1,10
 228 701 228 701 302 701 c 0,11,12
 343 701 343 701 376 688 c 1,13,-1
 758 688 l 1,14,-1
 748 616 l 1,15,-1
 473 616 l 1,16,17
 549 537 549 537 559 389 c 1,18,-1
 716 389 l 1,19,-1
 716 316 l 1,20,-1
 559 316 l 1,21,22
 553 160 553 160 471 73 c 1,23,-1
 762 73 l 1,24,-1
 762 0 l 1,0,-1
190 130.5 m 128,-1,26
 232 62 232 62 305 62 c 0,27,28
 462 62 462 62 462 346 c 0,29,30
 462 490 462 490 420.5 558.5 c 128,-1,31
 379 627 379 627 305 627 c 0,32,33
 232 627 232 627 190 558 c 128,-1,34
 148 489 148 489 148 343 c 0,35,25
 148 199 148 199 190 130.5 c 128,-1,26
EndSplineSet
Validated: 1
Substitution2: "'c2sc' Versalien in Kapit+AOQA-lchen Nachschlagetabelle 26 Subtabelle" oe.sc
Substitution2: "'aalt' Zugriff auf alle Alternativen Nachschlagetabelle 0 Subtabelle" oe.sc
Position2: "'cpsp' Spationierung von Versalien Nachschlagetabelle 0 Subtabelle" dx=5 dy=0 dh=10 dv=0
EndChar

StartChar: P
Encoding: 49 80 225
Width: 523
GlyphClass: 2
Flags: W
AnchorPoint: "Anker-18" 0 0 basechar 0
AnchorPoint: "Anker-17" 0 0 basechar 0
AnchorPoint: "Anker-16" 264 688 basechar 0
AnchorPoint: "Anker-15" 0 0 basechar 0
AnchorPoint: "Anker-14" 132 0 basechar 0
LayerCount: 2
Fore
SplineSet
430 635 m 128,-1,1
 495 582 495 582 495 476 c 0,2,3
 495 364 495 364 428.5 309.5 c 128,-1,4
 362 255 362 255 244 255 c 2,5,-1
 178 255 l 1,6,-1
 178 0 l 1,7,-1
 85 0 l 1,8,-1
 85 688 l 1,9,-1
 241 688 l 2,10,0
 365 688 365 688 430 635 c 128,-1,1
359 360 m 128,-1,12
 398 393 398 393 398 475 c 0,13,14
 398 550 398 550 359.5 583.5 c 128,-1,15
 321 617 321 617 242 617 c 2,16,-1
 178 617 l 1,17,-1
 178 327 l 1,18,-1
 241 327 l 2,19,11
 320 327 320 327 359 360 c 128,-1,12
EndSplineSet
Validated: 1
Substitution2: "'c2sc' Versalien in Kapit+AOQA-lchen Nachschlagetabelle 26 Subtabelle" p.sc
Substitution2: "'aalt' Zugriff auf alle Alternativen Nachschlagetabelle 0 Subtabelle" p.sc
Position2: "'cpsp' Spationierung von Versalien Nachschlagetabelle 0 Subtabelle" dx=5 dy=0 dh=10 dv=0
EndChar

StartChar: uni01A4
Encoding: 356 420 228
Width: 606
GlyphClass: 2
Flags: W
AnchorPoint: "Anker-18" 0 0 basechar 0
AnchorPoint: "Anker-17" 0 0 basechar 0
AnchorPoint: "Anker-16" 347 688 basechar 0
AnchorPoint: "Anker-15" 0 0 basechar 0
AnchorPoint: "Anker-14" 215 0 basechar 0
LayerCount: 2
Fore
SplineSet
513 635 m 128,-1,1
 578 582 578 582 578 476 c 0,2,3
 578 364 578 364 511.5 309.5 c 128,-1,4
 445 255 445 255 327 255 c 2,5,-1
 261 255 l 1,6,-1
 261 0 l 1,7,-1
 168 0 l 1,8,-1
 168 616 l 1,9,-1
 143 616 l 2,10,11
 88 616 88 616 88 562 c 0,12,13
 88 544 88 544 93 527.5 c 128,-1,14
 98 511 98 511 107 489 c 1,15,-1
 47 460 l 1,16,17
 29 486 29 486 19.5 511 c 128,-1,18
 10 536 10 536 10 569 c 0,19,20
 10 623 10 623 45 655.5 c 128,-1,21
 80 688 80 688 147 688 c 2,22,-1
 324 688 l 2,23,0
 448 688 448 688 513 635 c 128,-1,1
442 360 m 128,-1,25
 481 393 481 393 481 475 c 0,26,27
 481 550 481 550 442.5 583.5 c 128,-1,28
 404 617 404 617 325 617 c 2,29,-1
 261 617 l 1,30,-1
 261 327 l 1,31,-1
 324 327 l 2,32,24
 403 327 403 327 442 360 c 128,-1,25
EndSplineSet
Validated: 1
Substitution2: "'c2sc' Versalien in Kapit+AOQA-lchen Nachschlagetabelle 26 Subtabelle" uni01A5.sc
Substitution2: "'aalt' Zugriff auf alle Alternativen Nachschlagetabelle 0 Subtabelle" uni01A5.sc
Position2: "'cpsp' Spationierung von Versalien Nachschlagetabelle 0 Subtabelle" dx=5 dy=0 dh=10 dv=0
EndChar

StartChar: Thorn
Encoding: 158 222 229
Width: 523
GlyphClass: 2
Flags: W
AnchorPoint: "Anker-18" 0 0 basechar 0
AnchorPoint: "Anker-17" 0 0 basechar 0
AnchorPoint: "Anker-16" 264 688 basechar 0
AnchorPoint: "Anker-15" 0 0 basechar 0
AnchorPoint: "Anker-14" 264 0 basechar 0
LayerCount: 2
Fore
SplineSet
430.5 516.5 m 128,-1,1
 495 463 495 463 495 355 c 0,2,3
 495 240 495 240 429.5 184.5 c 128,-1,4
 364 129 364 129 248 129 c 2,5,-1
 178 129 l 1,6,-1
 178 0 l 1,7,-1
 85 0 l 1,8,-1
 85 688 l 1,9,-1
 178 688 l 1,10,-1
 178 570 l 1,11,-1
 245 570 l 2,12,0
 366 570 366 570 430.5 516.5 c 128,-1,1
359.5 235.5 m 128,-1,14
 399 270 399 270 399 354 c 0,15,16
 399 431 399 431 360 465 c 128,-1,17
 321 499 321 499 243 499 c 2,18,-1
 178 499 l 1,19,-1
 178 201 l 1,20,-1
 242 201 l 2,21,13
 320 201 320 201 359.5 235.5 c 128,-1,14
EndSplineSet
Validated: 1
Substitution2: "'c2sc' Versalien in Kapit+AOQA-lchen Nachschlagetabelle 26 Subtabelle" thorn.sc
Substitution2: "'aalt' Zugriff auf alle Alternativen Nachschlagetabelle 0 Subtabelle" thorn.sc
Position2: "'cpsp' Spationierung von Versalien Nachschlagetabelle 0 Subtabelle" dx=5 dy=0 dh=10 dv=0
EndChar

StartChar: Q
Encoding: 50 81 230
Width: 628
GlyphClass: 2
Flags: W
AnchorPoint: "Anker-18" 0 0 basechar 0
AnchorPoint: "Anker-17" 0 0 basechar 0
AnchorPoint: "Anker-16" 311 688 basechar 0
AnchorPoint: "Anker-15" 0 0 basechar 0
AnchorPoint: "Anker-14" 311 0 basechar 0
LayerCount: 2
Fore
SplineSet
608 -34 m 1,1,-1
 548 -107 l 1,2,3
 499 -55 499 -55 446 -32.5 c 128,-1,4
 393 -10 393 -10 310 -10 c 0,5,6
 232 -10 232 -10 173.5 30 c 128,-1,7
 115 70 115 70 82.5 149 c 128,-1,8
 50 228 50 228 50 343 c 256,9,10
 50 458 50 458 82.5 538.5 c 128,-1,11
 115 619 115 619 174.5 660 c 128,-1,12
 234 701 234 701 314 701 c 0,13,14
 437 701 437 701 507.5 610 c 128,-1,15
 578 519 578 519 578 344 c 0,16,17
 578 215 578 215 538 142.5 c 128,-1,18
 498 70 498 70 425 34 c 1,19,0
 530 33 530 33 608 -34 c 1,1,-1
314 62 m 0,21,22
 396 62 396 62 438 129 c 128,-1,23
 480 196 480 196 480 344 c 256,24,25
 480 492 480 492 437.5 559.5 c 128,-1,26
 395 627 395 627 314 627 c 0,27,28
 148 627 148 627 148 343 c 0,29,20
 148 62 148 62 314 62 c 0,21,22
EndSplineSet
Validated: 1
Substitution2: "'c2sc' Versalien in Kapit+AOQA-lchen Nachschlagetabelle 26 Subtabelle" q.sc
Substitution2: "'aalt' Zugriff auf alle Alternativen Nachschlagetabelle 0 Subtabelle" q.sc
Position2: "'cpsp' Spationierung von Versalien Nachschlagetabelle 0 Subtabelle" dx=5 dy=0 dh=10 dv=0
EndChar

StartChar: uni024A
Encoding: 522 586 231
Width: 604
GlyphClass: 2
Flags: W
AnchorPoint: "Anker-18" 0 0 basechar 0
AnchorPoint: "Anker-17" 0 0 basechar 0
AnchorPoint: "Anker-16" 302 688 basechar 0
AnchorPoint: "Anker-15" 0 0 basechar 0
AnchorPoint: "Anker-14" 302 -202 basechar 0
LayerCount: 2
Fore
SplineSet
674 -174 m 1,0,1
 627 -211 627 -211 566 -211 c 0,2,3
 503 -211 503 -211 464.5 -174.5 c 128,-1,4
 426 -138 426 -138 426 -68 c 2,5,-1
 426 45 l 1,6,7
 370 -13 370 -13 286 -13 c 0,8,9
 219 -13 219 -13 165.5 24.5 c 128,-1,10
 112 62 112 62 81 139 c 128,-1,11
 50 216 50 216 50 330 c 0,12,13
 50 449 50 449 81.5 532.5 c 128,-1,14
 113 616 113 616 167.5 658.5 c 128,-1,15
 222 701 222 701 289 701 c 0,16,17
 374 701 374 701 430 640 c 1,18,-1
 436 688 l 1,19,-1
 519 688 l 1,20,-1
 519 -71 l 2,21,22
 519 -138 519 -138 573 -138 c 0,23,24
 593 -138 593 -138 607.5 -133.5 c 128,-1,25
 622 -129 622 -129 638 -119 c 1,26,-1
 674 -174 l 1,0,1
426 120 m 1,28,-1
 426 569 l 1,29,30
 378 627 378 627 305 627 c 256,31,32
 232 627 232 627 190 556 c 128,-1,33
 148 485 148 485 148 330 c 0,34,35
 148 61 148 61 300 61 c 0,36,27
 376 61 376 61 426 120 c 1,28,-1
EndSplineSet
Validated: 1
Substitution2: "'c2sc' Versalien in Kapit+AOQA-lchen Nachschlagetabelle 26 Subtabelle" uni024B.sc
Substitution2: "'aalt' Zugriff auf alle Alternativen Nachschlagetabelle 0 Subtabelle" uni024B.sc
Position2: "'cpsp' Spationierung von Versalien Nachschlagetabelle 0 Subtabelle" dx=5 dy=0 dh=10 dv=0
EndChar

StartChar: R
Encoding: 51 82 232
Width: 545
GlyphClass: 2
Flags: W
AnchorPoint: "Anker-18" 0 0 basechar 0
AnchorPoint: "Anker-17" 0 0 basechar 0
AnchorPoint: "Anker-16" 269 688 basechar 0
AnchorPoint: "Anker-15" 0 0 basechar 0
AnchorPoint: "Anker-14" 279 0 basechar 0
LayerCount: 2
Fore
SplineSet
423 0 m 1,0,-1
 275 293 l 1,1,-1
 269 293 l 1,2,-1
 178 293 l 1,3,-1
 178 0 l 1,4,-1
 85 0 l 1,5,-1
 85 688 l 1,6,-1
 246 688 l 2,7,8
 492 688 492 688 492 494 c 0,9,10
 492 426 492 426 459 379 c 128,-1,11
 426 332 426 332 362 310 c 1,12,-1
 526 0 l 1,13,-1
 423 0 l 1,0,-1
360 395.5 m 128,-1,15
 395 427 395 427 395 494 c 0,16,17
 395 557 395 557 359.5 587 c 128,-1,18
 324 617 324 617 244 617 c 2,19,-1
 178 617 l 1,20,-1
 178 364 l 1,21,-1
 253 364 l 2,22,14
 325 364 325 364 360 395.5 c 128,-1,15
EndSplineSet
Validated: 1
Substitution2: "'c2sc' Versalien in Kapit+AOQA-lchen Nachschlagetabelle 26 Subtabelle" r.sc
Substitution2: "'aalt' Zugriff auf alle Alternativen Nachschlagetabelle 0 Subtabelle" r.sc
Position2: "'cpsp' Spationierung von Versalien Nachschlagetabelle 0 Subtabelle" dx=5 dy=0 dh=10 dv=0
EndChar

StartChar: uni024C
Encoding: 524 588 239
Width: 553
GlyphClass: 2
Flags: W
AnchorPoint: "Anker-18" 0 0 basechar 0
AnchorPoint: "Anker-17" 0 0 basechar 0
AnchorPoint: "Anker-16" 277 688 basechar 0
AnchorPoint: "Anker-15" 0 0 basechar 0
AnchorPoint: "Anker-14" 287 0 basechar 0
LayerCount: 2
Fore
SplineSet
431 0 m 1,0,-1
 283 293 l 1,1,-1
 277 293 l 1,2,-1
 186 293 l 1,3,-1
 186 0 l 1,4,-1
 93 0 l 1,5,-1
 93 293 l 1,6,-1
 20 293 l 1,7,-1
 20 364 l 1,8,-1
 93 364 l 1,9,-1
 93 688 l 1,10,-1
 254 688 l 2,11,12
 500 688 500 688 500 494 c 0,13,14
 500 426 500 426 467 379 c 128,-1,15
 434 332 434 332 370 310 c 1,16,-1
 534 0 l 1,17,-1
 431 0 l 1,0,-1
368 395.5 m 128,-1,19
 403 427 403 427 403 494 c 0,20,21
 403 557 403 557 367.5 587 c 128,-1,22
 332 617 332 617 252 617 c 2,23,-1
 186 617 l 1,24,-1
 186 364 l 1,25,-1
 261 364 l 2,26,18
 333 364 333 364 368 395.5 c 128,-1,19
EndSplineSet
Validated: 1
Substitution2: "'c2sc' Versalien in Kapit+AOQA-lchen Nachschlagetabelle 26 Subtabelle" uni024D.sc
Substitution2: "'aalt' Zugriff auf alle Alternativen Nachschlagetabelle 0 Subtabelle" uni024D.sc
Position2: "'cpsp' Spationierung von Versalien Nachschlagetabelle 0 Subtabelle" dx=5 dy=0 dh=10 dv=0
EndChar

StartChar: uni2C64
Encoding: 1661 11364 240
Width: 545
GlyphClass: 2
Flags: W
AnchorPoint: "Anker-18" 0 0 basechar 0
AnchorPoint: "Anker-17" 0 0 basechar 0
AnchorPoint: "Anker-16" 269 688 basechar 0
AnchorPoint: "Anker-15" 0 0 basechar 0
AnchorPoint: "Anker-14" 279 0 basechar 0
LayerCount: 2
Fore
SplineSet
177 0 m 1,0,-1
 177 -71 l 2,1,2
 177 -138 177 -138 231 -138 c 0,3,4
 251 -138 251 -138 265.5 -133.5 c 128,-1,5
 280 -129 280 -129 296 -119 c 1,6,-1
 332 -174 l 1,7,8
 285 -211 285 -211 224 -211 c 0,9,10
 161 -211 161 -211 122.5 -174.5 c 128,-1,11
 84 -138 84 -138 84 -68 c 2,12,-1
 84 1 l 1,13,-1
 85 1 l 1,14,-1
 85 688 l 1,15,-1
 246 688 l 2,16,17
 492 688 492 688 492 494 c 0,18,19
 492 426 492 426 459 379 c 128,-1,20
 426 332 426 332 362 310 c 1,21,-1
 526 0 l 1,22,-1
 423 0 l 1,23,-1
 275 293 l 1,24,-1
 269 293 l 1,25,-1
 178 293 l 1,26,-1
 178 0 l 1,27,-1
 177 0 l 1,0,-1
178 617 m 1,28,-1
 178 364 l 1,29,-1
 253 364 l 2,30,31
 325 364 325 364 360 395.5 c 128,-1,32
 395 427 395 427 395 494 c 0,33,34
 395 557 395 557 359.5 587 c 128,-1,35
 324 617 324 617 244 617 c 2,36,-1
 178 617 l 1,28,-1
EndSplineSet
Validated: 1
Substitution2: "'ss01' Stilgruppe 1 Nachschlagetabelle 33 Subtabelle" uni2C64.ss01
Substitution2: "'salt' Stilistische Alternativformen Nachschlagetabelle 32 Subtabelle" uni2C64.ss01
Substitution2: "'c2sc' Versalien in Kapit+AOQA-lchen Nachschlagetabelle 26 Subtabelle" uni2C64.sc
AlternateSubs2: "'aalt' Zugriff auf alle Alternativen Nachschlagetabelle 1 Subtabelle" uni2C64.sc uni2C64.ss01
Position2: "'cpsp' Spationierung von Versalien Nachschlagetabelle 0 Subtabelle" dx=5 dy=0 dh=10 dv=0
EndChar

StartChar: uni2C64.ss01
Encoding: 1694 -1 241
Width: 380
GlyphClass: 2
Flags: W
AnchorPoint: "Anker-18" 0 0 basechar 0
AnchorPoint: "Anker-17" 0 0 basechar 0
AnchorPoint: "Anker-16" 192 688 basechar 0
AnchorPoint: "Anker-15" 0 0 basechar 0
AnchorPoint: "Anker-14" 192 -202 basechar 0
LayerCount: 2
Fore
SplineSet
232 -138 m 0,1,2
 252 -138 252 -138 266.5 -133.5 c 128,-1,3
 281 -129 281 -129 297 -119 c 1,4,-1
 333 -174 l 1,5,6
 286 -211 286 -211 225 -211 c 0,7,8
 162 -211 162 -211 123.5 -174.5 c 128,-1,9
 85 -138 85 -138 85 -68 c 2,10,-1
 85 688 l 1,11,-1
 166 688 l 1,12,-1
 172 591 l 1,13,14
 216 700 216 700 321 700 c 0,15,16
 356 700 356 700 381 691 c 1,17,-1
 363 603 l 1,18,19
 340 610 340 610 311 610 c 0,20,21
 260 610 260 610 227.5 575 c 128,-1,22
 195 540 195 540 178 471 c 1,23,-1
 178 -71 l 2,24,0
 178 -138 178 -138 232 -138 c 0,1,2
EndSplineSet
Validated: 1
Position2: "'cpsp' Spationierung von Versalien Nachschlagetabelle 0 Subtabelle" dx=5 dy=0 dh=10 dv=0
EndChar

StartChar: S
Encoding: 52 83 242
Width: 496
GlyphClass: 2
Flags: W
AnchorPoint: "Anker-18" 0 0 basechar 0
AnchorPoint: "Anker-17" 0 0 basechar 0
AnchorPoint: "Anker-16" 251 688 basechar 0
AnchorPoint: "Anker-15" 0 0 basechar 0
AnchorPoint: "Anker-14" 243 0 basechar 0
LayerCount: 2
Fore
SplineSet
354.5 681 m 128,-1,1
 400 661 400 661 440 621 c 1,2,-1
 393 568 l 1,3,4
 359 598 359 598 325.5 612.5 c 128,-1,5
 292 627 292 627 253 627 c 0,6,7
 203 627 203 627 172.5 599.5 c 128,-1,8
 142 572 142 572 142 527 c 0,9,10
 142 497 142 497 154 475.5 c 128,-1,11
 166 454 166 454 195 436.5 c 128,-1,12
 224 419 224 419 277 401 c 0,13,14
 338 379 338 379 377 354 c 128,-1,15
 416 329 416 329 437 290 c 128,-1,16
 458 251 458 251 458 192 c 256,17,18
 458 133 458 133 431 86.5 c 128,-1,19
 404 40 404 40 353.5 13.5 c 128,-1,20
 303 -13 303 -13 235 -13 c 0,21,22
 110 -13 110 -13 22 77 c 1,23,-1
 71 130 l 1,24,25
 108 97 108 97 146.5 79.5 c 128,-1,26
 185 62 185 62 232 62 c 0,27,28
 291 62 291 62 326.5 95.5 c 128,-1,29
 362 129 362 129 362 188 c 0,30,31
 362 239 362 239 333.5 269 c 128,-1,32
 305 299 305 299 229 325 c 0,33,34
 132 359 132 359 89.5 404 c 128,-1,35
 47 449 47 449 47 521 c 0,36,37
 47 572 47 572 72.5 613.5 c 128,-1,38
 98 655 98 655 144 678 c 128,-1,39
 190 701 190 701 248 701 c 0,40,0
 309 701 309 701 354.5 681 c 128,-1,1
EndSplineSet
Validated: 1
Substitution2: "'c2sc' Versalien in Kapit+AOQA-lchen Nachschlagetabelle 26 Subtabelle" s.sc
Substitution2: "'aalt' Zugriff auf alle Alternativen Nachschlagetabelle 0 Subtabelle" s.sc
Position2: "'cpsp' Spationierung von Versalien Nachschlagetabelle 0 Subtabelle" dx=5 dy=0 dh=10 dv=0
EndChar

StartChar: uniA78B
Encoding: 1670 42891 245
Width: 210
GlyphClass: 2
Flags: W
LayerCount: 2
Fore
SplineSet
69 347 m 1,0,-1
 58 688 l 1,1,-1
 152 688 l 1,2,-1
 140 347 l 1,3,-1
 69 347 l 1,0,-1
EndSplineSet
Validated: 1
Position2: "'cpsp' Spationierung von Versalien Nachschlagetabelle 0 Subtabelle" dx=5 dy=0 dh=10 dv=0
EndChar

StartChar: Scedilla
Encoding: 286 350 247
Width: 496
GlyphClass: 2
Flags: W
AnchorPoint: "Anker-18" 0 0 basechar 0
AnchorPoint: "Anker-17" 0 0 basechar 0
AnchorPoint: "Anker-16" 251 688 basechar 0
AnchorPoint: "Anker-15" 0 0 basechar 0
AnchorPoint: "Anker-14" 259 -239 basechar 0
LayerCount: 2
Fore
SplineSet
406.5 55 m 128,-1,1
 355 -1 355 -1 268 -11 c 1,2,-1
 268 -60 l 1,3,4
 312 -65 312 -65 333.5 -86.5 c 128,-1,5
 355 -108 355 -108 355 -143 c 0,6,7
 355 -188 355 -188 323.5 -213.5 c 128,-1,8
 292 -239 292 -239 243 -239 c 0,9,10
 193 -239 193 -239 159 -215 c 1,11,-1
 183 -169 l 1,12,13
 209 -182 209 -182 238 -182 c 0,14,15
 259 -182 259 -182 271.5 -172 c 128,-1,16
 284 -162 284 -162 284 -143 c 0,17,18
 284 -121 284 -121 264.5 -110.5 c 128,-1,19
 245 -100 245 -100 203 -100 c 1,20,-1
 212 -12 l 1,21,22
 104 -5 104 -5 22 77 c 1,23,-1
 71 130 l 1,24,25
 108 97 108 97 146.5 79.5 c 128,-1,26
 185 62 185 62 232 62 c 0,27,28
 291 62 291 62 326.5 95.5 c 128,-1,29
 362 129 362 129 362 188 c 0,30,31
 362 239 362 239 333.5 269 c 128,-1,32
 305 299 305 299 229 325 c 0,33,34
 132 359 132 359 89.5 404 c 128,-1,35
 47 449 47 449 47 521 c 0,36,37
 47 572 47 572 72.5 613.5 c 128,-1,38
 98 655 98 655 144 678 c 128,-1,39
 190 701 190 701 248 701 c 0,40,41
 309 701 309 701 354.5 681 c 128,-1,42
 400 661 400 661 440 621 c 1,43,-1
 393 568 l 1,44,45
 359 598 359 598 325.5 612.5 c 128,-1,46
 292 627 292 627 253 627 c 0,47,48
 203 627 203 627 172.5 599.5 c 128,-1,49
 142 572 142 572 142 527 c 0,50,51
 142 497 142 497 154 475.5 c 128,-1,52
 166 454 166 454 195 436.5 c 128,-1,53
 224 419 224 419 277 401 c 0,54,55
 338 379 338 379 377 354 c 128,-1,56
 416 329 416 329 437 290 c 128,-1,57
 458 251 458 251 458 192 c 0,58,0
 458 111 458 111 406.5 55 c 128,-1,1
EndSplineSet
Validated: 1
Substitution2: "'c2sc' Versalien in Kapit+AOQA-lchen Nachschlagetabelle 26 Subtabelle" scedilla.sc
Substitution2: "'locl' Lokalisierte Formen in Lateinisch Nachschlagetabelle 5 Subtabelle" Scommaaccent
Substitution2: "'locl' Lokalisierte Formen in Lateinisch Nachschlagetabelle 4 Subtabelle" Scommaaccent
AlternateSubs2: "'aalt' Zugriff auf alle Alternativen Nachschlagetabelle 1 Subtabelle" Scommaaccent scedilla.sc
Position2: "'cpsp' Spationierung von Versalien Nachschlagetabelle 0 Subtabelle" dx=5 dy=0 dh=10 dv=0
EndChar

StartChar: uni1E9E
Encoding: 1219 7838 252
Width: 593
GlyphClass: 2
Flags: W
LayerCount: 2
Fore
SplineSet
516 635 m 1,1,-1
 516 579 l 1,2,-1
 360 388 l 1,3,4
 556 360 556 360 556 191 c 0,5,6
 556 96 556 96 500.5 41.5 c 128,-1,7
 445 -13 445 -13 355 -13 c 0,8,9
 291 -13 291 -13 246 11 c 1,10,-1
 275 76 l 1,11,12
 307 62 307 62 346 62 c 0,13,14
 399 62 399 62 428.5 94.5 c 128,-1,15
 458 127 458 127 458 191 c 0,16,17
 458 260 458 260 414 293 c 128,-1,18
 370 326 370 326 277 331 c 1,19,-1
 277 397 l 1,20,-1
 435 595 l 1,21,22
 359 627 359 627 291 627 c 0,23,24
 235 627 235 627 206.5 595 c 128,-1,25
 178 563 178 563 178 501 c 2,26,-1
 178 0 l 1,27,-1
 85 0 l 1,28,-1
 85 501 l 2,29,30
 85 594 85 594 137.5 647.5 c 128,-1,31
 190 701 190 701 285 701 c 0,32,0
 395 701 395 701 516 635 c 1,1,-1
EndSplineSet
Validated: 1
Substitution2: "'c2sc' Versalien in Kapit+AOQA-lchen Nachschlagetabelle 26 Subtabelle" germandbls.sc
Substitution2: "'aalt' Zugriff auf alle Alternativen Nachschlagetabelle 0 Subtabelle" germandbls.sc
Position2: "'cpsp' Spationierung von Versalien Nachschlagetabelle 0 Subtabelle" dx=5 dy=0 dh=10 dv=0
EndChar

StartChar: T
Encoding: 53 84 254
Width: 463
GlyphClass: 2
Flags: W
AnchorPoint: "Anker-18" 232 346 basechar 0
AnchorPoint: "Anker-17" 0 0 basechar 0
AnchorPoint: "Anker-16" 232 688 basechar 0
AnchorPoint: "Anker-15" 0 0 basechar 0
AnchorPoint: "Anker-14" 232 0 basechar 0
LayerCount: 2
Fore
SplineSet
458 688 m 1,0,-1
 447 612 l 1,1,-1
 278 612 l 1,2,-1
 278 0 l 1,3,-1
 185 0 l 1,4,-1
 185 612 l 1,5,-1
 11 612 l 1,6,-1
 11 688 l 1,7,-1
 458 688 l 1,0,-1
EndSplineSet
Validated: 1
Substitution2: "'c2sc' Versalien in Kapit+AOQA-lchen Nachschlagetabelle 26 Subtabelle" t.sc
Substitution2: "'aalt' Zugriff auf alle Alternativen Nachschlagetabelle 0 Subtabelle" t.sc
Position2: "'cpsp' Spationierung von Versalien Nachschlagetabelle 0 Subtabelle" dx=5 dy=0 dh=10 dv=0
EndChar

StartChar: Tbar
Encoding: 294 358 255
Width: 463
GlyphClass: 2
Flags: W
AnchorPoint: "Anker-18" 232 345 basechar 0
AnchorPoint: "Anker-17" 0 0 basechar 0
AnchorPoint: "Anker-16" 232 687 basechar 0
AnchorPoint: "Anker-15" 0 0 basechar 0
AnchorPoint: "Anker-14" 232 -1 basechar 0
LayerCount: 2
Fore
SplineSet
447 611 m 1,0,-1
 278 611 l 1,1,-1
 278 386 l 1,2,-1
 387 386 l 1,3,-1
 387 322 l 1,4,-1
 278 322 l 1,5,-1
 278 -1 l 1,6,-1
 185 -1 l 1,7,-1
 185 322 l 1,8,-1
 77 322 l 1,9,-1
 77 386 l 1,10,-1
 185 386 l 1,11,-1
 185 611 l 1,12,-1
 11 611 l 1,13,-1
 11 687 l 1,14,-1
 458 687 l 1,15,-1
 447 611 l 1,0,-1
EndSplineSet
Validated: 1
Substitution2: "'c2sc' Versalien in Kapit+AOQA-lchen Nachschlagetabelle 26 Subtabelle" tbar.sc
Substitution2: "'aalt' Zugriff auf alle Alternativen Nachschlagetabelle 0 Subtabelle" tbar.sc
Position2: "'cpsp' Spationierung von Versalien Nachschlagetabelle 0 Subtabelle" dx=5 dy=0 dh=10 dv=0
EndChar

StartChar: uni0162
Encoding: 290 354 257
Width: 463
GlyphClass: 2
Flags: W
AnchorPoint: "Anker-18" 232 346 basechar 0
AnchorPoint: "Anker-17" 0 0 basechar 0
AnchorPoint: "Anker-16" 232 688 basechar 0
AnchorPoint: "Anker-15" 0 0 basechar 0
AnchorPoint: "Anker-14" 232 0 basechar 0
LayerCount: 2
Fore
SplineSet
344 -84.5 m 128,-1,1
 366 -107 366 -107 366 -142 c 0,2,3
 366 -187 366 -187 334.5 -213 c 128,-1,4
 303 -239 303 -239 252 -239 c 0,5,6
 203 -239 203 -239 170 -215 c 1,7,-1
 194 -166 l 1,8,9
 221 -182 221 -182 247 -182 c 0,10,11
 269 -182 269 -182 282 -172 c 128,-1,12
 295 -162 295 -162 295 -142 c 0,13,14
 295 -121 295 -121 276 -110.5 c 128,-1,15
 257 -100 257 -100 214 -100 c 1,16,-1
 224 0 l 1,17,-1
 185 0 l 1,18,-1
 185 612 l 1,19,-1
 11 612 l 1,20,-1
 11 688 l 1,21,-1
 458 688 l 1,22,-1
 447 612 l 1,23,-1
 278 612 l 1,24,-1
 278 -58 l 1,25,0
 322 -62 322 -62 344 -84.5 c 128,-1,1
EndSplineSet
Validated: 1
Substitution2: "'c2sc' Versalien in Kapit+AOQA-lchen Nachschlagetabelle 26 Subtabelle" uni0163.sc
Substitution2: "'locl' Lokalisierte Formen in Lateinisch Nachschlagetabelle 5 Subtabelle" uni021A
Substitution2: "'locl' Lokalisierte Formen in Lateinisch Nachschlagetabelle 4 Subtabelle" uni021A
AlternateSubs2: "'aalt' Zugriff auf alle Alternativen Nachschlagetabelle 1 Subtabelle" uni021A uni0163.sc
Position2: "'cpsp' Spationierung von Versalien Nachschlagetabelle 0 Subtabelle" dx=5 dy=0 dh=10 dv=0
EndChar

StartChar: uni023E
Encoding: 510 574 260
Width: 464
GlyphClass: 2
Flags: W
AnchorPoint: "Anker-18" 0 0 basechar 0
AnchorPoint: "Anker-17" 0 0 basechar 0
AnchorPoint: "Anker-16" 232 688 basechar 0
AnchorPoint: "Anker-15" 0 0 basechar 0
AnchorPoint: "Anker-14" 232 0 basechar 0
LayerCount: 2
Fore
SplineSet
447 612 m 1,0,-1
 359 612 l 1,1,-1
 275 372 l 1,2,-1
 275 0 l 1,3,-1
 188 0 l 1,4,-1
 188 125 l 1,5,-1
 119 -71 l 1,6,-1
 82 -57 l 1,7,-1
 188 244 l 1,8,-1
 188 612 l 1,9,-1
 11 612 l 1,10,-1
 11 688 l 1,11,-1
 344 688 l 1,12,-1
 367 752 l 1,13,-1
 404 739 l 1,14,-1
 386 688 l 1,15,-1
 458 688 l 1,16,-1
 447 612 l 1,0,-1
275 491 m 1,17,-1
 318 612 l 1,18,-1
 275 612 l 1,19,-1
 275 491 l 1,17,-1
EndSplineSet
Validated: 1
Substitution2: "'c2sc' Versalien in Kapit+AOQA-lchen Nachschlagetabelle 26 Subtabelle" uni2C66.sc
Substitution2: "'aalt' Zugriff auf alle Alternativen Nachschlagetabelle 0 Subtabelle" uni2C66.sc
Position2: "'cpsp' Spationierung von Versalien Nachschlagetabelle 0 Subtabelle" dx=5 dy=0 dh=10 dv=0
EndChar

StartChar: uni01AC
Encoding: 364 428 263
Width: 499
GlyphClass: 2
Flags: W
AnchorPoint: "Anker-18" 0 0 basechar 0
AnchorPoint: "Anker-17" 0 0 basechar 0
AnchorPoint: "Anker-16" 260 688 basechar 0
AnchorPoint: "Anker-15" 0 0 basechar 0
AnchorPoint: "Anker-14" 268 0 basechar 0
LayerCount: 2
Fore
SplineSet
483 611 m 1,0,-1
 314 611 l 1,1,-1
 314 0 l 1,2,-1
 221 0 l 1,3,-1
 221 611 l 1,4,-1
 142 611 l 2,5,6
 115 611 115 611 102 597.5 c 128,-1,7
 89 584 89 584 89 560 c 0,8,9
 89 526 89 526 108 491 c 1,10,-1
 44 459 l 1,11,12
 10 511 10 511 10 564 c 0,13,14
 10 622 10 622 47 655 c 128,-1,15
 84 688 84 688 151 688 c 2,16,-1
 493 688 l 1,17,-1
 483 611 l 1,0,-1
EndSplineSet
Validated: 1
Substitution2: "'c2sc' Versalien in Kapit+AOQA-lchen Nachschlagetabelle 26 Subtabelle" uni01AD.sc
Substitution2: "'aalt' Zugriff auf alle Alternativen Nachschlagetabelle 0 Subtabelle" uni01AD.sc
Position2: "'cpsp' Spationierung von Versalien Nachschlagetabelle 0 Subtabelle" dx=5 dy=0 dh=10 dv=0
EndChar

StartChar: uni0184
Encoding: 324 388 266
Width: 524
GlyphClass: 2
Flags: W
AnchorPoint: "Anker-18" 0 0 basechar 0
AnchorPoint: "Anker-17" 0 0 basechar 0
AnchorPoint: "Anker-16" 261 688 basechar 0
AnchorPoint: "Anker-15" 0 0 basechar 0
AnchorPoint: "Anker-14" 261 0 basechar 0
LayerCount: 2
Fore
SplineSet
437 381.5 m 128,-1,1
 499 329 499 329 499 223 c 0,2,3
 499 108 499 108 436 54 c 128,-1,4
 373 0 373 0 260 0 c 2,5,-1
 88 0 l 1,6,-1
 88 530 l 1,7,-1
 32 569 l 1,8,9
 73 615 73 615 102 688 c 1,10,-1
 182 688 l 1,11,-1
 182 434 l 1,12,-1
 260 434 l 2,13,0
 375 434 375 434 437 381.5 c 128,-1,1
365.5 107 m 128,-1,15
 401 141 401 141 401 222 c 0,16,17
 401 296 401 296 365.5 329.5 c 128,-1,18
 330 363 330 363 258 363 c 2,19,-1
 182 363 l 1,20,-1
 182 73 l 1,21,-1
 262 73 l 2,22,14
 330 73 330 73 365.5 107 c 128,-1,15
EndSplineSet
Validated: 1
Substitution2: "'c2sc' Versalien in Kapit+AOQA-lchen Nachschlagetabelle 26 Subtabelle" uni0185.sc
Substitution2: "'aalt' Zugriff auf alle Alternativen Nachschlagetabelle 0 Subtabelle" uni0185.sc
Position2: "'cpsp' Spationierung von Versalien Nachschlagetabelle 0 Subtabelle" dx=5 dy=0 dh=10 dv=0
EndChar

StartChar: uni01A7
Encoding: 359 423 267
Width: 488
GlyphClass: 2
Flags: W
AnchorPoint: "Anker-18" 0 0 basechar 0
AnchorPoint: "Anker-17" 0 0 basechar 0
AnchorPoint: "Anker-16" 245 688 basechar 0
AnchorPoint: "Anker-15" 0 0 basechar 0
AnchorPoint: "Anker-14" 245 0 basechar 0
LayerCount: 2
Fore
SplineSet
397 653.5 m 128,-1,1
 450 606 450 606 450 528 c 0,2,3
 450 453 450 453 407.5 409 c 128,-1,4
 365 365 365 365 267 330 c 0,5,6
 191 303 191 303 162.5 271 c 128,-1,7
 134 239 134 239 134 184 c 0,8,9
 134 126 134 126 168 94.5 c 128,-1,10
 202 63 202 63 257 63 c 0,11,12
 304 63 304 63 342 80 c 128,-1,13
 380 97 380 97 417 129 c 1,14,-1
 466 77 l 1,15,16
 379 -13 379 -13 252 -13 c 0,17,18
 188 -13 188 -13 139.5 12.5 c 128,-1,19
 91 38 91 38 64 83 c 128,-1,20
 37 128 37 128 37 186 c 0,21,22
 37 271 37 271 81.5 317 c 128,-1,23
 126 363 126 363 219 396 c 0,24,25
 272 415 272 415 300.5 433 c 128,-1,26
 329 451 329 451 341 473.5 c 128,-1,27
 353 496 353 496 353 530 c 0,28,29
 353 577 353 577 326 602 c 128,-1,30
 299 627 299 627 251 627 c 0,31,32
 209 627 209 627 174.5 613 c 128,-1,33
 140 599 140 599 104 569 c 1,34,-1
 57 621 l 1,35,36
 100 661 100 661 147.5 681 c 128,-1,37
 195 701 195 701 256 701 c 0,38,0
 344 701 344 701 397 653.5 c 128,-1,1
EndSplineSet
Validated: 1
Substitution2: "'c2sc' Versalien in Kapit+AOQA-lchen Nachschlagetabelle 26 Subtabelle" uni01A8.sc
Substitution2: "'aalt' Zugriff auf alle Alternativen Nachschlagetabelle 0 Subtabelle" uni01A8.sc
Position2: "'cpsp' Spationierung von Versalien Nachschlagetabelle 0 Subtabelle" dx=5 dy=0 dh=10 dv=0
EndChar

StartChar: uni01AE
Encoding: 366 430 268
Width: 465
GlyphClass: 2
Flags: W
AnchorPoint: "Anker-18" 232 346 basechar 0
AnchorPoint: "Anker-17" 0 0 basechar 0
AnchorPoint: "Anker-16" 232 688 basechar 0
AnchorPoint: "Anker-15" 0 0 basechar 0
AnchorPoint: "Anker-14" 232 0 basechar 0
LayerCount: 2
Fore
SplineSet
332 -138 m 0,1,2
 352 -138 352 -138 366.5 -133.5 c 128,-1,3
 381 -129 381 -129 397 -119 c 1,4,-1
 433 -174 l 1,5,6
 386 -211 386 -211 325 -211 c 0,7,8
 262 -211 262 -211 223.5 -174.5 c 128,-1,9
 185 -138 185 -138 185 -68 c 2,10,-1
 185 612 l 1,11,-1
 11 612 l 1,12,-1
 11 688 l 1,13,-1
 458 688 l 1,14,-1
 447 612 l 1,15,-1
 278 612 l 1,16,-1
 278 -71 l 2,17,0
 278 -138 278 -138 332 -138 c 0,1,2
EndSplineSet
Validated: 1
Substitution2: "'c2sc' Versalien in Kapit+AOQA-lchen Nachschlagetabelle 26 Subtabelle" uni0288.sc
Substitution2: "'aalt' Zugriff auf alle Alternativen Nachschlagetabelle 0 Subtabelle" uni0288.sc
Position2: "'cpsp' Spationierung von Versalien Nachschlagetabelle 0 Subtabelle" dx=5 dy=0 dh=10 dv=0
EndChar

StartChar: U
Encoding: 54 85 269
Width: 588
GlyphClass: 2
Flags: W
AnchorPoint: "Anker-18" 0 0 basechar 0
AnchorPoint: "Anker-17" 522 688 basechar 0
AnchorPoint: "Anker-16" 294 688 basechar 0
AnchorPoint: "Anker-15" 387 0 basechar 0
AnchorPoint: "Anker-14" 294 0 basechar 0
LayerCount: 2
Fore
SplineSet
514 202 m 2,0,1
 514 107 514 107 457 47 c 128,-1,2
 400 -13 400 -13 294 -13 c 0,3,4
 187 -13 187 -13 131 46.5 c 128,-1,5
 75 106 75 106 75 202 c 2,6,-1
 75 688 l 1,7,-1
 168 688 l 1,8,-1
 168 208 l 2,9,10
 168 63 168 63 294 63 c 256,11,12
 420 63 420 63 420 208 c 2,13,-1
 420 688 l 1,14,-1
 514 688 l 1,15,-1
 514 202 l 2,0,1
EndSplineSet
Validated: 1
Substitution2: "'c2sc' Versalien in Kapit+AOQA-lchen Nachschlagetabelle 26 Subtabelle" u.sc
Substitution2: "'aalt' Zugriff auf alle Alternativen Nachschlagetabelle 0 Subtabelle" u.sc
Position2: "'cpsp' Spationierung von Versalien Nachschlagetabelle 0 Subtabelle" dx=5 dy=0 dh=10 dv=0
EndChar

StartChar: uni0244
Encoding: 516 580 271
Width: 614
GlyphClass: 2
Flags: W
AnchorPoint: "Anker-18" 0 0 basechar 0
AnchorPoint: "Anker-17" 535 688 basechar 0
AnchorPoint: "Anker-16" 307 688 basechar 0
AnchorPoint: "Anker-15" 400 0 basechar 0
AnchorPoint: "Anker-14" 307 0 basechar 0
LayerCount: 2
Fore
SplineSet
583 509 m 1,0,-1
 527 509 l 1,1,-1
 527 202 l 2,2,3
 527 107 527 107 470 47 c 128,-1,4
 413 -13 413 -13 307 -13 c 0,5,6
 200 -13 200 -13 144 46.5 c 128,-1,7
 88 106 88 106 88 202 c 2,8,-1
 88 509 l 1,9,-1
 31 509 l 1,10,-1
 31 571 l 1,11,-1
 88 571 l 1,12,-1
 88 688 l 1,13,-1
 181 688 l 1,14,-1
 181 571 l 1,15,-1
 433 571 l 1,16,-1
 433 688 l 1,17,-1
 527 688 l 1,18,-1
 527 571 l 1,19,-1
 583 571 l 1,20,-1
 583 509 l 1,0,-1
433 509 m 1,21,-1
 181 509 l 1,22,-1
 181 208 l 2,23,24
 181 63 181 63 307 63 c 256,25,26
 433 63 433 63 433 208 c 2,27,-1
 433 509 l 1,21,-1
EndSplineSet
Validated: 1
Substitution2: "'c2sc' Versalien in Kapit+AOQA-lchen Nachschlagetabelle 26 Subtabelle" uni0289.sc
Substitution2: "'aalt' Zugriff auf alle Alternativen Nachschlagetabelle 0 Subtabelle" uni0289.sc
Position2: "'cpsp' Spationierung von Versalien Nachschlagetabelle 0 Subtabelle" dx=5 dy=0 dh=10 dv=0
EndChar

StartChar: Uhorn
Encoding: 367 431 284
Width: 620
GlyphClass: 2
Flags: W
AnchorPoint: "Anker-18" 0 0 basechar 0
AnchorPoint: "Anker-17" 569 688 basechar 0
AnchorPoint: "Anker-16" 294 688 basechar 0
AnchorPoint: "Anker-15" 387 0 basechar 0
AnchorPoint: "Anker-14" 294 0 basechar 0
LayerCount: 2
Fore
SplineSet
514 582 m 1,1,-1
 514 202 l 2,2,3
 514 107 514 107 457 47 c 128,-1,4
 400 -13 400 -13 294 -13 c 0,5,6
 187 -13 187 -13 131 46.5 c 128,-1,7
 75 106 75 106 75 202 c 2,8,-1
 75 688 l 1,9,-1
 168 688 l 1,10,-1
 168 208 l 2,11,12
 168 63 168 63 294 63 c 256,13,14
 420 63 420 63 420 208 c 2,15,-1
 420 688 l 1,16,-1
 514 688 l 1,17,-1
 514 634 l 1,18,19
 536 638 536 638 546 650.5 c 128,-1,20
 556 663 556 663 556 685 c 0,21,22
 556 721 556 721 543 758 c 1,23,-1
 606 772 l 1,24,25
 623 734 623 734 623 687 c 0,26,0
 623 590 623 590 514 582 c 1,1,-1
EndSplineSet
Validated: 1
Substitution2: "'c2sc' Versalien in Kapit+AOQA-lchen Nachschlagetabelle 26 Subtabelle" uhorn.sc
Substitution2: "'aalt' Zugriff auf alle Alternativen Nachschlagetabelle 0 Subtabelle" uhorn.sc
Position2: "'cpsp' Spationierung von Versalien Nachschlagetabelle 0 Subtabelle" dx=5 dy=0 dh=10 dv=0
EndChar

StartChar: uni1EE8
Encoding: 1292 7912 285
Width: 620
GlyphClass: 2
Flags: W
AnchorPoint: "Anker-18" 0 0 basechar 0
AnchorPoint: "Anker-17" 569 688 basechar 0
AnchorPoint: "Anker-16" 296 910 basechar 0
AnchorPoint: "Anker-15" 387 0 basechar 0
AnchorPoint: "Anker-14" 294 0 basechar 0
LayerCount: 2
Fore
SplineSet
403 835 m 1,0,-1
 209 756 l 1,1,-1
 185 803 l 1,2,-1
 365 908 l 1,3,-1
 403 835 l 1,0,-1
514 582 m 1,5,-1
 514 202 l 2,6,7
 514 107 514 107 457 47 c 128,-1,8
 400 -13 400 -13 294 -13 c 0,9,10
 187 -13 187 -13 131 46.5 c 128,-1,11
 75 106 75 106 75 202 c 2,12,-1
 75 688 l 1,13,-1
 168 688 l 1,14,-1
 168 208 l 2,15,16
 168 63 168 63 294 63 c 256,17,18
 420 63 420 63 420 208 c 2,19,-1
 420 688 l 1,20,-1
 514 688 l 1,21,-1
 514 634 l 1,22,23
 536 638 536 638 546 650.5 c 128,-1,24
 556 663 556 663 556 685 c 0,25,26
 556 721 556 721 543 758 c 1,27,-1
 606 772 l 1,28,29
 623 734 623 734 623 687 c 0,30,4
 623 590 623 590 514 582 c 1,5,-1
EndSplineSet
Validated: 1
Substitution2: "'c2sc' Versalien in Kapit+AOQA-lchen Nachschlagetabelle 26 Subtabelle" uni1EE9.sc
Substitution2: "'aalt' Zugriff auf alle Alternativen Nachschlagetabelle 0 Subtabelle" uni1EE9.sc
Position2: "'cpsp' Spationierung von Versalien Nachschlagetabelle 0 Subtabelle" dx=5 dy=0 dh=10 dv=0
EndChar

StartChar: uni1EF0
Encoding: 1300 7920 286
Width: 620
GlyphClass: 2
Flags: W
AnchorPoint: "Anker-18" 0 0 basechar 0
AnchorPoint: "Anker-17" 569 688 basechar 0
AnchorPoint: "Anker-16" 294 688 basechar 0
AnchorPoint: "Anker-15" 387 0 basechar 0
AnchorPoint: "Anker-14" 294 -202 basechar 0
LayerCount: 2
Fore
SplineSet
514 582 m 1,1,-1
 514 202 l 2,2,3
 514 107 514 107 457 47 c 128,-1,4
 400 -13 400 -13 294 -13 c 0,5,6
 187 -13 187 -13 131 46.5 c 128,-1,7
 75 106 75 106 75 202 c 2,8,-1
 75 688 l 1,9,-1
 168 688 l 1,10,-1
 168 208 l 2,11,12
 168 63 168 63 294 63 c 256,13,14
 420 63 420 63 420 208 c 2,15,-1
 420 688 l 1,16,-1
 514 688 l 1,17,-1
 514 634 l 1,18,19
 536 638 536 638 546 650.5 c 128,-1,20
 556 663 556 663 556 685 c 0,21,22
 556 721 556 721 543 758 c 1,23,-1
 606 772 l 1,24,25
 623 734 623 734 623 687 c 0,26,0
 623 590 623 590 514 582 c 1,1,-1
336.5 -93.5 m 128,-1,28
 353 -110 353 -110 353 -135 c 256,29,30
 353 -160 353 -160 336.5 -177 c 128,-1,31
 320 -194 320 -194 294 -194 c 256,32,33
 268 -194 268 -194 251.5 -177 c 128,-1,34
 235 -160 235 -160 235 -135 c 256,35,36
 235 -110 235 -110 251 -93.5 c 128,-1,37
 267 -77 267 -77 294 -77 c 0,38,27
 320 -77 320 -77 336.5 -93.5 c 128,-1,28
EndSplineSet
Validated: 1
Substitution2: "'c2sc' Versalien in Kapit+AOQA-lchen Nachschlagetabelle 26 Subtabelle" uni1EF1.sc
Substitution2: "'aalt' Zugriff auf alle Alternativen Nachschlagetabelle 0 Subtabelle" uni1EF1.sc
Position2: "'cpsp' Spationierung von Versalien Nachschlagetabelle 0 Subtabelle" dx=5 dy=0 dh=10 dv=0
EndChar

StartChar: uni1EEA
Encoding: 1294 7914 287
Width: 620
GlyphClass: 2
Flags: W
AnchorPoint: "Anker-18" 0 0 basechar 0
AnchorPoint: "Anker-17" 569 688 basechar 0
AnchorPoint: "Anker-16" 295 910 basechar 0
AnchorPoint: "Anker-15" 387 0 basechar 0
AnchorPoint: "Anker-14" 294 0 basechar 0
LayerCount: 2
Fore
SplineSet
399 803 m 1,0,-1
 375 755 l 1,1,-1
 181 835 l 1,2,-1
 218 908 l 1,3,-1
 399 803 l 1,0,-1
514 582 m 1,5,-1
 514 202 l 2,6,7
 514 107 514 107 457 47 c 128,-1,8
 400 -13 400 -13 294 -13 c 0,9,10
 187 -13 187 -13 131 46.5 c 128,-1,11
 75 106 75 106 75 202 c 2,12,-1
 75 688 l 1,13,-1
 168 688 l 1,14,-1
 168 208 l 2,15,16
 168 63 168 63 294 63 c 256,17,18
 420 63 420 63 420 208 c 2,19,-1
 420 688 l 1,20,-1
 514 688 l 1,21,-1
 514 634 l 1,22,23
 536 638 536 638 546 650.5 c 128,-1,24
 556 663 556 663 556 685 c 0,25,26
 556 721 556 721 543 758 c 1,27,-1
 606 772 l 1,28,29
 623 734 623 734 623 687 c 0,30,4
 623 590 623 590 514 582 c 1,5,-1
EndSplineSet
Validated: 1
Substitution2: "'c2sc' Versalien in Kapit+AOQA-lchen Nachschlagetabelle 26 Subtabelle" uni1EEB.sc
Substitution2: "'aalt' Zugriff auf alle Alternativen Nachschlagetabelle 0 Subtabelle" uni1EEB.sc
Position2: "'cpsp' Spationierung von Versalien Nachschlagetabelle 0 Subtabelle" dx=5 dy=0 dh=10 dv=0
EndChar

StartChar: uni1EEC
Encoding: 1296 7916 288
Width: 620
GlyphClass: 2
Flags: W
AnchorPoint: "Anker-18" 0 0 basechar 0
AnchorPoint: "Anker-17" 569 688 basechar 0
AnchorPoint: "Anker-16" 305 985 basechar 0
AnchorPoint: "Anker-15" 387 0 basechar 0
AnchorPoint: "Anker-14" 294 0 basechar 0
LayerCount: 2
Fore
SplineSet
260.5 926 m 128,-1,1
 249 923 249 923 234 916 c 1,2,-1
 216 963 l 1,3,4
 255 986 255 986 300 986 c 256,5,6
 345 986 345 986 370.5 961.5 c 128,-1,7
 396 937 396 937 396 897 c 0,8,9
 396 862 396 862 377.5 841 c 128,-1,10
 359 820 359 820 325 814 c 1,11,-1
 325 768 l 1,12,-1
 263 768 l 1,13,-1
 263 848 l 1,14,15
 297 852 297 852 312 861 c 128,-1,16
 327 870 327 870 327 892 c 0,17,18
 327 910 327 910 316.5 919.5 c 128,-1,19
 306 929 306 929 287 929 c 0,20,0
 272 929 272 929 260.5 926 c 128,-1,1
514 582 m 1,22,-1
 514 202 l 2,23,24
 514 107 514 107 457 47 c 128,-1,25
 400 -13 400 -13 294 -13 c 0,26,27
 187 -13 187 -13 131 46.5 c 128,-1,28
 75 106 75 106 75 202 c 2,29,-1
 75 688 l 1,30,-1
 168 688 l 1,31,-1
 168 208 l 2,32,33
 168 63 168 63 294 63 c 256,34,35
 420 63 420 63 420 208 c 2,36,-1
 420 688 l 1,37,-1
 514 688 l 1,38,-1
 514 634 l 1,39,40
 536 638 536 638 546 650.5 c 128,-1,41
 556 663 556 663 556 685 c 0,42,43
 556 721 556 721 543 758 c 1,44,-1
 606 772 l 1,45,46
 623 734 623 734 623 687 c 0,47,21
 623 590 623 590 514 582 c 1,22,-1
EndSplineSet
Validated: 1
Substitution2: "'c2sc' Versalien in Kapit+AOQA-lchen Nachschlagetabelle 26 Subtabelle" uni1EED.sc
Substitution2: "'aalt' Zugriff auf alle Alternativen Nachschlagetabelle 0 Subtabelle" uni1EED.sc
Position2: "'cpsp' Spationierung von Versalien Nachschlagetabelle 0 Subtabelle" dx=5 dy=0 dh=10 dv=0
EndChar

StartChar: uni1EEE
Encoding: 1298 7918 289
Width: 620
GlyphClass: 2
Flags: W
AnchorPoint: "Anker-18" 0 0 basechar 0
AnchorPoint: "Anker-17" 569 688 basechar 0
AnchorPoint: "Anker-16" 296 896 basechar 0
AnchorPoint: "Anker-15" 387 0 basechar 0
AnchorPoint: "Anker-14" 294 0 basechar 0
LayerCount: 2
Fore
SplineSet
216 819 m 128,-1,1
 205 809 205 809 192 787 c 1,2,-1
 144 810 l 1,3,4
 161 849 161 849 185.5 871.5 c 128,-1,5
 210 894 210 894 240 894 c 0,6,7
 257 894 257 894 271 887.5 c 128,-1,8
 285 881 285 881 302 869 c 0,9,10
 316 859 316 859 326 854.5 c 128,-1,11
 336 850 336 850 347 850 c 0,12,13
 361 850 361 850 372 860 c 128,-1,14
 383 870 383 870 395 893 c 1,15,-1
 444 870 l 1,16,17
 412 785 412 785 348 785 c 0,18,19
 330 785 330 785 316 791.5 c 128,-1,20
 302 798 302 798 283 811 c 0,21,22
 273 818 273 818 262 823.5 c 128,-1,23
 251 829 251 829 242 829 c 0,24,0
 227 829 227 829 216 819 c 128,-1,1
514 582 m 1,26,-1
 514 202 l 2,27,28
 514 107 514 107 457 47 c 128,-1,29
 400 -13 400 -13 294 -13 c 0,30,31
 187 -13 187 -13 131 46.5 c 128,-1,32
 75 106 75 106 75 202 c 2,33,-1
 75 688 l 1,34,-1
 168 688 l 1,35,-1
 168 208 l 2,36,37
 168 63 168 63 294 63 c 256,38,39
 420 63 420 63 420 208 c 2,40,-1
 420 688 l 1,41,-1
 514 688 l 1,42,-1
 514 634 l 1,43,44
 536 638 536 638 546 650.5 c 128,-1,45
 556 663 556 663 556 685 c 0,46,47
 556 721 556 721 543 758 c 1,48,-1
 606 772 l 1,49,50
 623 734 623 734 623 687 c 0,51,25
 623 590 623 590 514 582 c 1,26,-1
EndSplineSet
Validated: 1
Substitution2: "'c2sc' Versalien in Kapit+AOQA-lchen Nachschlagetabelle 26 Subtabelle" uni1EEF.sc
Substitution2: "'aalt' Zugriff auf alle Alternativen Nachschlagetabelle 0 Subtabelle" uni1EEF.sc
Position2: "'cpsp' Spationierung von Versalien Nachschlagetabelle 0 Subtabelle" dx=5 dy=0 dh=10 dv=0
EndChar

StartChar: Uogonek
Encoding: 306 370 293
Width: 588
GlyphClass: 2
Flags: W
AnchorPoint: "Anker-18" 0 0 basechar 0
AnchorPoint: "Anker-17" 522 688 basechar 0
AnchorPoint: "Anker-16" 294 688 basechar 0
AnchorPoint: "Anker-15" 387 0 basechar 0
AnchorPoint: "Anker-14" 294 0 basechar 0
LayerCount: 2
Fore
SplineSet
514 688 m 1,0,-1
 514 202 l 2,1,2
 514 127 514 127 478 72.5 c 128,-1,3
 442 18 442 18 373 -2 c 1,4,5
 315 -30 315 -30 292 -56.5 c 128,-1,6
 269 -83 269 -83 269 -113 c 0,7,8
 269 -137 269 -137 282.5 -150 c 128,-1,9
 296 -163 296 -163 322 -163 c 0,10,11
 347 -163 347 -163 375 -156 c 1,12,-1
 368 -221 l 1,13,14
 337 -228 337 -228 311 -228 c 0,15,16
 259 -228 259 -228 228.5 -200.5 c 128,-1,17
 198 -173 198 -173 198 -128 c 0,18,19
 198 -91 198 -91 220.5 -62 c 128,-1,20
 243 -33 243 -33 284 -13 c 1,21,22
 182 -10 182 -10 128.5 49 c 128,-1,23
 75 108 75 108 75 202 c 2,24,-1
 75 688 l 1,25,-1
 168 688 l 1,26,-1
 168 208 l 2,27,28
 168 63 168 63 294 63 c 256,29,30
 420 63 420 63 420 208 c 2,31,-1
 420 688 l 1,32,-1
 514 688 l 1,0,-1
EndSplineSet
Validated: 1
Substitution2: "'c2sc' Versalien in Kapit+AOQA-lchen Nachschlagetabelle 26 Subtabelle" uogonek.sc
Substitution2: "'aalt' Zugriff auf alle Alternativen Nachschlagetabelle 0 Subtabelle" uogonek.sc
Position2: "'cpsp' Spationierung von Versalien Nachschlagetabelle 0 Subtabelle" dx=5 dy=0 dh=10 dv=0
EndChar

StartChar: uni01B1
Encoding: 369 433 294
Width: 622
GlyphClass: 2
Flags: W
AnchorPoint: "Anker-18" 0 0 basechar 0
AnchorPoint: "Anker-17" 0 0 basechar 0
AnchorPoint: "Anker-16" 311 688 basechar 0
AnchorPoint: "Anker-15" 0 0 basechar 0
AnchorPoint: "Anker-14" 311 0 basechar 0
LayerCount: 2
Fore
SplineSet
170.5 25 m 128,-1,1
 111 63 111 63 79 136 c 128,-1,2
 47 209 47 209 47 310 c 0,3,4
 47 424 47 424 79 494 c 128,-1,5
 111 564 111 564 167 614 c 1,6,-1
 67 614 l 1,7,-1
 67 688 l 1,8,-1
 252 688 l 1,9,-1
 252 616 l 1,10,11
 199 566 199 566 172 495.5 c 128,-1,12
 145 425 145 425 145 310 c 0,13,14
 145 184 145 184 188 123 c 128,-1,15
 231 62 231 62 311 62 c 0,16,17
 390 62 390 62 433.5 123 c 128,-1,18
 477 184 477 184 477 310 c 0,19,20
 477 424 477 424 449.5 494.5 c 128,-1,21
 422 565 422 565 370 616 c 1,22,-1
 370 688 l 1,23,-1
 556 688 l 1,24,-1
 556 614 l 1,25,-1
 455 614 l 1,26,27
 511 569 511 569 543 498 c 128,-1,28
 575 427 575 427 575 310 c 0,29,30
 575 211 575 211 542.5 138 c 128,-1,31
 510 65 510 65 450.5 26 c 128,-1,32
 391 -13 391 -13 311 -13 c 0,33,0
 230 -13 230 -13 170.5 25 c 128,-1,1
EndSplineSet
Validated: 1
Substitution2: "'c2sc' Versalien in Kapit+AOQA-lchen Nachschlagetabelle 26 Subtabelle" uni01B1.sc
Substitution2: "'aalt' Zugriff auf alle Alternativen Nachschlagetabelle 0 Subtabelle" uni01B1.sc
Position2: "'cpsp' Spationierung von Versalien Nachschlagetabelle 0 Subtabelle" dx=5 dy=0 dh=10 dv=0
EndChar

StartChar: V
Encoding: 55 86 298
Width: 509
GlyphClass: 2
Flags: W
AnchorPoint: "Anker-18" 0 0 basechar 0
AnchorPoint: "Anker-17" 0 0 basechar 0
AnchorPoint: "Anker-16" 254 688 basechar 0
AnchorPoint: "Anker-15" 0 0 basechar 0
AnchorPoint: "Anker-14" 254 0 basechar 0
LayerCount: 2
Fore
SplineSet
501 688 m 1,0,-1
 311 0 l 1,1,-1
 200 0 l 1,2,-1
 7 688 l 1,3,-1
 103 688 l 1,4,-1
 257 90 l 1,5,-1
 409 688 l 1,6,-1
 501 688 l 1,0,-1
EndSplineSet
Validated: 1
Substitution2: "'c2sc' Versalien in Kapit+AOQA-lchen Nachschlagetabelle 26 Subtabelle" v.sc
Substitution2: "'aalt' Zugriff auf alle Alternativen Nachschlagetabelle 0 Subtabelle" v.sc
Position2: "'cpsp' Spationierung von Versalien Nachschlagetabelle 0 Subtabelle" dx=5 dy=0 dh=10 dv=0
EndChar

StartChar: uni01B2
Encoding: 370 434 299
Width: 588
GlyphClass: 2
Flags: W
AnchorPoint: "Anker-18" 0 0 basechar 0
AnchorPoint: "Anker-17" 0 0 basechar 0
AnchorPoint: "Anker-16" 285 688 basechar 0
AnchorPoint: "Anker-15" 0 0 basechar 0
AnchorPoint: "Anker-14" 285 0 basechar 0
LayerCount: 2
Fore
SplineSet
485.5 670.5 m 128,-1,1
 514 640 514 640 514 581 c 2,2,-1
 514 280 l 2,3,4
 514 189 514 189 484 123 c 128,-1,5
 454 57 454 57 400 22 c 128,-1,6
 346 -13 346 -13 275 -13 c 0,7,8
 183 -13 183 -13 129 43 c 128,-1,9
 75 99 75 99 75 188 c 2,10,-1
 75 688 l 1,11,-1
 168 688 l 1,12,-1
 168 190 l 2,13,14
 168 129 168 129 196.5 96 c 128,-1,15
 225 63 225 63 276 63 c 0,16,17
 343 63 343 63 381.5 119 c 128,-1,18
 420 175 420 175 420 281 c 2,19,-1
 420 581 l 2,20,21
 420 605 420 605 412 616.5 c 128,-1,22
 404 628 404 628 386 628 c 0,23,24
 370 628 370 628 354 621 c 1,25,-1
 335 684 l 1,26,27
 367 701 367 701 405 701 c 0,28,0
 457 701 457 701 485.5 670.5 c 128,-1,1
EndSplineSet
Validated: 1
Substitution2: "'c2sc' Versalien in Kapit+AOQA-lchen Nachschlagetabelle 26 Subtabelle" uni028B.sc
Substitution2: "'aalt' Zugriff auf alle Alternativen Nachschlagetabelle 0 Subtabelle" uni028B.sc
Position2: "'cpsp' Spationierung von Versalien Nachschlagetabelle 0 Subtabelle" dx=5 dy=0 dh=10 dv=0
EndChar

StartChar: W
Encoding: 56 87 301
Width: 749
GlyphClass: 2
Flags: W
AnchorPoint: "Anker-18" 0 0 basechar 0
AnchorPoint: "Anker-17" 0 0 basechar 0
AnchorPoint: "Anker-16" 375 688 basechar 0
AnchorPoint: "Anker-15" 0 0 basechar 0
AnchorPoint: "Anker-14" 374 0 basechar 0
LayerCount: 2
Fore
SplineSet
726 688 m 1,0,-1
 604 0 l 1,1,-1
 484 0 l 1,2,-1
 374 586 l 1,3,-1
 262 0 l 1,4,-1
 144 0 l 1,5,-1
 23 688 l 1,6,-1
 113 688 l 1,7,-1
 209 79 l 1,8,-1
 324 688 l 1,9,-1
 425 688 l 1,10,-1
 540 79 l 1,11,-1
 639 688 l 1,12,-1
 726 688 l 1,0,-1
EndSplineSet
Validated: 1
Substitution2: "'c2sc' Versalien in Kapit+AOQA-lchen Nachschlagetabelle 26 Subtabelle" w.sc
Substitution2: "'aalt' Zugriff auf alle Alternativen Nachschlagetabelle 0 Subtabelle" w.sc
Position2: "'cpsp' Spationierung von Versalien Nachschlagetabelle 0 Subtabelle" dx=5 dy=0 dh=10 dv=0
EndChar

StartChar: uni2C72
Encoding: 1666 11378 306
Width: 788
GlyphClass: 2
Flags: W
AnchorPoint: "Anker-18" 0 0 basechar 0
AnchorPoint: "Anker-17" 0 0 basechar 0
AnchorPoint: "Anker-16" 375 688 basechar 0
AnchorPoint: "Anker-15" 0 0 basechar 0
AnchorPoint: "Anker-14" 374 0 basechar 0
LayerCount: 2
Fore
SplineSet
144 0 m 1,0,-1
 262 0 l 1,1,-1
 374 586 l 1,2,-1
 484 0 l 1,3,-1
 604 0 l 1,4,-1
 696 570 l 2,5,6
 701 604 701 604 714 617.5 c 128,-1,7
 727 631 727 631 750 631 c 0,8,9
 766 631 766 631 778.5 626 c 128,-1,10
 791 621 791 621 804 611 c 1,11,-1
 835 663 l 1,12,13
 814 681 814 681 791 691 c 128,-1,14
 768 701 768 701 740 701 c 0,15,16
 633 701 633 701 617 577 c 2,17,-1
 540 79 l 1,18,-1
 425 688 l 1,19,-1
 324 688 l 1,20,-1
 209 79 l 1,21,-1
 113 688 l 1,22,-1
 23 688 l 1,23,-1
 144 0 l 1,0,-1
EndSplineSet
Validated: 9
Substitution2: "'c2sc' Versalien in Kapit+AOQA-lchen Nachschlagetabelle 26 Subtabelle" uni2C73.sc
Substitution2: "'aalt' Zugriff auf alle Alternativen Nachschlagetabelle 0 Subtabelle" uni2C73.sc
Position2: "'cpsp' Spationierung von Versalien Nachschlagetabelle 0 Subtabelle" dx=5 dy=0 dh=10 dv=0
EndChar

StartChar: uni01F7
Encoding: 439 503 307
Width: 523
GlyphClass: 2
Flags: W
AnchorPoint: "Anker-18" 0 0 basechar 0
AnchorPoint: "Anker-17" 0 0 basechar 0
AnchorPoint: "Anker-16" 264 688 basechar 0
AnchorPoint: "Anker-15" 0 0 basechar 0
AnchorPoint: "Anker-14" 264 0 basechar 0
LayerCount: 2
Fore
SplineSet
411 678.5 m 128,-1,1
 450 656 450 656 472.5 613.5 c 128,-1,2
 495 571 495 571 495 513 c 0,3,4
 495 441 495 441 464 390 c 128,-1,5
 433 339 433 339 382.5 305 c 128,-1,6
 332 271 332 271 257 239 c 2,7,-1
 178 206 l 1,8,-1
 178 0 l 1,9,-1
 85 0 l 1,10,-1
 85 688 l 1,11,-1
 178 688 l 1,12,-1
 178 639 l 1,13,14
 240 701 240 701 323 701 c 0,15,0
 372 701 372 701 411 678.5 c 128,-1,1
358.5 391 m 128,-1,17
 398 438 398 438 398 512 c 0,18,19
 398 569 398 569 372 598 c 128,-1,20
 346 627 346 627 300 627 c 0,21,22
 233 627 233 627 178 572 c 1,23,-1
 178 279 l 1,24,-1
 246 310 l 2,25,16
 319 344 319 344 358.5 391 c 128,-1,17
EndSplineSet
Validated: 1
Substitution2: "'c2sc' Versalien in Kapit+AOQA-lchen Nachschlagetabelle 26 Subtabelle" uni01BF.sc
Substitution2: "'aalt' Zugriff auf alle Alternativen Nachschlagetabelle 0 Subtabelle" uni01BF.sc
Position2: "'cpsp' Spationierung von Versalien Nachschlagetabelle 0 Subtabelle" dx=5 dy=0 dh=10 dv=0
EndChar

StartChar: X
Encoding: 57 88 308
Width: 488
GlyphClass: 2
Flags: W
AnchorPoint: "Anker-18" 0 0 basechar 0
AnchorPoint: "Anker-17" 0 0 basechar 0
AnchorPoint: "Anker-16" 244 688 basechar 0
AnchorPoint: "Anker-15" 0 0 basechar 0
AnchorPoint: "Anker-14" 244 0 basechar 0
LayerCount: 2
Fore
SplineSet
297 372 m 1,0,-1
 484 0 l 1,1,-1
 384 0 l 1,2,-1
 241 309 l 1,3,-1
 100 0 l 1,4,-1
 4 0 l 1,5,-1
 186 368 l 1,6,-1
 20 688 l 1,7,-1
 120 688 l 1,8,-1
 243 427 l 1,9,-1
 367 688 l 1,10,-1
 463 688 l 1,11,-1
 297 372 l 1,0,-1
EndSplineSet
Validated: 1
Substitution2: "'c2sc' Versalien in Kapit+AOQA-lchen Nachschlagetabelle 26 Subtabelle" x.sc
Substitution2: "'aalt' Zugriff auf alle Alternativen Nachschlagetabelle 0 Subtabelle" x.sc
Position2: "'cpsp' Spationierung von Versalien Nachschlagetabelle 0 Subtabelle" dx=5 dy=0 dh=10 dv=0
EndChar

StartChar: Y
Encoding: 58 89 309
Width: 498
GlyphClass: 2
Flags: W
AnchorPoint: "Anker-18" 0 0 basechar 0
AnchorPoint: "Anker-17" 0 0 basechar 0
AnchorPoint: "Anker-16" 249 688 basechar 0
AnchorPoint: "Anker-15" 0 0 basechar 0
AnchorPoint: "Anker-14" 249 0 basechar 0
LayerCount: 2
Fore
SplineSet
494 688 m 1,0,-1
 296 265 l 1,1,-1
 296 0 l 1,2,-1
 202 0 l 1,3,-1
 202 264 l 1,4,-1
 4 688 l 1,5,-1
 104 688 l 1,6,-1
 251 344 l 1,7,-1
 397 688 l 1,8,-1
 494 688 l 1,0,-1
EndSplineSet
Validated: 1
Substitution2: "'c2sc' Versalien in Kapit+AOQA-lchen Nachschlagetabelle 26 Subtabelle" y.sc
Substitution2: "'aalt' Zugriff auf alle Alternativen Nachschlagetabelle 0 Subtabelle" y.sc
Position2: "'cpsp' Spationierung von Versalien Nachschlagetabelle 0 Subtabelle" dx=5 dy=0 dh=10 dv=0
EndChar

StartChar: uni01B3
Encoding: 371 435 315
Width: 524
GlyphClass: 2
Flags: W
AnchorPoint: "Anker-18" 0 0 basechar 0
AnchorPoint: "Anker-17" 0 0 basechar 0
AnchorPoint: "Anker-16" 259 688 basechar 0
AnchorPoint: "Anker-15" 0 0 basechar 0
AnchorPoint: "Anker-14" 249 0 basechar 0
LayerCount: 2
Fore
SplineSet
202 264 m 1,0,-1
 4 688 l 1,1,-1
 104 688 l 1,2,-1
 251 344 l 1,3,-1
 349 593 l 2,4,5
 370 650 370 650 399.5 675.5 c 128,-1,6
 429 701 429 701 476 701 c 0,7,8
 504 701 504 701 527 691 c 128,-1,9
 550 681 550 681 571 663 c 1,10,-1
 540 611 l 1,11,12
 527 621 527 621 514.5 626 c 128,-1,13
 502 631 502 631 486 631 c 0,14,15
 465 631 465 631 452 618.5 c 128,-1,16
 439 606 439 606 424 571 c 2,17,-1
 296 265 l 1,18,-1
 296 0 l 1,19,-1
 202 0 l 1,20,-1
 202 264 l 1,0,-1
EndSplineSet
Validated: 1
Substitution2: "'c2sc' Versalien in Kapit+AOQA-lchen Nachschlagetabelle 26 Subtabelle" uni01B4.sc
Substitution2: "'aalt' Zugriff auf alle Alternativen Nachschlagetabelle 0 Subtabelle" uni01B4.sc
Position2: "'cpsp' Spationierung von Versalien Nachschlagetabelle 0 Subtabelle" dx=5 dy=0 dh=10 dv=0
EndChar

StartChar: uni01A6
Encoding: 358 422 318
Width: 547
GlyphClass: 2
Flags: W
AnchorPoint: "Anker-18" 0 0 basechar 0
AnchorPoint: "Anker-17" 0 0 basechar 0
AnchorPoint: "Anker-16" 272 688 basechar 0
AnchorPoint: "Anker-15" 0 0 basechar 0
AnchorPoint: "Anker-14" 272 -202 basechar 0
LayerCount: 2
Fore
SplineSet
425 -123 m 1,0,-1
 277 171 l 1,1,-1
 271 171 l 1,2,-1
 178 171 l 1,3,-1
 178 0 l 1,4,-1
 85 0 l 1,5,-1
 85 688 l 1,6,-1
 178 688 l 1,7,-1
 178 566 l 1,8,-1
 248 566 l 2,9,10
 372 566 372 566 433 516 c 128,-1,11
 494 466 494 466 494 371 c 0,12,13
 494 303 494 303 460.5 256 c 128,-1,14
 427 209 427 209 363 188 c 1,15,-1
 528 -123 l 1,16,-1
 425 -123 l 1,0,-1
362 272.5 m 128,-1,18
 397 304 397 304 397 371 c 0,19,20
 397 434 397 434 362 463.5 c 128,-1,21
 327 493 327 493 246 494 c 2,22,-1
 178 494 l 1,23,-1
 178 241 l 1,24,-1
 255 241 l 2,25,17
 327 241 327 241 362 272.5 c 128,-1,18
EndSplineSet
Validated: 1
Substitution2: "'c2sc' Versalien in Kapit+AOQA-lchen Nachschlagetabelle 26 Subtabelle" uni0280.sc
Substitution2: "'aalt' Zugriff auf alle Alternativen Nachschlagetabelle 0 Subtabelle" uni0280.sc
Position2: "'cpsp' Spationierung von Versalien Nachschlagetabelle 0 Subtabelle" dx=5 dy=0 dh=10 dv=0
EndChar

StartChar: uni024E
Encoding: 526 590 319
Width: 498
GlyphClass: 2
Flags: W
AnchorPoint: "Anker-18" 0 0 basechar 0
AnchorPoint: "Anker-17" 0 0 basechar 0
AnchorPoint: "Anker-16" 249 688 basechar 0
AnchorPoint: "Anker-15" 0 0 basechar 0
AnchorPoint: "Anker-14" 249 0 basechar 0
LayerCount: 2
Fore
SplineSet
494 688 m 1,0,-1
 454 602 l 1,1,-1
 493 602 l 1,2,-1
 493 540 l 1,3,-1
 425 540 l 1,4,-1
 296 265 l 1,5,-1
 296 0 l 1,6,-1
 202 0 l 1,7,-1
 202 264 l 1,8,-1
 73 540 l 1,9,-1
 6 540 l 1,10,-1
 6 602 l 1,11,-1
 44 602 l 1,12,-1
 4 688 l 1,13,-1
 103 688 l 1,14,-1
 140 602 l 1,15,-1
 362 602 l 1,16,-1
 399 688 l 1,17,-1
 494 688 l 1,0,-1
251 342 m 1,18,-1
 336 540 l 1,19,-1
 166 540 l 1,20,-1
 251 342 l 1,18,-1
EndSplineSet
Validated: 1
Substitution2: "'c2sc' Versalien in Kapit+AOQA-lchen Nachschlagetabelle 26 Subtabelle" uni024F.sc
Substitution2: "'aalt' Zugriff auf alle Alternativen Nachschlagetabelle 0 Subtabelle" uni024F.sc
Position2: "'cpsp' Spationierung von Versalien Nachschlagetabelle 0 Subtabelle" dx=5 dy=0 dh=10 dv=0
EndChar

StartChar: Z
Encoding: 59 90 321
Width: 472
GlyphClass: 2
Flags: W
AnchorPoint: "Anker-18" 0 0 basechar 0
AnchorPoint: "Anker-17" 0 0 basechar 0
AnchorPoint: "Anker-16" 242 688 basechar 0
AnchorPoint: "Anker-15" 0 0 basechar 0
AnchorPoint: "Anker-14" 234 0 basechar 0
LayerCount: 2
Fore
SplineSet
437 688 m 1,0,-1
 437 614 l 1,1,-1
 127 79 l 1,2,-1
 436 79 l 1,3,-1
 426 0 l 1,4,-1
 25 0 l 1,5,-1
 25 74 l 1,6,-1
 337 611 l 1,7,-1
 56 611 l 1,8,-1
 56 688 l 1,9,-1
 437 688 l 1,0,-1
EndSplineSet
Validated: 1
Substitution2: "'c2sc' Versalien in Kapit+AOQA-lchen Nachschlagetabelle 26 Subtabelle" z.sc
Substitution2: "'aalt' Zugriff auf alle Alternativen Nachschlagetabelle 0 Subtabelle" z.sc
Position2: "'cpsp' Spationierung von Versalien Nachschlagetabelle 0 Subtabelle" dx=5 dy=0 dh=10 dv=0
EndChar

StartChar: uni0224
Encoding: 484 548 327
Width: 471
GlyphClass: 2
Flags: W
AnchorPoint: "Anker-18" 0 0 basechar 0
AnchorPoint: "Anker-17" 0 0 basechar 0
AnchorPoint: "Anker-16" 236 688 basechar 0
AnchorPoint: "Anker-15" 0 0 basechar 0
AnchorPoint: "Anker-14" 237 -202 basechar 0
LayerCount: 2
Fore
SplineSet
437 614 m 1,0,-1
 127 79 l 1,1,-1
 431 79 l 1,2,-1
 431 -68 l 2,3,4
 431 -138 431 -138 393 -174.5 c 128,-1,5
 355 -211 355 -211 292 -211 c 0,6,7
 230 -211 230 -211 183 -174 c 1,8,-1
 219 -118 l 1,9,10
 236 -128 236 -128 250.5 -133 c 128,-1,11
 265 -138 265 -138 286 -138 c 0,12,13
 341 -138 341 -138 341 -71 c 2,14,-1
 341 0 l 1,15,-1
 25 0 l 1,16,-1
 25 74 l 1,17,-1
 337 611 l 1,18,-1
 56 611 l 1,19,-1
 56 688 l 1,20,-1
 437 688 l 1,21,-1
 437 614 l 1,0,-1
EndSplineSet
Validated: 1
Substitution2: "'c2sc' Versalien in Kapit+AOQA-lchen Nachschlagetabelle 26 Subtabelle" uni0225.sc
Substitution2: "'aalt' Zugriff auf alle Alternativen Nachschlagetabelle 0 Subtabelle" uni0225.sc
Position2: "'cpsp' Spationierung von Versalien Nachschlagetabelle 0 Subtabelle" dx=5 dy=0 dh=10 dv=0
EndChar

StartChar: uni01B5
Encoding: 373 437 328
Width: 472
GlyphClass: 2
Flags: W
AnchorPoint: "Anker-18" 0 0 basechar 0
AnchorPoint: "Anker-17" 0 0 basechar 0
AnchorPoint: "Anker-16" 237 688 basechar 0
AnchorPoint: "Anker-15" 0 0 basechar 0
AnchorPoint: "Anker-14" 237 0 basechar 0
LayerCount: 2
Fore
SplineSet
437 688 m 1,0,-1
 437 616 l 1,1,-1
 299 380 l 1,2,-1
 390 380 l 1,3,-1
 390 311 l 1,4,-1
 259 311 l 1,5,-1
 123 79 l 1,6,-1
 436 79 l 1,7,-1
 426 0 l 1,8,-1
 25 0 l 1,9,-1
 25 72 l 1,10,-1
 165 311 l 1,11,-1
 82 311 l 1,12,-1
 82 380 l 1,13,-1
 205 380 l 1,14,-1
 340 611 l 1,15,-1
 56 611 l 1,16,-1
 56 688 l 1,17,-1
 437 688 l 1,0,-1
EndSplineSet
Validated: 1
Substitution2: "'c2sc' Versalien in Kapit+AOQA-lchen Nachschlagetabelle 26 Subtabelle" uni01B6.sc
Substitution2: "'aalt' Zugriff auf alle Alternativen Nachschlagetabelle 0 Subtabelle" uni01B6.sc
Position2: "'cpsp' Spationierung von Versalien Nachschlagetabelle 0 Subtabelle" dx=5 dy=0 dh=10 dv=0
EndChar

StartChar: uni0262
Encoding: 546 610 330
Width: 509
GlyphClass: 2
Flags: W
AnchorPoint: "Anker-18" 0 0 basechar 0
AnchorPoint: "Anker-17" 0 0 basechar 0
AnchorPoint: "Anker-16" 275 526 basechar 0
AnchorPoint: "Anker-15" 0 0 basechar 0
AnchorPoint: "Anker-14" 262 0 basechar 0
LayerCount: 2
Fore
SplineSet
364.5 524 m 128,-1,1
 403 508 403 508 439 477 c 1,2,-1
 394 425 l 1,3,4
 365 447 365 447 338 457.5 c 128,-1,5
 311 468 311 468 279 468 c 0,6,7
 218 468 218 468 180.5 420 c 128,-1,8
 143 372 143 372 143 266 c 0,9,10
 143 153 143 153 175 106 c 128,-1,11
 207 59 207 59 269 59 c 0,12,13
 320 59 320 59 360 80 c 1,14,-1
 360 228 l 1,15,-1
 275 228 l 1,16,-1
 266 295 l 1,17,-1
 445 295 l 1,18,-1
 445 41 l 1,19,20
 363 -11 363 -11 269 -11 c 0,21,22
 49 -11 49 -11 49 266 c 0,23,24
 49 353 49 353 79.5 415 c 128,-1,25
 110 477 110 477 161.5 508.5 c 128,-1,26
 213 540 213 540 276 540 c 0,27,0
 326 540 326 540 364.5 524 c 128,-1,1
EndSplineSet
Validated: 1
EndChar

StartChar: uni029B
Encoding: 603 667 331
Width: 507
GlyphClass: 2
Flags: W
AnchorPoint: "Anker-18" 0 0 basechar 0
AnchorPoint: "Anker-17" 0 0 basechar 0
AnchorPoint: "Anker-16" 254 739 basechar 0
AnchorPoint: "Anker-15" 0 0 basechar 0
AnchorPoint: "Anker-14" 268 0 basechar 0
LayerCount: 2
Fore
SplineSet
591 713 m 1,1,-1
 559 657 l 1,2,3
 542 668 542 668 528 673 c 128,-1,4
 514 678 514 678 494 678 c 0,5,6
 439 678 439 678 439 609 c 2,7,-1
 439 477 l 1,8,-1
 398 429 l 1,9,10
 366 449 366 449 338.5 458.5 c 128,-1,11
 311 468 311 468 279 468 c 0,12,13
 218 468 218 468 180.5 420 c 128,-1,14
 143 372 143 372 143 266 c 0,15,16
 143 153 143 153 175 106 c 128,-1,17
 207 59 207 59 269 59 c 0,18,19
 320 59 320 59 360 80 c 1,20,-1
 360 228 l 1,21,-1
 275 228 l 1,22,-1
 266 295 l 1,23,-1
 445 295 l 1,24,-1
 445 41 l 1,25,26
 363 -11 363 -11 269 -11 c 0,27,28
 49 -11 49 -11 49 266 c 0,29,30
 49 353 49 353 79 415 c 128,-1,31
 109 477 109 477 159.5 508.5 c 128,-1,32
 210 540 210 540 271 540 c 0,33,34
 320 540 320 540 356 521 c 1,35,-1
 356 609 l 2,36,37
 356 676 356 676 390.5 712.5 c 128,-1,38
 425 749 425 749 485 749 c 0,39,0
 543 749 543 749 591 713 c 1,1,-1
EndSplineSet
Validated: 1
EndChar

StartChar: uni026A
Encoding: 554 618 333
Width: 297
GlyphClass: 2
Flags: W
AnchorPoint: "Anker-18" 0 0 basechar 0
AnchorPoint: "Anker-17" 0 0 basechar 0
AnchorPoint: "Anker-16" 149 526 basechar 0
AnchorPoint: "Anker-15" 0 0 basechar 0
AnchorPoint: "Anker-14" 149 0 basechar 0
LayerCount: 2
Fore
SplineSet
276 458 m 1,0,-1
 193 458 l 1,1,-1
 193 69 l 1,2,-1
 276 69 l 1,3,-1
 276 0 l 1,4,-1
 21 0 l 1,5,-1
 21 69 l 1,6,-1
 103 69 l 1,7,-1
 103 458 l 1,8,-1
 21 458 l 1,9,-1
 21 526 l 1,10,-1
 276 526 l 1,11,-1
 276 458 l 1,0,-1
EndSplineSet
Validated: 1
EndChar

StartChar: uni029F
Encoding: 607 671 334
Width: 389
GlyphClass: 2
Flags: W
AnchorPoint: "Anker-18" 0 0 basechar 0
AnchorPoint: "Anker-17" 0 0 basechar 0
AnchorPoint: "Anker-16" 126 526 basechar 0
AnchorPoint: "Anker-15" 0 0 basechar 0
AnchorPoint: "Anker-14" 224 0 basechar 0
LayerCount: 2
Fore
SplineSet
171 526 m 1,0,-1
 171 75 l 1,1,-1
 380 75 l 1,2,-1
 369 0 l 1,3,-1
 81 0 l 1,4,-1
 81 526 l 1,5,-1
 171 526 l 1,0,-1
EndSplineSet
Validated: 1
EndChar

StartChar: uni0274
Encoding: 564 628 335
Width: 534
GlyphClass: 2
Flags: W
AnchorPoint: "Anker-18" 0 0 basechar 0
AnchorPoint: "Anker-17" 0 0 basechar 0
AnchorPoint: "Anker-16" 267 526 basechar 0
AnchorPoint: "Anker-15" 0 0 basechar 0
AnchorPoint: "Anker-14" 267 0 basechar 0
LayerCount: 2
Fore
SplineSet
453 0 m 1,0,-1
 341 0 l 1,1,-1
 150 440 l 1,2,3
 161 337 161 337 161 219 c 2,4,-1
 161 0 l 1,5,-1
 81 0 l 1,6,-1
 81 526 l 1,7,-1
 193 526 l 1,8,-1
 384 86 l 1,9,10
 379 134 379 134 376 171 c 128,-1,11
 373 208 373 208 373 263 c 2,12,-1
 373 526 l 1,13,-1
 453 526 l 1,14,-1
 453 0 l 1,0,-1
EndSplineSet
Validated: 1
EndChar

StartChar: uni0276
Encoding: 566 630 336
Width: 675
GlyphClass: 2
Flags: W
AnchorPoint: "Anker-18" 0 0 basechar 0
AnchorPoint: "Anker-17" 0 0 basechar 0
AnchorPoint: "Anker-16" 368 526 basechar 0
AnchorPoint: "Anker-15" 0 0 basechar 0
AnchorPoint: "Anker-14" 368 0 basechar 0
LayerCount: 2
Fore
SplineSet
646 0 m 1,0,-1
 333 0 l 1,1,2
 296 -13 296 -13 262 -13 c 0,3,4
 162 -13 162 -13 105.5 60 c 128,-1,5
 49 133 49 133 49 263 c 0,6,7
 49 394 49 394 106 466.5 c 128,-1,8
 163 539 163 539 263 539 c 0,9,10
 303 539 303 539 339 526 c 1,11,-1
 643 526 l 1,12,-1
 634 458 l 1,13,-1
 412 458 l 1,14,15
 437 432 437 432 453 392.5 c 128,-1,16
 469 353 469 353 473 303 c 1,17,-1
 607 303 l 1,18,-1
 607 236 l 1,19,-1
 474 236 l 1,20,21
 468 127 468 127 408 68 c 1,22,-1
 646 68 l 1,23,-1
 646 0 l 1,0,-1
173.5 108 m 128,-1,25
 204 59 204 59 263 59 c 0,26,27
 319 59 319 59 351 109 c 128,-1,28
 383 159 383 159 383 264 c 0,29,30
 383 368 383 368 351 417.5 c 128,-1,31
 319 467 319 467 264 467 c 0,32,33
 205 467 205 467 174 418 c 128,-1,34
 143 369 143 369 143 263 c 256,35,24
 143 157 143 157 173.5 108 c 128,-1,25
EndSplineSet
Validated: 1
EndChar

StartChar: uni0280
Encoding: 576 640 337
Width: 478
GlyphClass: 2
Flags: W
AnchorPoint: "Anker-18" 0 0 basechar 0
AnchorPoint: "Anker-17" 0 0 basechar 0
AnchorPoint: "Anker-16" 238 526 basechar 0
AnchorPoint: "Anker-15" 0 0 basechar 0
AnchorPoint: "Anker-14" 238 0 basechar 0
LayerCount: 2
Fore
SplineSet
352 0 m 1,0,-1
 239 205 l 1,1,-1
 223 205 l 1,2,-1
 169 205 l 1,3,-1
 169 0 l 1,4,-1
 81 0 l 1,5,-1
 81 526 l 1,6,-1
 216 526 l 2,7,8
 317 526 317 526 368.5 484.5 c 128,-1,9
 420 443 420 443 420 365 c 0,10,11
 420 313 420 313 394.5 275.5 c 128,-1,12
 369 238 369 238 319 220 c 1,13,-1
 448 0 l 1,14,-1
 352 0 l 1,0,-1
227 269 m 2,15,16
 277 269 277 269 302.5 292 c 128,-1,17
 328 315 328 315 328 366 c 0,18,19
 328 415 328 415 301 437.5 c 128,-1,20
 274 460 274 460 214 460 c 2,21,-1
 169 460 l 1,22,-1
 169 269 l 1,23,-1
 227 269 l 2,15,16
EndSplineSet
Validated: 1
Substitution2: "'smcp' Gemeine in Kapit+AOQA-lchen Nachschlagetabelle 27 Subtabelle" uni0280.sc
Substitution2: "'aalt' Zugriff auf alle Alternativen Nachschlagetabelle 0 Subtabelle" uni0280.sc
EndChar

StartChar: uni0281
Encoding: 577 641 338
Width: 478
GlyphClass: 2
Flags: W
AnchorPoint: "Anker-18" 0 0 basechar 0
AnchorPoint: "Anker-17" 0 0 basechar 0
AnchorPoint: "Anker-16" 238 526 basechar 0
AnchorPoint: "Anker-15" 0 0 basechar 0
AnchorPoint: "Anker-14" 238 0 basechar 0
LayerCount: 2
Fore
SplineSet
395 252.5 m 128,-1,1
 420 215 420 215 420 162 c 0,2,3
 420 83 420 83 368.5 41.5 c 128,-1,4
 317 0 317 0 216 0 c 2,5,-1
 81 0 l 1,6,-1
 81 526 l 1,7,-1
 169 526 l 1,8,-1
 169 322 l 1,9,-1
 228 322 l 1,10,-1
 239 322 l 1,11,-1
 352 526 l 1,12,-1
 448 526 l 1,13,-1
 320 308 l 1,14,0
 370 290 370 290 395 252.5 c 128,-1,1
301 89 m 128,-1,16
 328 112 328 112 328 162 c 256,17,18
 328 212 328 212 302.5 234.5 c 128,-1,19
 277 257 277 257 227 257 c 2,20,-1
 169 257 l 1,21,-1
 169 66 l 1,22,-1
 214 66 l 2,23,15
 274 66 274 66 301 89 c 128,-1,16
EndSplineSet
Validated: 1
EndChar

StartChar: uni028F
Encoding: 591 655 339
Width: 412
GlyphClass: 2
Flags: W
AnchorPoint: "Anker-18" 0 0 basechar 0
AnchorPoint: "Anker-17" 0 0 basechar 0
AnchorPoint: "Anker-16" 206 526 basechar 0
AnchorPoint: "Anker-15" 0 0 basechar 0
AnchorPoint: "Anker-14" 206 0 basechar 0
LayerCount: 2
Fore
SplineSet
414 526 m 1,0,-1
 252 200 l 1,1,-1
 252 0 l 1,2,-1
 162 0 l 1,3,-1
 162 199 l 1,4,-1
 -2 526 l 1,5,-1
 91 526 l 1,6,-1
 208 261 l 1,7,-1
 323 526 l 1,8,-1
 414 526 l 1,0,-1
EndSplineSet
Validated: 1
EndChar

StartChar: a
Encoding: 66 97 340
Width: 490
GlyphClass: 2
Flags: W
AnchorPoint: "Anker-18" 0 0 basechar 0
AnchorPoint: "Anker-17" 0 0 basechar 0
AnchorPoint: "Anker-16" 237 526 basechar 0
AnchorPoint: "Anker-15" 436 -12 basechar 0
AnchorPoint: "Anker-14" 238 0 basechar 0
LayerCount: 2
Fore
SplineSet
418 72.5 m 128,-1,1
 427 57 427 57 446 49 c 1,2,-1
 427 -12 l 1,3,4
 388 -6 388 -6 366 12 c 128,-1,5
 344 30 344 30 335 67 c 1,6,7
 284 -13 284 -13 192 -13 c 0,8,9
 122 -13 122 -13 81 30.5 c 128,-1,10
 40 74 40 74 40 147 c 0,11,12
 40 231 40 231 95 275 c 128,-1,13
 150 319 150 319 252 319 c 2,14,-1
 320 319 l 1,15,-1
 320 364 l 2,16,17
 320 419 320 419 297.5 443.5 c 128,-1,18
 275 468 275 468 224 468 c 0,19,20
 169 468 169 468 96 440 c 1,21,-1
 74 503 l 1,22,23
 162 539 162 539 238 539 c 0,24,25
 409 539 409 539 409 368 c 2,26,-1
 409 120 l 2,27,0
 409 88 409 88 418 72.5 c 128,-1,1
320 137 m 1,29,-1
 320 261 l 1,30,-1
 262 261 l 2,31,32
 132 261 132 261 132 152 c 0,33,34
 132 105 132 105 153 80 c 128,-1,35
 174 55 174 55 213 55 c 0,36,28
 283 55 283 55 320 137 c 1,29,-1
EndSplineSet
Validated: 1
Substitution2: "Einzelne Substitution Nachschlagetabelle 45 Subtabelle" ordfeminine
Substitution2: "'ss04' Stilgruppe 4 Nachschlagetabelle 36 Subtabelle" a.ss04
Substitution2: "'salt' Stilistische Alternativformen Nachschlagetabelle 32 Subtabelle" a.ss04
Substitution2: "'smcp' Gemeine in Kapit+AOQA-lchen Nachschlagetabelle 27 Subtabelle" a.sc
AlternateSubs2: "'aalt' Zugriff auf alle Alternativen Nachschlagetabelle 1 Subtabelle" ordfeminine a.sc a.ss04
EndChar

StartChar: a.ss04
Encoding: 1697 -1 341
Width: 537
GlyphClass: 2
Flags: W
AnchorPoint: "Anker-18" 0 0 basechar 0
AnchorPoint: "Anker-17" 0 0 basechar 0
AnchorPoint: "Anker-16" 269 526 basechar 0
AnchorPoint: "Anker-15" 0 0 basechar 0
AnchorPoint: "Anker-14" 269 0 basechar 0
LayerCount: 2
Fore
SplineSet
460 83.5 m 128,-1,1
 469 68 469 68 492 56 c 1,2,-1
 466 -12 l 1,3,4
 425 -1 425 -1 403 17.5 c 128,-1,5
 381 36 381 36 370 67 c 1,6,7
 346 30 346 30 311.5 8.5 c 128,-1,8
 277 -13 277 -13 232 -13 c 0,9,10
 147 -13 147 -13 98 59 c 128,-1,11
 49 131 49 131 49 261 c 0,12,13
 49 345 49 345 72.5 408 c 128,-1,14
 96 471 96 471 139 505 c 128,-1,15
 182 539 182 539 239 539 c 0,16,17
 319 539 319 539 367 470 c 1,18,-1
 373 526 l 1,19,-1
 451 526 l 1,20,-1
 451 133 l 2,21,0
 451 99 451 99 460 83.5 c 128,-1,1
312.5 77.5 m 128,-1,23
 339 97 339 97 361 135 c 1,24,-1
 361 403 l 1,25,26
 340 435 340 435 316 451.5 c 128,-1,27
 292 468 292 468 259 468 c 0,28,29
 205 468 205 468 174 418 c 128,-1,30
 143 368 143 368 143 263 c 0,31,32
 144 155 144 155 171.5 106.5 c 128,-1,33
 199 58 199 58 251 58 c 0,34,22
 286 58 286 58 312.5 77.5 c 128,-1,23
EndSplineSet
Validated: 1
EndChar

StartChar: uni0251
Encoding: 529 593 365
Width: 537
GlyphClass: 2
Flags: W
AnchorPoint: "Anker-18" 0 0 basechar 0
AnchorPoint: "Anker-17" 0 0 basechar 0
AnchorPoint: "Anker-16" 269 526 basechar 0
AnchorPoint: "Anker-15" 0 0 basechar 0
AnchorPoint: "Anker-14" 269 0 basechar 0
LayerCount: 2
Fore
SplineSet
460 83.5 m 128,-1,1
 469 68 469 68 492 56 c 1,2,-1
 466 -12 l 1,3,4
 425 -1 425 -1 403 17.5 c 128,-1,5
 381 36 381 36 370 67 c 1,6,7
 346 30 346 30 311.5 8.5 c 128,-1,8
 277 -13 277 -13 232 -13 c 0,9,10
 147 -13 147 -13 98 59 c 128,-1,11
 49 131 49 131 49 261 c 0,12,13
 49 345 49 345 72.5 408 c 128,-1,14
 96 471 96 471 139 505 c 128,-1,15
 182 539 182 539 239 539 c 0,16,17
 319 539 319 539 367 470 c 1,18,-1
 373 526 l 1,19,-1
 451 526 l 1,20,-1
 451 133 l 2,21,0
 451 99 451 99 460 83.5 c 128,-1,1
312.5 77.5 m 128,-1,23
 339 97 339 97 361 135 c 1,24,-1
 361 403 l 1,25,26
 340 435 340 435 316 451.5 c 128,-1,27
 292 468 292 468 259 468 c 0,28,29
 205 468 205 468 174 418 c 128,-1,30
 143 368 143 368 143 263 c 0,31,32
 144 155 144 155 171.5 106.5 c 128,-1,33
 199 58 199 58 251 58 c 0,34,22
 286 58 286 58 312.5 77.5 c 128,-1,23
EndSplineSet
Validated: 1
Substitution2: "'smcp' Gemeine in Kapit+AOQA-lchen Nachschlagetabelle 27 Subtabelle" uni0251.sc
Substitution2: "'aalt' Zugriff auf alle Alternativen Nachschlagetabelle 0 Subtabelle" uni0251.sc
EndChar

StartChar: uni0252
Encoding: 530 594 366
Width: 537
GlyphClass: 2
Flags: W
AnchorPoint: "Anker-18" 0 0 basechar 0
AnchorPoint: "Anker-17" 0 0 basechar 0
AnchorPoint: "Anker-16" 266 526 basechar 0
AnchorPoint: "Anker-15" 0 0 basechar 0
AnchorPoint: "Anker-14" 266 0 basechar 0
LayerCount: 2
Fore
SplineSet
439 467 m 128,-1,1
 488 395 488 395 488 265 c 0,2,3
 488 181 488 181 464.5 118 c 128,-1,4
 441 55 441 55 398 21 c 128,-1,5
 355 -13 355 -13 298 -13 c 0,6,7
 218 -13 218 -13 170 56 c 1,8,-1
 164 0 l 1,9,-1
 86 0 l 1,10,-1
 86 393 l 2,11,12
 86 427 86 427 77 442.5 c 128,-1,13
 68 458 68 458 45 470 c 1,14,-1
 71 538 l 1,15,16
 112 527 112 527 134 508.5 c 128,-1,17
 156 490 156 490 167 459 c 1,18,19
 191 496 191 496 225.5 517.5 c 128,-1,20
 260 539 260 539 305 539 c 0,21,0
 390 539 390 539 439 467 c 128,-1,1
363 108 m 128,-1,23
 394 158 394 158 394 263 c 0,24,25
 393 371 393 371 365.5 419.5 c 128,-1,26
 338 468 338 468 286 468 c 0,27,28
 251 468 251 468 224.5 448.5 c 128,-1,29
 198 429 198 429 176 391 c 1,30,-1
 176 123 l 1,31,32
 197 91 197 91 221 74.5 c 128,-1,33
 245 58 245 58 278 58 c 0,34,22
 332 58 332 58 363 108 c 128,-1,23
EndSplineSet
Validated: 1
EndChar

StartChar: aogonek
Encoding: 197 261 368
Width: 490
GlyphClass: 2
Flags: W
AnchorPoint: "Anker-18" 0 0 basechar 0
AnchorPoint: "Anker-17" 0 0 basechar 0
AnchorPoint: "Anker-16" 237 526 basechar 0
AnchorPoint: "Anker-15" 436 -12 basechar 0
AnchorPoint: "Anker-14" 238 0 basechar 0
LayerCount: 2
Fore
SplineSet
342 -67.5 m 128,-1,1
 318 -94 318 -94 318 -126 c 0,2,3
 318 -175 318 -175 371 -175 c 0,4,5
 394 -175 394 -175 424 -169 c 1,6,-1
 417 -233 l 1,7,8
 384 -240 384 -240 360 -240 c 0,9,10
 307 -240 307 -240 276.5 -213 c 128,-1,11
 246 -186 246 -186 246 -140 c 0,12,13
 246 -92 246 -92 278 -56.5 c 128,-1,14
 310 -21 310 -21 374 6 c 1,15,16
 345 26 345 26 335 67 c 1,17,18
 284 -13 284 -13 192 -13 c 0,19,20
 122 -13 122 -13 81 30.5 c 128,-1,21
 40 74 40 74 40 147 c 0,22,23
 40 231 40 231 95 275 c 128,-1,24
 150 319 150 319 252 319 c 2,25,-1
 320 319 l 1,26,-1
 320 364 l 2,27,28
 320 419 320 419 297.5 443.5 c 128,-1,29
 275 468 275 468 224 468 c 0,30,31
 169 468 169 468 96 440 c 1,32,-1
 74 503 l 1,33,34
 162 539 162 539 238 539 c 0,35,36
 409 539 409 539 409 368 c 2,37,-1
 409 120 l 2,38,39
 409 88 409 88 418 72.5 c 128,-1,40
 427 57 427 57 446 49 c 1,41,-1
 427 -12 l 1,42,0
 366 -41 366 -41 342 -67.5 c 128,-1,1
320 137 m 1,44,-1
 320 261 l 1,45,-1
 262 261 l 2,46,47
 132 261 132 261 132 152 c 0,48,49
 132 105 132 105 153 80 c 128,-1,50
 174 55 174 55 213 55 c 0,51,43
 283 55 283 55 320 137 c 1,44,-1
EndSplineSet
Validated: 1
Substitution2: "'smcp' Gemeine in Kapit+AOQA-lchen Nachschlagetabelle 27 Subtabelle" aogonek.sc
Substitution2: "'aalt' Zugriff auf alle Alternativen Nachschlagetabelle 0 Subtabelle" aogonek.sc
EndChar

StartChar: aringacute
Encoding: 443 507 370
Width: 490
GlyphClass: 2
Flags: W
AnchorPoint: "Anker-18" 0 0 basechar 0
AnchorPoint: "Anker-17" 0 0 basechar 0
AnchorPoint: "Anker-16" 240 958 basechar 0
AnchorPoint: "Anker-15" 436 -12 basechar 0
AnchorPoint: "Anker-14" 238 0 basechar 0
LayerCount: 2
Fore
SplineSet
347 883 m 1,0,-1
 153 804 l 1,1,-1
 129 851 l 1,2,-1
 309 956 l 1,3,-1
 347 883 l 1,0,-1
161.5 766 m 128,-1,5
 190 795 190 795 237 795 c 256,6,7
 284 795 284 795 312.5 766 c 128,-1,8
 341 737 341 737 341 690 c 256,9,10
 341 643 341 643 312.5 613.5 c 128,-1,11
 284 584 284 584 237 584 c 256,12,13
 190 584 190 584 161.5 613.5 c 128,-1,14
 133 643 133 643 133 690 c 256,15,4
 133 737 133 737 161.5 766 c 128,-1,5
237 747 m 0,17,18
 191 747 191 747 191 690 c 256,19,20
 191 633 191 633 237 633 c 0,21,22
 284 633 284 633 284 690 c 256,23,16
 284 747 284 747 237 747 c 0,17,18
418 72.5 m 128,-1,25
 427 57 427 57 446 49 c 1,26,-1
 427 -12 l 1,27,28
 388 -6 388 -6 366 12 c 128,-1,29
 344 30 344 30 335 67 c 1,30,31
 284 -13 284 -13 192 -13 c 0,32,33
 122 -13 122 -13 81 30.5 c 128,-1,34
 40 74 40 74 40 147 c 0,35,36
 40 231 40 231 95 275 c 128,-1,37
 150 319 150 319 252 319 c 2,38,-1
 320 319 l 1,39,-1
 320 364 l 2,40,41
 320 419 320 419 297.5 443.5 c 128,-1,42
 275 468 275 468 224 468 c 0,43,44
 169 468 169 468 96 440 c 1,45,-1
 74 503 l 1,46,47
 162 539 162 539 238 539 c 0,48,49
 409 539 409 539 409 368 c 2,50,-1
 409 120 l 2,51,24
 409 88 409 88 418 72.5 c 128,-1,25
320 137 m 1,53,-1
 320 261 l 1,54,-1
 262 261 l 2,55,56
 132 261 132 261 132 152 c 0,57,58
 132 105 132 105 153 80 c 128,-1,59
 174 55 174 55 213 55 c 0,60,52
 283 55 283 55 320 137 c 1,53,-1
EndSplineSet
Validated: 1
Substitution2: "'smcp' Gemeine in Kapit+AOQA-lchen Nachschlagetabelle 27 Subtabelle" aringacute.sc
Substitution2: "'aalt' Zugriff auf alle Alternativen Nachschlagetabelle 0 Subtabelle" aringacute.sc
EndChar

StartChar: uni2C65
Encoding: 1662 11365 371
Width: 490
GlyphClass: 2
Flags: W
AnchorPoint: "Anker-18" 0 0 basechar 0
AnchorPoint: "Anker-17" 0 0 basechar 0
AnchorPoint: "Anker-16" 245 526 basechar 0
AnchorPoint: "Anker-15" 0 0 basechar 0
AnchorPoint: "Anker-14" 245 0 basechar 0
LayerCount: 2
Fore
SplineSet
418 72.5 m 128,-1,1
 427 57 427 57 446 49 c 1,2,-1
 427 -12 l 1,3,4
 388 -6 388 -6 366 12 c 128,-1,5
 344 30 344 30 335 67 c 1,6,7
 285 -11 285 -11 194 -13 c 1,8,-1
 180 -71 l 1,9,-1
 142 -62 l 1,10,-1
 155 -9 l 1,11,12
 101 2 101 2 70.5 43.5 c 128,-1,13
 40 85 40 85 40 147 c 0,14,15
 40 227 40 227 90 270.5 c 128,-1,16
 140 314 140 314 234 318 c 1,17,-1
 269 465 l 1,18,19
 249 470 249 470 227 470 c 0,20,21
 173 470 173 470 96 442 c 1,22,-1
 74 503 l 1,23,24
 162 539 162 539 238 539 c 0,25,26
 267 539 267 539 286 535 c 1,27,-1
 301 595 l 1,28,-1
 339 586 l 1,29,-1
 324 524 l 1,30,31
 409 489 409 489 409 368 c 2,32,-1
 409 120 l 2,33,0
 409 88 409 88 418 72.5 c 128,-1,1
304 442 m 1,35,-1
 274 318 l 1,36,-1
 324 318 l 1,37,-1
 324 364 l 2,38,34
 324 418 324 418 304 442 c 1,35,-1
324 135 m 1,40,-1
 324 261 l 1,41,-1
 262 261 l 1,42,-1
 260 261 l 1,43,-1
 210 53 l 1,44,39
 284 53 284 53 324 135 c 1,40,-1
172 61 m 1,46,-1
 219 258 l 1,47,48
 128 242 128 242 128 152 c 0,49,45
 128 81 128 81 172 61 c 1,46,-1
EndSplineSet
Validated: 1
Substitution2: "'smcp' Gemeine in Kapit+AOQA-lchen Nachschlagetabelle 27 Subtabelle" uni2C65.sc
Substitution2: "'aalt' Zugriff auf alle Alternativen Nachschlagetabelle 0 Subtabelle" uni2C65.sc
EndChar

StartChar: uni0250
Encoding: 528 592 373
Width: 490
GlyphClass: 2
Flags: W
AnchorPoint: "Anker-18" 0 0 basechar 0
AnchorPoint: "Anker-17" 0 0 basechar 0
AnchorPoint: "Anker-16" 244 526 basechar 0
AnchorPoint: "Anker-15" 54 538 basechar 0
AnchorPoint: "Anker-14" 244 0 basechar 0
LayerCount: 2
Fore
SplineSet
394 86 m 1,1,-1
 416 23 l 1,2,3
 328 -13 328 -13 252 -13 c 0,4,5
 81 -13 81 -13 81 158 c 2,6,-1
 81 406 l 2,7,8
 81 438 81 438 72 453.5 c 128,-1,9
 63 469 63 469 44 477 c 1,10,-1
 63 538 l 1,11,12
 102 532 102 532 124 514 c 128,-1,13
 146 496 146 496 155 459 c 1,14,15
 206 539 206 539 298 539 c 0,16,17
 368 539 368 539 409 495.5 c 128,-1,18
 450 452 450 452 450 379 c 0,19,20
 450 295 450 295 395 251 c 128,-1,21
 340 207 340 207 238 207 c 2,22,-1
 170 207 l 1,23,-1
 170 162 l 2,24,25
 170 107 170 107 192.5 82.5 c 128,-1,26
 215 58 215 58 266 58 c 0,27,0
 321 58 321 58 394 86 c 1,1,-1
170 389 m 1,29,-1
 170 265 l 1,30,-1
 228 265 l 2,31,32
 358 265 358 265 358 374 c 0,33,34
 358 421 358 421 337 446 c 128,-1,35
 316 471 316 471 277 471 c 0,36,28
 207 471 207 471 170 389 c 1,29,-1
EndSplineSet
Validated: 1
EndChar

StartChar: ae
Encoding: 166 230 374
Width: 769
GlyphClass: 2
Flags: W
AnchorPoint: "Anker-18" 0 0 basechar 0
AnchorPoint: "Anker-17" 0 0 basechar 0
AnchorPoint: "Anker-16" 385 526 basechar 0
AnchorPoint: "Anker-15" 0 0 basechar 0
AnchorPoint: "Anker-14" 376 0 basechar 0
LayerCount: 2
Fore
SplineSet
723 232 m 1,1,-1
 416 232 l 1,2,3
 422 142 422 142 456 100.5 c 128,-1,4
 490 59 490 59 546 59 c 0,5,6
 580 59 580 59 608 70 c 128,-1,7
 636 81 636 81 667 106 c 1,8,-1
 707 54 l 1,9,10
 632 -13 632 -13 539 -13 c 0,11,12
 480 -13 480 -13 435 12.5 c 128,-1,13
 390 38 390 38 363 86 c 1,14,15
 329 33 329 33 288.5 10 c 128,-1,16
 248 -13 248 -13 196 -13 c 0,17,18
 125 -13 125 -13 82.5 31 c 128,-1,19
 40 75 40 75 40 147 c 0,20,21
 40 229 40 229 96.5 274 c 128,-1,22
 153 319 153 319 255 319 c 2,23,-1
 323 319 l 1,24,-1
 323 360 l 2,25,26
 323 418 323 418 300.5 443 c 128,-1,27
 278 468 278 468 226 468 c 256,28,29
 174 468 174 468 99 440 c 1,30,-1
 78 503 l 1,31,32
 166 539 166 539 240 539 c 0,33,34
 297 539 297 539 331.5 517.5 c 128,-1,35
 366 496 366 496 384 454 c 1,36,37
 437 539 437 539 534 539 c 0,38,39
 624 539 624 539 674.5 471 c 128,-1,40
 725 403 725 403 725 279 c 0,41,0
 725 258 725 258 723 232 c 1,1,-1
637 306 m 2,42,43
 637 471 637 471 530 471 c 0,44,45
 424 471 424 471 416 295 c 1,46,-1
 637 295 l 1,47,-1
 637 306 l 2,42,43
282.5 77 m 128,-1,49
 312 99 312 99 338 147 c 1,50,51
 324 197 324 197 324 253 c 2,52,-1
 324 260 l 1,53,-1
 266 260 l 2,54,55
 135 260 135 260 135 151 c 0,56,57
 135 104 135 104 156 79.5 c 128,-1,58
 177 55 177 55 216 55 c 0,59,48
 253 55 253 55 282.5 77 c 128,-1,49
EndSplineSet
Validated: 1
Substitution2: "'smcp' Gemeine in Kapit+AOQA-lchen Nachschlagetabelle 27 Subtabelle" ae.sc
Substitution2: "'aalt' Zugriff auf alle Alternativen Nachschlagetabelle 0 Subtabelle" ae.sc
EndChar

StartChar: b
Encoding: 67 98 377
Width: 532
GlyphClass: 2
Flags: W
AnchorPoint: "Anker-18" 0 0 basechar 0
AnchorPoint: "Anker-17" 0 0 basechar 0
AnchorPoint: "Anker-16" 281 739 basechar 0
AnchorPoint: "Anker-15" 0 0 basechar 0
AnchorPoint: "Anker-14" 276 0 basechar 0
LayerCount: 2
Fore
SplineSet
435.5 468.5 m 128,-1,1
 481 398 481 398 481 264 c 0,2,3
 481 136 481 136 431.5 61.5 c 128,-1,4
 382 -13 382 -13 297 -13 c 0,5,6
 257 -13 257 -13 224 5.5 c 128,-1,7
 191 24 191 24 167 58 c 1,8,-1
 161 0 l 1,9,-1
 81 0 l 1,10,-1
 81 738 l 1,11,-1
 171 748 l 1,12,-1
 171 462 l 1,13,14
 196 498 196 498 230.5 518.5 c 128,-1,15
 265 539 265 539 307 539 c 0,16,0
 390 539 390 539 435.5 468.5 c 128,-1,1
387 264 m 0,18,19
 387 375 387 375 360 421.5 c 128,-1,20
 333 468 333 468 283 468 c 0,21,22
 248 468 248 468 221.5 447 c 128,-1,23
 195 426 195 426 171 388 c 1,24,-1
 171 127 l 1,25,26
 190 96 190 96 217 77 c 128,-1,27
 244 58 244 58 276 58 c 0,28,17
 387 58 387 58 387 264 c 0,18,19
EndSplineSet
Validated: 1
Substitution2: "'smcp' Gemeine in Kapit+AOQA-lchen Nachschlagetabelle 27 Subtabelle" b.sc
Substitution2: "'aalt' Zugriff auf alle Alternativen Nachschlagetabelle 0 Subtabelle" b.sc
EndChar

StartChar: uni0253
Encoding: 531 595 381
Width: 532
GlyphClass: 2
Flags: W
AnchorPoint: "Anker-18" 0 0 basechar 0
AnchorPoint: "Anker-17" 0 0 basechar 0
AnchorPoint: "Anker-16" 267 739 basechar 0
AnchorPoint: "Anker-15" 0 0 basechar 0
AnchorPoint: "Anker-14" 267 0 basechar 0
LayerCount: 2
Fore
SplineSet
435.5 468.5 m 128,-1,1
 481 398 481 398 481 264 c 0,2,3
 481 136 481 136 431.5 61.5 c 128,-1,4
 382 -13 382 -13 297 -13 c 0,5,6
 257 -13 257 -13 224 5.5 c 128,-1,7
 191 24 191 24 167 58 c 1,8,-1
 161 0 l 1,9,-1
 81 0 l 1,10,-1
 81 605 l 2,11,12
 81 670 81 670 121 709.5 c 128,-1,13
 161 749 161 749 234 749 c 0,14,15
 294 749 294 749 352 720 c 1,16,-1
 324 658 l 1,17,18
 284 678 284 678 243 678 c 0,19,20
 206 678 206 678 188.5 660 c 128,-1,21
 171 642 171 642 171 604 c 2,22,-1
 171 462 l 1,23,24
 196 498 196 498 230.5 518.5 c 128,-1,25
 265 539 265 539 307 539 c 0,26,0
 390 539 390 539 435.5 468.5 c 128,-1,1
387 264 m 0,28,29
 387 375 387 375 360 421.5 c 128,-1,30
 333 468 333 468 283 468 c 0,31,32
 248 468 248 468 221.5 447 c 128,-1,33
 195 426 195 426 171 388 c 1,34,-1
 171 127 l 1,35,36
 190 96 190 96 217 77 c 128,-1,37
 244 58 244 58 276 58 c 0,38,27
 387 58 387 58 387 264 c 0,28,29
EndSplineSet
Validated: 1
Substitution2: "'smcp' Gemeine in Kapit+AOQA-lchen Nachschlagetabelle 27 Subtabelle" uni0253.sc
Substitution2: "'aalt' Zugriff auf alle Alternativen Nachschlagetabelle 0 Subtabelle" uni0253.sc
EndChar

StartChar: uni02AD
Encoding: 621 685 382
Width: 314
GlyphClass: 2
Flags: W
AnchorPoint: "Anker-18" 0 0 basechar 0
AnchorPoint: "Anker-17" 0 0 basechar 0
AnchorPoint: "Anker-16" 0 0 basechar 0
AnchorPoint: "Anker-15" 0 0 basechar 0
AnchorPoint: "Anker-14" 157 163 basechar 0
LayerCount: 2
Fore
SplineSet
30 400 m 1,0,-1
 30 545 l 1,1,-1
 284 545 l 1,2,-1
 284 400 l 1,3,-1
 225 400 l 1,4,-1
 225 489 l 1,5,-1
 89 489 l 1,6,-1
 89 400 l 1,7,-1
 30 400 l 1,0,-1
30 -1 m 1,8,-1
 30 144 l 1,9,-1
 284 144 l 1,10,-1
 284 -1 l 1,11,-1
 225 -1 l 1,12,-1
 225 88 l 1,13,-1
 89 88 l 1,14,-1
 89 -1 l 1,15,-1
 30 -1 l 1,8,-1
EndSplineSet
Validated: 1
EndChar

StartChar: uni0298
Encoding: 600 664 383
Width: 720
GlyphClass: 2
Flags: W
AnchorPoint: "Anker-18" 0 0 basechar 0
AnchorPoint: "Anker-17" 0 0 basechar 0
AnchorPoint: "Anker-16" 360 688 basechar 0
AnchorPoint: "Anker-15" 0 0 basechar 0
AnchorPoint: "Anker-14" 360 0 basechar 0
LayerCount: 2
Fore
SplineSet
522 659.5 m 128,-1,1
 592 618 592 618 631 538 c 128,-1,2
 670 458 670 458 670 344 c 0,3,4
 670 232 670 232 631.5 151.5 c 128,-1,5
 593 71 593 71 523 29 c 128,-1,6
 453 -13 453 -13 360 -13 c 0,7,8
 268 -13 268 -13 198 28.5 c 128,-1,9
 128 70 128 70 89 150 c 128,-1,10
 50 230 50 230 50 344 c 0,11,12
 50 455 50 455 89 535.5 c 128,-1,13
 128 616 128 616 198.5 658.5 c 128,-1,14
 269 701 269 701 360 701 c 0,15,0
 452 701 452 701 522 659.5 c 128,-1,1
197.5 560 m 128,-1,17
 138 489 138 489 138 344 c 0,18,19
 138 198 138 198 198 127.5 c 128,-1,20
 258 57 258 57 361 57 c 0,21,22
 466 57 466 57 524 127.5 c 128,-1,23
 582 198 582 198 582 344 c 0,24,25
 582 489 582 489 523 560 c 128,-1,26
 464 631 464 631 361 631 c 0,27,16
 257 631 257 631 197.5 560 c 128,-1,17
403.5 383.5 m 128,-1,29
 419 367 419 367 419 342 c 0,30,31
 419 318 419 318 403.5 302 c 128,-1,32
 388 286 388 286 362 286 c 0,33,34
 337 286 337 286 320.5 302 c 128,-1,35
 304 318 304 318 304 342 c 256,36,37
 304 366 304 366 320.5 383 c 128,-1,38
 337 400 337 400 362 400 c 0,39,28
 388 400 388 400 403.5 383.5 c 128,-1,29
EndSplineSet
Validated: 1
EndChar

StartChar: uni0180
Encoding: 320 384 385
Width: 537
GlyphClass: 2
Flags: W
AnchorPoint: "Anker-18" 0 0 basechar 0
AnchorPoint: "Anker-17" 0 0 basechar 0
AnchorPoint: "Anker-16" 286 739 basechar 0
AnchorPoint: "Anker-15" 0 0 basechar 0
AnchorPoint: "Anker-14" 281 0 basechar 0
LayerCount: 2
Fore
SplineSet
440.5 468.5 m 128,-1,1
 486 398 486 398 486 264 c 0,2,3
 486 136 486 136 436.5 61.5 c 128,-1,4
 387 -13 387 -13 302 -13 c 0,5,6
 262 -13 262 -13 229 5.5 c 128,-1,7
 196 24 196 24 172 58 c 1,8,-1
 166 0 l 1,9,-1
 86 0 l 1,10,-1
 86 609 l 1,11,-1
 21 609 l 1,12,-1
 21 673 l 1,13,-1
 86 673 l 1,14,-1
 86 738 l 1,15,-1
 176 748 l 1,16,-1
 176 673 l 1,17,-1
 311 673 l 1,18,-1
 311 609 l 1,19,-1
 176 609 l 1,20,-1
 176 462 l 1,21,22
 201 498 201 498 235.5 518.5 c 128,-1,23
 270 539 270 539 312 539 c 0,24,0
 395 539 395 539 440.5 468.5 c 128,-1,1
392 264 m 0,26,27
 392 375 392 375 365 421.5 c 128,-1,28
 338 468 338 468 288 468 c 0,29,30
 253 468 253 468 226.5 447 c 128,-1,31
 200 426 200 426 176 388 c 1,32,-1
 176 127 l 1,33,34
 195 96 195 96 222 77 c 128,-1,35
 249 58 249 58 281 58 c 0,36,25
 392 58 392 58 392 264 c 0,26,27
EndSplineSet
Validated: 1
Substitution2: "'smcp' Gemeine in Kapit+AOQA-lchen Nachschlagetabelle 27 Subtabelle" uni0180.sc
Substitution2: "'aalt' Zugriff auf alle Alternativen Nachschlagetabelle 0 Subtabelle" uni0180.sc
EndChar

StartChar: uni0183
Encoding: 323 387 386
Width: 532
GlyphClass: 2
Flags: W
AnchorPoint: "Anker-18" 0 0 basechar 0
AnchorPoint: "Anker-17" 0 0 basechar 0
AnchorPoint: "Anker-16" 275 739 basechar 0
AnchorPoint: "Anker-15" 0 0 basechar 0
AnchorPoint: "Anker-14" 271 0 basechar 0
LayerCount: 2
Fore
SplineSet
435.5 468.5 m 128,-1,1
 481 398 481 398 481 264 c 0,2,3
 481 136 481 136 431.5 61.5 c 128,-1,4
 382 -13 382 -13 297 -13 c 0,5,6
 257 -13 257 -13 224 5.5 c 128,-1,7
 191 24 191 24 167 58 c 1,8,-1
 161 0 l 1,9,-1
 81 0 l 1,10,-1
 81 739 l 1,11,-1
 376 739 l 1,12,-1
 365 670 l 1,13,-1
 171 670 l 1,14,-1
 171 462 l 1,15,16
 196 498 196 498 230.5 518.5 c 128,-1,17
 265 539 265 539 307 539 c 0,18,0
 390 539 390 539 435.5 468.5 c 128,-1,1
387 264 m 0,20,21
 387 375 387 375 360 421.5 c 128,-1,22
 333 468 333 468 283 468 c 0,23,24
 248 468 248 468 221.5 447 c 128,-1,25
 195 426 195 426 171 388 c 1,26,-1
 171 127 l 1,27,28
 190 96 190 96 217 77 c 128,-1,29
 244 58 244 58 276 58 c 0,30,19
 387 58 387 58 387 264 c 0,20,21
EndSplineSet
Validated: 1
Substitution2: "'smcp' Gemeine in Kapit+AOQA-lchen Nachschlagetabelle 27 Subtabelle" uni0183.sc
Substitution2: "'aalt' Zugriff auf alle Alternativen Nachschlagetabelle 0 Subtabelle" uni0183.sc
EndChar

StartChar: c
Encoding: 68 99 387
Width: 428
GlyphClass: 2
Flags: W
AnchorPoint: "Anker-18" 0 0 basechar 0
AnchorPoint: "Anker-17" 0 0 basechar 0
AnchorPoint: "Anker-16" 263 526 basechar 0
AnchorPoint: "Anker-15" 0 0 basechar 0
AnchorPoint: "Anker-14" 257 0 basechar 0
LayerCount: 2
Fore
SplineSet
341 525 m 128,-1,1
 376 511 376 511 408 482 c 1,2,-1
 368 428 l 1,3,4
 344 447 344 447 320 456.5 c 128,-1,5
 296 466 296 466 268 466 c 0,6,7
 209 466 209 466 176.5 416 c 128,-1,8
 144 366 144 366 144 260 c 0,9,10
 144 62 144 62 268 62 c 0,11,12
 296 62 296 62 319 71.5 c 128,-1,13
 342 81 342 81 368 100 c 1,14,-1
 410 45 l 1,15,16
 346 -13 346 -13 265 -13 c 0,17,18
 164 -13 164 -13 106.5 57 c 128,-1,19
 49 127 49 127 49 259 c 0,20,21
 49 345 49 345 75.5 408 c 128,-1,22
 102 471 102 471 150.5 505 c 128,-1,23
 199 539 199 539 264 539 c 0,24,0
 306 539 306 539 341 525 c 128,-1,1
EndSplineSet
Validated: 1
Substitution2: "'smcp' Gemeine in Kapit+AOQA-lchen Nachschlagetabelle 27 Subtabelle" c.sc
Substitution2: "'aalt' Zugriff auf alle Alternativen Nachschlagetabelle 0 Subtabelle" c.sc
EndChar

StartChar: ccedilla
Encoding: 167 231 391
Width: 428
GlyphClass: 2
Flags: W
AnchorPoint: "Anker-18" 0 0 basechar 0
AnchorPoint: "Anker-17" 0 0 basechar 0
AnchorPoint: "Anker-16" 263 526 basechar 0
AnchorPoint: "Anker-15" 0 0 basechar 0
AnchorPoint: "Anker-14" 272 -239 basechar 0
LayerCount: 2
Fore
SplineSet
346.5 -86.5 m 128,-1,1
 368 -108 368 -108 368 -143 c 0,2,3
 368 -188 368 -188 336.5 -213.5 c 128,-1,4
 305 -239 305 -239 256 -239 c 0,5,6
 206 -239 206 -239 172 -215 c 1,7,-1
 196 -169 l 1,8,9
 222 -182 222 -182 251 -182 c 0,10,11
 272 -182 272 -182 284.5 -172 c 128,-1,12
 297 -162 297 -162 297 -143 c 0,13,14
 297 -121 297 -121 277.5 -110.5 c 128,-1,15
 258 -100 258 -100 216 -100 c 1,16,-1
 225 -10 l 1,17,18
 142 3 142 3 95.5 72 c 128,-1,19
 49 141 49 141 49 259 c 0,20,21
 49 345 49 345 75.5 408 c 128,-1,22
 102 471 102 471 150.5 505 c 128,-1,23
 199 539 199 539 264 539 c 0,24,25
 306 539 306 539 341 525 c 128,-1,26
 376 511 376 511 408 482 c 1,27,-1
 368 428 l 1,28,29
 344 447 344 447 320 456.5 c 128,-1,30
 296 466 296 466 268 466 c 0,31,32
 209 466 209 466 176.5 416 c 128,-1,33
 144 366 144 366 144 260 c 0,34,35
 144 62 144 62 268 62 c 0,36,37
 296 62 296 62 319 71.5 c 128,-1,38
 342 81 342 81 368 100 c 1,39,-1
 410 45 l 1,40,41
 352 -8 352 -8 281 -12 c 1,42,-1
 281 -60 l 1,43,0
 325 -65 325 -65 346.5 -86.5 c 128,-1,1
EndSplineSet
Validated: 1
Substitution2: "'smcp' Gemeine in Kapit+AOQA-lchen Nachschlagetabelle 27 Subtabelle" ccedilla.sc
Substitution2: "'aalt' Zugriff auf alle Alternativen Nachschlagetabelle 0 Subtabelle" ccedilla.sc
EndChar

StartChar: uni0255
Encoding: 533 597 393
Width: 443
GlyphClass: 2
Flags: W
AnchorPoint: "Anker-18" 0 0 basechar 0
AnchorPoint: "Anker-17" 0 0 basechar 0
AnchorPoint: "Anker-16" 261 526 basechar 0
AnchorPoint: "Anker-15" 0 0 basechar 0
AnchorPoint: "Anker-14" 261 -19 basechar 0
LayerCount: 2
Fore
SplineSet
397 200 m 128,-1,1
 426 171 426 171 426 123 c 0,2,3
 426 59 426 59 382 23 c 128,-1,4
 338 -13 338 -13 268 -13 c 0,5,6
 229 -13 229 -13 195 -1 c 1,7,-1
 166 -73 l 1,8,-1
 114 -51 l 1,9,-1
 147 24 l 1,10,11
 100 57 100 57 74.5 117 c 128,-1,12
 49 177 49 177 49 259 c 0,13,14
 49 345 49 345 75.5 408 c 128,-1,15
 102 471 102 471 150.5 505 c 128,-1,16
 199 539 199 539 264 539 c 0,17,18
 306 539 306 539 341 525 c 128,-1,19
 376 511 376 511 408 482 c 1,20,-1
 367 428 l 1,21,22
 344 447 344 447 320.5 456.5 c 128,-1,23
 297 466 297 466 268 466 c 0,24,25
 209 466 209 466 176.5 416 c 128,-1,26
 144 366 144 366 144 260 c 256,27,28
 144 154 144 154 182 103 c 1,29,30
 208 171 208 171 240 200 c 128,-1,31
 272 229 272 229 320 229 c 256,32,0
 368 229 368 229 397 200 c 128,-1,1
334.5 76 m 128,-1,34
 356 92 356 92 356 124 c 0,35,36
 356 146 356 146 345 158 c 128,-1,37
 334 170 334 170 313 170 c 0,38,39
 286 170 286 170 267.5 148.5 c 128,-1,40
 249 127 249 127 226 69 c 1,41,42
 250 60 250 60 278 60 c 0,43,33
 313 60 313 60 334.5 76 c 128,-1,34
EndSplineSet
Validated: 1
EndChar

StartChar: uni0188
Encoding: 328 392 395
Width: 428
GlyphClass: 2
Flags: W
AnchorPoint: "Anker-18" 0 0 basechar 0
AnchorPoint: "Anker-17" 0 0 basechar 0
AnchorPoint: "Anker-16" 215 739 basechar 0
AnchorPoint: "Anker-15" 0 0 basechar 0
AnchorPoint: "Anker-14" 215 0 basechar 0
LayerCount: 2
Fore
SplineSet
560 713 m 1,1,-1
 528 657 l 1,2,3
 510 668 510 668 496 673 c 128,-1,4
 482 678 482 678 463 678 c 0,5,6
 408 678 408 678 408 609 c 2,7,-1
 408 482 l 1,8,-1
 371 433 l 1,9,10
 343 449 343 449 319.5 457.5 c 128,-1,11
 296 466 296 466 268 466 c 0,12,13
 209 466 209 466 176.5 416 c 128,-1,14
 144 366 144 366 144 260 c 0,15,16
 144 62 144 62 268 62 c 0,17,18
 296 62 296 62 319 71.5 c 128,-1,19
 342 81 342 81 368 100 c 1,20,-1
 410 45 l 1,21,22
 346 -13 346 -13 265 -13 c 0,23,24
 164 -13 164 -13 106.5 57 c 128,-1,25
 49 127 49 127 49 259 c 0,26,27
 49 345 49 345 75 408 c 128,-1,28
 101 471 101 471 148.5 505 c 128,-1,29
 196 539 196 539 259 539 c 0,30,31
 296 539 296 539 325 526 c 1,32,-1
 325 609 l 2,33,34
 325 676 325 676 359.5 712.5 c 128,-1,35
 394 749 394 749 453 749 c 256,36,0
 512 749 512 749 560 713 c 1,1,-1
EndSplineSet
Validated: 1
Substitution2: "'smcp' Gemeine in Kapit+AOQA-lchen Nachschlagetabelle 27 Subtabelle" uni0188.sc
Substitution2: "'aalt' Zugriff auf alle Alternativen Nachschlagetabelle 0 Subtabelle" uni0188.sc
EndChar

StartChar: uni0297
Encoding: 599 663 396
Width: 446
GlyphClass: 2
Flags: W
AnchorPoint: "Anker-18" 0 0 basechar 0
AnchorPoint: "Anker-17" 0 0 basechar 0
AnchorPoint: "Anker-16" 284 526 basechar 0
AnchorPoint: "Anker-15" 0 0 basechar 0
AnchorPoint: "Anker-14" 282 -202 basechar 0
LayerCount: 2
Fore
SplineSet
360 525 m 128,-1,1
 394 511 394 511 426 482 c 1,2,-1
 386 427 l 1,3,4
 362 447 362 447 338.5 456.5 c 128,-1,5
 315 466 315 466 288 466 c 0,6,7
 159 466 159 466 159 160 c 0,8,9
 159 3 159 3 192 -66.5 c 128,-1,10
 225 -136 225 -136 285 -136 c 0,11,12
 313 -136 313 -136 336 -127 c 128,-1,13
 359 -118 359 -118 385 -98 c 1,14,-1
 426 -154 l 1,15,16
 363 -212 363 -212 283 -212 c 0,17,18
 178 -212 178 -212 121 -118.5 c 128,-1,19
 64 -25 64 -25 64 159 c 0,20,21
 64 344 64 344 122 441.5 c 128,-1,22
 180 539 180 539 285 539 c 0,23,0
 326 539 326 539 360 525 c 128,-1,1
EndSplineSet
Validated: 1
EndChar

StartChar: uni023C
Encoding: 508 572 397
Width: 428
GlyphClass: 2
Flags: W
AnchorPoint: "Anker-18" 0 0 basechar 0
AnchorPoint: "Anker-17" 0 0 basechar 0
AnchorPoint: "Anker-16" 263 526 basechar 0
AnchorPoint: "Anker-15" 0 0 basechar 0
AnchorPoint: "Anker-14" 257 0 basechar 0
LayerCount: 2
Fore
SplineSet
265 -13 m 0,1,2
 233 -13 233 -13 208 -6 c 1,3,-1
 192 -71 l 1,4,-1
 154 -62 l 1,5,-1
 171 6 l 1,6,7
 112 33 112 33 80.5 97.5 c 128,-1,8
 49 162 49 162 49 259 c 0,9,10
 49 345 49 345 75.5 408 c 128,-1,11
 102 471 102 471 150.5 505 c 128,-1,12
 199 539 199 539 264 539 c 0,13,14
 283 539 283 539 301 536 c 1,15,-1
 315 595 l 1,16,-1
 353 586 l 1,17,-1
 338 526 l 1,18,19
 374 513 374 513 408 482 c 1,20,-1
 368 428 l 1,21,22
 344 448 344 448 321 456 c 1,23,-1
 226 69 l 1,24,25
 244 62 244 62 268 62 c 0,26,27
 296 62 296 62 319 71.5 c 128,-1,28
 342 81 342 81 368 100 c 1,29,-1
 410 45 l 1,30,0
 346 -13 346 -13 265 -13 c 0,1,2
192 91 m 1,32,-1
 283 465 l 1,33,34
 278 466 278 466 268 466 c 0,35,36
 209 466 209 466 176.5 416 c 128,-1,37
 144 366 144 366 144 260 c 0,38,31
 144 139 144 139 192 91 c 1,32,-1
EndSplineSet
Validated: 1
Substitution2: "'smcp' Gemeine in Kapit+AOQA-lchen Nachschlagetabelle 27 Subtabelle" uni023C.sc
Substitution2: "'aalt' Zugriff auf alle Alternativen Nachschlagetabelle 0 Subtabelle" uni023C.sc
EndChar

StartChar: d
Encoding: 69 100 398
Width: 536
GlyphClass: 2
Flags: W
AnchorPoint: "Anker-18" 270 264 basechar 0
AnchorPoint: "Anker-17" 468 739 basechar 0
AnchorPoint: "Anker-16" 265 739 basechar 0
AnchorPoint: "Anker-15" 0 0 basechar 0
AnchorPoint: "Anker-14" 275 0 basechar 0
LayerCount: 2
Fore
SplineSet
455 739 m 1,0,-1
 455 0 l 1,1,-1
 375 0 l 1,2,-1
 369 69 l 1,3,4
 318 -13 318 -13 232 -13 c 256,5,6
 146 -13 146 -13 98.5 60 c 128,-1,7
 51 133 51 133 51 261 c 0,8,9
 51 344 51 344 74.5 407 c 128,-1,10
 98 470 98 470 141 504.5 c 128,-1,11
 184 539 184 539 240 539 c 0,12,13
 315 539 315 539 365 476 c 1,14,-1
 365 749 l 1,15,-1
 455 739 l 1,0,-1
315.5 78 m 128,-1,17
 342 98 342 98 365 137 c 1,18,-1
 365 401 l 1,19,20
 320 468 320 468 260 468 c 0,21,22
 207 468 207 468 176 417 c 128,-1,23
 145 366 145 366 146 263 c 0,24,25
 146 158 146 158 174 108 c 128,-1,26
 202 58 202 58 253 58 c 0,27,16
 289 58 289 58 315.5 78 c 128,-1,17
EndSplineSet
Validated: 33
Substitution2: "'smcp' Gemeine in Kapit+AOQA-lchen Nachschlagetabelle 27 Subtabelle" d.sc
Substitution2: "'aalt' Zugriff auf alle Alternativen Nachschlagetabelle 0 Subtabelle" d.sc
EndChar

StartChar: eth
Encoding: 176 240 399
Width: 516
GlyphClass: 2
Flags: W
AnchorPoint: "Anker-18" 0 0 basechar 0
AnchorPoint: "Anker-17" 0 0 basechar 0
AnchorPoint: "Anker-16" 271 739 basechar 0
AnchorPoint: "Anker-15" 0 0 basechar 0
AnchorPoint: "Anker-14" 253 0 basechar 0
LayerCount: 2
Fore
SplineSet
426 505 m 128,-1,1
 462 411 462 411 462 274 c 0,2,3
 462 139 462 139 406 63 c 128,-1,4
 350 -13 350 -13 253 -13 c 0,5,6
 193 -13 193 -13 147 16 c 128,-1,7
 101 45 101 45 75 100.5 c 128,-1,8
 49 156 49 156 49 234 c 0,9,10
 49 300 49 300 71 354.5 c 128,-1,11
 93 409 93 409 134 441 c 128,-1,12
 175 473 175 473 229 473 c 0,13,14
 310 473 310 473 364 406 c 1,15,16
 353 473 353 473 328 523 c 128,-1,17
 303 573 303 573 256 612 c 1,18,-1
 191 541 l 1,19,-1
 132 570 l 1,20,-1
 203 648 l 1,21,22
 151 673 151 673 102 684 c 1,23,-1
 119 749 l 1,24,25
 189 734 189 734 252 701 c 1,26,-1
 316 774 l 1,27,-1
 368 733 l 1,28,-1
 308 665 l 1,29,0
 390 599 390 599 426 505 c 128,-1,1
340 110.5 m 128,-1,31
 371 163 371 163 371 269 c 2,32,-1
 370 328 l 1,33,34
 322 404 322 404 249 404 c 0,35,36
 194 404 194 404 167 359.5 c 128,-1,37
 140 315 140 315 140 236 c 0,38,39
 140 146 140 146 169.5 102 c 128,-1,40
 199 58 199 58 253 58 c 0,41,30
 309 58 309 58 340 110.5 c 128,-1,31
EndSplineSet
Validated: 1
Substitution2: "'smcp' Gemeine in Kapit+AOQA-lchen Nachschlagetabelle 27 Subtabelle" eth.sc
Substitution2: "'aalt' Zugriff auf alle Alternativen Nachschlagetabelle 0 Subtabelle" eth.sc
EndChar

StartChar: uni0238
Encoding: 504 568 400
Width: 780
GlyphClass: 2
Flags: W
AnchorPoint: "Anker-18" 0 0 basechar 0
AnchorPoint: "Anker-17" 0 0 basechar 0
AnchorPoint: "Anker-16" 390 739 basechar 0
AnchorPoint: "Anker-15" 0 0 basechar 0
AnchorPoint: "Anker-14" 390 0 basechar 0
LayerCount: 2
Fore
SplineSet
686 469.5 m 128,-1,1
 729 400 729 400 729 264 c 0,2,3
 729 178 729 178 707 115.5 c 128,-1,4
 685 53 685 53 645.5 20 c 128,-1,5
 606 -13 606 -13 553 -13 c 0,6,7
 515 -13 515 -13 484 9.5 c 128,-1,8
 453 32 453 32 434 67 c 1,9,-1
 426 0 l 1,10,-1
 357 0 l 1,11,-1
 350 69 l 1,12,13
 328 31 328 31 295.5 9 c 128,-1,14
 263 -13 263 -13 222 -13 c 0,15,16
 143 -13 143 -13 97 59.5 c 128,-1,17
 51 132 51 132 51 261 c 0,18,19
 51 345 51 345 73 408 c 128,-1,20
 95 471 95 471 135 505 c 128,-1,21
 175 539 175 539 228 539 c 0,22,23
 299 539 299 539 347 468 c 1,24,-1
 347 739 l 1,25,-1
 437 749 l 1,26,-1
 437 464 l 1,27,28
 489 539 489 539 566 539 c 256,29,0
 643 539 643 539 686 469.5 c 128,-1,1
300 78 m 128,-1,31
 325 98 325 98 347 136 c 1,32,-1
 347 399 l 1,33,34
 325 433 325 433 301.5 450.5 c 128,-1,35
 278 468 278 468 250 468 c 0,36,37
 202 468 202 468 173.5 417.5 c 128,-1,38
 145 367 145 367 146 263 c 0,39,40
 146 156 146 156 172 107 c 128,-1,41
 198 58 198 58 243 58 c 0,42,30
 275 58 275 58 300 78 c 128,-1,31
607 106.5 m 128,-1,44
 634 155 634 155 634 264 c 0,45,46
 634 376 634 376 609.5 422 c 128,-1,47
 585 468 585 468 539 468 c 0,48,49
 507 468 507 468 483 448.5 c 128,-1,50
 459 429 459 429 437 395 c 1,51,-1
 437 137 l 1,52,53
 458 98 458 98 480.5 78 c 128,-1,54
 503 58 503 58 534 58 c 0,55,43
 580 58 580 58 607 106.5 c 128,-1,44
EndSplineSet
Validated: 33
EndChar

StartChar: dcroat
Encoding: 209 273 403
Width: 540
GlyphClass: 2
Flags: W
AnchorPoint: "Anker-18" 270 264 basechar 0
AnchorPoint: "Anker-17" 468 739 basechar 0
AnchorPoint: "Anker-16" 265 739 basechar 0
AnchorPoint: "Anker-15" 0 0 basechar 0
AnchorPoint: "Anker-14" 275 0 basechar 0
LayerCount: 2
Fore
SplineSet
519 673 m 1,0,-1
 519 609 l 1,1,-1
 455 609 l 1,2,-1
 455 0 l 1,3,-1
 375 0 l 1,4,-1
 369 69 l 1,5,6
 318 -13 318 -13 232 -13 c 256,7,8
 146 -13 146 -13 98.5 60 c 128,-1,9
 51 133 51 133 51 261 c 0,10,11
 51 344 51 344 74.5 407 c 128,-1,12
 98 470 98 470 141 504.5 c 128,-1,13
 184 539 184 539 240 539 c 0,14,15
 315 539 315 539 365 476 c 1,16,-1
 365 609 l 1,17,-1
 227 609 l 1,18,-1
 227 673 l 1,19,-1
 365 673 l 1,20,-1
 365 749 l 1,21,-1
 455 739 l 1,22,-1
 455 673 l 1,23,-1
 519 673 l 1,0,-1
315.5 78 m 128,-1,25
 342 98 342 98 365 137 c 1,26,-1
 365 401 l 1,27,28
 320 468 320 468 260 468 c 0,29,30
 207 468 207 468 176 417 c 128,-1,31
 145 366 145 366 146 263 c 0,32,33
 146 158 146 158 174 108 c 128,-1,34
 202 58 202 58 253 58 c 0,35,24
 289 58 289 58 315.5 78 c 128,-1,25
EndSplineSet
Validated: 33
Substitution2: "'smcp' Gemeine in Kapit+AOQA-lchen Nachschlagetabelle 27 Subtabelle" dcroat.sc
Substitution2: "'aalt' Zugriff auf alle Alternativen Nachschlagetabelle 0 Subtabelle" dcroat.sc
EndChar

StartChar: uni0221
Encoding: 481 545 404
Width: 661
GlyphClass: 2
Flags: W
AnchorPoint: "Anker-18" 0 0 basechar 0
AnchorPoint: "Anker-17" 0 0 basechar 0
AnchorPoint: "Anker-16" 331 739 basechar 0
AnchorPoint: "Anker-15" 0 0 basechar 0
AnchorPoint: "Anker-14" 331 -202 basechar 0
LayerCount: 2
Fore
SplineSet
651 189 m 128,-1,1
 678 162 678 162 678 117 c 0,2,3
 678 55 678 55 636 21 c 128,-1,4
 594 -13 594 -13 527 -13 c 0,5,6
 495 -13 495 -13 465 -4 c 1,7,-1
 435 -73 l 1,8,-1
 384 -52 l 1,9,-1
 417 22 l 1,10,11
 389 44 389 44 376 79 c 1,12,13
 352 36 352 36 316 11.5 c 128,-1,14
 280 -13 280 -13 232 -13 c 0,15,16
 146 -13 146 -13 98.5 60 c 128,-1,17
 51 133 51 133 51 261 c 0,18,19
 51 344 51 344 74.5 407 c 128,-1,20
 98 470 98 470 141 504.5 c 128,-1,21
 184 539 184 539 240 539 c 0,22,23
 315 539 315 539 365 476 c 1,24,-1
 365 749 l 1,25,-1
 455 739 l 1,26,-1
 455 138 l 2,27,28
 455 126 455 126 457 110 c 1,29,30
 479 164 479 164 508 190 c 128,-1,31
 537 216 537 216 580 216 c 0,32,0
 624 216 624 216 651 189 c 128,-1,1
315.5 78 m 128,-1,34
 342 98 342 98 365 137 c 1,35,-1
 365 144 l 1,36,-1
 365 401 l 1,37,38
 320 468 320 468 260 468 c 0,39,40
 207 468 207 468 176 417 c 128,-1,41
 145 366 145 366 146 263 c 0,42,43
 146 158 146 158 174 108 c 128,-1,44
 202 58 202 58 253 58 c 0,45,33
 289 58 289 58 315.5 78 c 128,-1,34
589 74.5 m 128,-1,47
 608 90 608 90 608 119 c 0,48,49
 608 137 608 137 598.5 147.5 c 128,-1,50
 589 158 589 158 572 158 c 0,51,52
 548 158 548 158 531.5 138 c 128,-1,53
 515 118 515 118 493 64 c 1,54,55
 511 59 511 59 534 59 c 0,56,46
 570 59 570 59 589 74.5 c 128,-1,47
EndSplineSet
Validated: 33
EndChar

StartChar: uni018D
Encoding: 333 397 407
Width: 521
GlyphClass: 2
Flags: W
AnchorPoint: "Anker-18" 0 0 basechar 0
AnchorPoint: "Anker-17" 0 0 basechar 0
AnchorPoint: "Anker-16" 261 526 basechar 0
AnchorPoint: "Anker-15" 0 0 basechar 0
AnchorPoint: "Anker-14" 261 -202 basechar 0
LayerCount: 2
Fore
SplineSet
402.5 2 m 128,-1,1
 423 -30 423 -30 423 -74 c 0,2,3
 423 -134 423 -134 379 -174.5 c 128,-1,4
 335 -215 335 -215 255 -215 c 0,5,6
 168 -215 168 -215 98 -162 c 1,7,-1
 140 -111 l 1,8,9
 169 -130 169 -130 193.5 -138 c 128,-1,10
 218 -146 218 -146 249 -146 c 0,11,12
 291 -146 291 -146 312.5 -126.5 c 128,-1,13
 334 -107 334 -107 334 -74 c 0,14,15
 334 -51 334 -51 325.5 -35 c 128,-1,16
 317 -19 317 -19 294.5 -3.5 c 128,-1,17
 272 12 272 12 227 32 c 0,18,19
 133 75 133 75 91 132 c 128,-1,20
 49 189 49 189 49 286 c 0,21,22
 49 402 49 402 105.5 470.5 c 128,-1,23
 162 539 162 539 261 539 c 256,24,25
 360 539 360 539 416 475.5 c 128,-1,26
 472 412 472 412 472 289 c 0,27,28
 472 209 472 209 435.5 152 c 128,-1,29
 399 95 399 95 332 61 c 1,30,0
 382 34 382 34 402.5 2 c 128,-1,1
154.5 198 m 128,-1,32
 166 163 166 163 195 137 c 128,-1,33
 224 111 224 111 279 86 c 1,34,35
 328 119 328 119 353 168 c 128,-1,36
 378 217 378 217 378 290 c 0,37,38
 378 382 378 382 349 425 c 128,-1,39
 320 468 320 468 262 468 c 0,40,41
 203 468 203 468 173.5 425 c 128,-1,42
 144 382 144 382 143 288 c 0,43,31
 143 233 143 233 154.5 198 c 128,-1,32
EndSplineSet
Validated: 1
EndChar

StartChar: uni02A4
Encoding: 612 676 408
Width: 859
GlyphClass: 2
Flags: W
AnchorPoint: "Anker-18" 270 264 basechar 0
AnchorPoint: "Anker-17" 468 739 basechar 0
AnchorPoint: "Anker-16" 500 739 basechar 0
AnchorPoint: "Anker-15" 0 0 basechar 0
AnchorPoint: "Anker-14" 617 -202 basechar 0
LayerCount: 2
Fore
SplineSet
835 6 m 0,1,2
 835 -58 835 -58 809 -107 c 128,-1,3
 783 -156 783 -156 733.5 -183.5 c 128,-1,4
 684 -211 684 -211 618 -211 c 0,5,6
 555 -211 555 -211 508.5 -188.5 c 128,-1,7
 462 -166 462 -166 426 -121 c 1,8,-1
 478 -74 l 1,9,10
 511 -108 511 -108 542.5 -123.5 c 128,-1,11
 574 -139 574 -139 615 -139 c 0,12,13
 676 -139 676 -139 708.5 -100.5 c 128,-1,14
 741 -62 741 -62 741 9 c 256,15,16
 741 80 741 80 707 111 c 128,-1,17
 673 142 673 142 599 142 c 2,18,-1
 532 142 l 1,19,-1
 532 204 l 1,20,-1
 713 454 l 1,21,-1
 455 454 l 1,22,-1
 455 0 l 1,23,-1
 375 0 l 1,24,-1
 369 69 l 1,25,26
 318 -13 318 -13 232 -13 c 256,27,28
 146 -13 146 -13 98.5 60 c 128,-1,29
 51 133 51 133 51 261 c 0,30,31
 51 344 51 344 74.5 407 c 128,-1,32
 98 470 98 470 141 504.5 c 128,-1,33
 184 539 184 539 240 539 c 0,34,35
 315 539 315 539 365 476 c 1,36,-1
 365 749 l 1,37,-1
 455 739 l 1,38,-1
 455 526 l 1,39,-1
 811 526 l 1,40,-1
 811 459 l 1,41,-1
 624 205 l 1,42,0
 835 201 835 201 835 6 c 0,1,2
315.5 78 m 128,-1,44
 342 98 342 98 365 137 c 1,45,-1
 365 401 l 1,46,47
 320 468 320 468 260 468 c 0,48,49
 207 468 207 468 176 417 c 128,-1,50
 145 366 145 366 146 263 c 0,51,52
 146 158 146 158 174 108 c 128,-1,53
 202 58 202 58 253 58 c 0,54,43
 289 58 289 58 315.5 78 c 128,-1,44
EndSplineSet
Validated: 33
EndChar

StartChar: uni0257
Encoding: 535 599 409
Width: 536
GlyphClass: 2
Flags: W
AnchorPoint: "Anker-18" 0 0 basechar 0
AnchorPoint: "Anker-17" 0 0 basechar 0
AnchorPoint: "Anker-16" 281 739 basechar 0
AnchorPoint: "Anker-15" 0 0 basechar 0
AnchorPoint: "Anker-14" 267 0 basechar 0
LayerCount: 2
Fore
SplineSet
606 713 m 1,1,-1
 574 657 l 1,2,3
 556 668 556 668 542 673 c 128,-1,4
 528 678 528 678 509 678 c 0,5,6
 454 678 454 678 454 609 c 2,7,-1
 454 526 l 1,8,-1
 455 526 l 1,9,-1
 455 0 l 1,10,-1
 375 0 l 1,11,-1
 369 69 l 1,12,13
 318 -13 318 -13 232 -13 c 256,14,15
 146 -13 146 -13 98.5 59.5 c 128,-1,16
 51 132 51 132 51 261 c 0,17,18
 51 344 51 344 74.5 407 c 128,-1,19
 98 470 98 470 141 504.5 c 128,-1,20
 184 539 184 539 240 539 c 0,21,22
 315 539 315 539 365 476 c 1,23,-1
 365 525 l 1,24,-1
 364 525 l 1,25,-1
 364 605 l 2,26,27
 364 675 364 675 400 712 c 128,-1,28
 436 749 436 749 499 749 c 0,29,0
 558 749 558 749 606 713 c 1,1,-1
315.5 78 m 128,-1,31
 342 98 342 98 365 137 c 1,32,-1
 365 401 l 1,33,34
 320 468 320 468 260 468 c 0,35,36
 207 468 207 468 176 417 c 128,-1,37
 145 366 145 366 146 263 c 0,38,39
 146 158 146 158 174 108 c 128,-1,40
 202 58 202 58 253 58 c 0,41,30
 289 58 289 58 315.5 78 c 128,-1,31
EndSplineSet
Validated: 33
Substitution2: "'smcp' Gemeine in Kapit+AOQA-lchen Nachschlagetabelle 27 Subtabelle" uni0257.sc
Substitution2: "'aalt' Zugriff auf alle Alternativen Nachschlagetabelle 0 Subtabelle" uni0257.sc
EndChar

StartChar: uni0256
Encoding: 534 598 411
Width: 536
GlyphClass: 2
Flags: W
AnchorPoint: "Anker-18" 0 0 basechar 0
AnchorPoint: "Anker-17" 0 0 basechar 0
AnchorPoint: "Anker-16" 411 739 basechar 0
AnchorPoint: "Anker-15" 0 0 basechar 0
AnchorPoint: "Anker-14" 267 -202 basechar 0
LayerCount: 2
Fore
SplineSet
611 -174 m 1,0,1
 564 -211 564 -211 502 -211 c 256,2,3
 440 -211 440 -211 402 -174.5 c 128,-1,4
 364 -138 364 -138 364 -70 c 2,5,-1
 364 1 l 1,6,-1
 365 1 l 1,7,-1
 365 63 l 1,8,9
 342 27 342 27 308.5 7 c 128,-1,10
 275 -13 275 -13 232 -13 c 0,11,12
 146 -13 146 -13 98.5 59.5 c 128,-1,13
 51 132 51 132 51 261 c 0,14,15
 51 344 51 344 74.5 407 c 128,-1,16
 98 470 98 470 141 504.5 c 128,-1,17
 184 539 184 539 240 539 c 0,18,19
 315 539 315 539 365 476 c 1,20,-1
 365 749 l 1,21,-1
 455 739 l 1,22,-1
 455 0 l 1,23,-1
 454 0 l 1,24,-1
 454 -74 l 2,25,26
 454 -141 454 -141 511 -141 c 0,27,28
 530 -141 530 -141 544 -136 c 128,-1,29
 558 -131 558 -131 575 -120 c 1,30,-1
 611 -174 l 1,0,1
315.5 78 m 128,-1,32
 342 98 342 98 365 137 c 1,33,-1
 365 401 l 1,34,35
 320 468 320 468 260 468 c 0,36,37
 207 468 207 468 176 417 c 128,-1,38
 145 366 145 366 146 263 c 0,39,40
 146 158 146 158 174 108 c 128,-1,41
 202 58 202 58 253 58 c 0,42,31
 289 58 289 58 315.5 78 c 128,-1,32
EndSplineSet
Validated: 33
Substitution2: "'smcp' Gemeine in Kapit+AOQA-lchen Nachschlagetabelle 27 Subtabelle" uni0256.sc
Substitution2: "'aalt' Zugriff auf alle Alternativen Nachschlagetabelle 0 Subtabelle" uni0256.sc
EndChar

